<?xml version="1.0" encoding="utf-8"?>
<!-- Generator: Adobe Illustrator 19.0.0, SVG Export Plug-In . SVG Version: 6.00 Build 0)  -->
<svg version="1.1" id="Layer_1" xmlns="http://www.w3.org/2000/svg" xmlns:xlink="http://www.w3.org/1999/xlink" x="0px" y="0px"
	 viewBox="0 0 104.4 73.9" style="enable-background:new 0 0 104.4 73.9;" xml:space="preserve">
<style type="text/css">
	.st0{fill:url(#XMLID_62_);}
	.st1{fill:url(#XMLID_63_);}
	.st2{fill:url(#XMLID_64_);}
	.st3{fill:url(#XMLID_65_);}
	.st4{fill:none;}
	.st5{font-family:'MyriadPro-Regular';}
	.st6{font-size:2.3031px;}
	.st7{fill:#ED1C24;}
</style>
<linearGradient id="XMLID_62_" gradientUnits="userSpaceOnUse" x1="93.1938" y1="42.7455" x2="75.3428" y2="28.7372">
	<stop  offset="0" style="stop-color:#FFF33B"/>
	<stop  offset="5.084340e-002" style="stop-color:#FFE029"/>
	<stop  offset="0.1113" style="stop-color:#FFD218"/>
	<stop  offset="0.1737" style="stop-color:#FEC90F"/>
	<stop  offset="0.2401" style="stop-color:#FDC70C"/>
	<stop  offset="0.5614" style="stop-color:#F8B019"/>
	<stop  offset="1" style="stop-color:#83360D"/>
</linearGradient>
<path id="XMLID_3_" class="st0" d="M51.4,41.3c3.4,2.9,7,6,10.6,9.4c2.6,2.5,5.1,5,7.4,7.4c2.5-4.9,5.4-10,8.5-15.3
	c6.8-11.3,13.9-21.2,20.8-29.7C83,22.5,67.2,31.9,51.4,41.3z"/>
<linearGradient id="XMLID_63_" gradientUnits="userSpaceOnUse" x1="104.5392" y1="22.976" x2="52.4161" y2="56.1444">
	<stop  offset="0" style="stop-color:#FFF33B"/>
	<stop  offset="5.084340e-002" style="stop-color:#FFE029"/>
	<stop  offset="0.1113" style="stop-color:#FFD218"/>
	<stop  offset="0.1737" style="stop-color:#FEC90F"/>
	<stop  offset="0.2401" style="stop-color:#FDC70C"/>
	<stop  offset="0.5614" style="stop-color:#F8B019"/>
	<stop  offset="1" style="stop-color:#83360D"/>
</linearGradient>
<path id="XMLID_9_" class="st1" d="M98.5,13.3C91.7,21.8,84.7,31.5,78,42.7C74.8,47.9,72,53,69.5,58c-2.3-2.4-4.8-4.9-7.4-7.4
	c-3.3-3.1-6.5-6-9.6-8.6c-0.2,0.1-0.4,0.3-0.7,0.4c3.4,2.9,7,6,10.6,9.4c2.6,2.5,5.1,5,7.4,7.4c2.6-5,5.4-10.1,8.5-15.3
	C85.1,32.6,92,22.3,98.9,13.1C98.8,13.2,98.6,13.3,98.5,13.3z"/>
<linearGradient id="XMLID_64_" gradientUnits="userSpaceOnUse" x1="80.9367" y1="36.2559" x2="0.1299" y2="27.6236">
	<stop  offset="0" style="stop-color:#FFF33B"/>
	<stop  offset="5.084340e-002" style="stop-color:#FFE029"/>
	<stop  offset="0.1113" style="stop-color:#FFD218"/>
	<stop  offset="0.1737" style="stop-color:#FEC90F"/>
	<stop  offset="0.2401" style="stop-color:#FDC70C"/>
	<stop  offset="0.5614" style="stop-color:#F8B019"/>
	<stop  offset="1" style="stop-color:#83360D"/>
</linearGradient>
<path id="XMLID_8_" class="st2" d="M59.5,40.8c-5.8,4.1-11.8,8.4-11.8,8.4c-5.1,3.6-9.2,6.6-11.6,8.3c-1.6-3.4-3.6-7.7-6.2-12.7
	c0,0-3.7-7.2-7.5-13.7C14.9,18.8,7.1,8.4,0,0c8.2,10.7,16.8,23.3,24.9,37.7C29,45,32.6,52.2,35.8,59c7.9-5.5,15.8-11.1,23.7-16.8
	C72.7,32.7,85.9,23,98.8,13.1C76.1,29,65.2,36.7,59.5,40.8z"/>
<linearGradient id="XMLID_65_" gradientUnits="userSpaceOnUse" x1="54.7694" y1="49.5087" x2="48.274" y2="-2.5446">
	<stop  offset="0" style="stop-color:#FFF33B"/>
	<stop  offset="5.084340e-002" style="stop-color:#FFE029"/>
	<stop  offset="0.1113" style="stop-color:#FFD218"/>
	<stop  offset="0.1737" style="stop-color:#FEC90F"/>
	<stop  offset="0.2401" style="stop-color:#FDC70C"/>
	<stop  offset="0.4287" style="stop-color:#F8B019"/>
	<stop  offset="0.949" style="stop-color:#83360D"/>
</linearGradient>
<path id="XMLID_7_" class="st3" d="M98.8,13.1c0.4,0.6-16.4,11.9-39,28.1c-10,7.2-18.3,13.3-24,17.5c-2.9-7-6.3-14.4-10.6-22.1
	C17.1,21.9,8.2,9.7,0,0c12.9,12.3,30.4,24.2,51.6,25.1c10.8,0.5,28.9-2.2,43.1-10C95.7,14.6,98.7,12.9,98.8,13.1z"/>
<text id="XMLID_16_" transform="matrix(1 0 0 -1 41.5833 73.754)" class="st4 st5 st6">ENGENERING</text>
<path id="XMLID_13_" d="M10.3,72.1H2.6c-0.5,0-1-0.2-1.4-0.6c-0.4-0.4-0.6-0.9-0.6-1.4v-3.3c0-0.5,0.2-1,0.6-1.4
	c0.4-0.4,0.9-0.6,1.4-0.6h5.7c0.5,0,1,0.2,1.4,0.6c0.4,0.4,0.6,0.9,0.6,1.4v2.3H1.9v1.8h8.4V72.1z M9,67.8V66H1.9v1.8H9z"/>
<path id="XMLID_17_" d="M21.4,72.1h-1.3V66h-7.1v6.1h-1.3v-7.3h7.7c0.5,0,1,0.2,1.4,0.6c0.4,0.4,0.6,0.9,0.6,1.4V72.1z"/>
<path id="XMLID_19_" d="M32.6,72.5c0,0.5-0.2,1-0.6,1.4c-0.4,0.4-0.9,0.6-1.4,0.6h-7.7v-1.3h8.4v-1.1h-6.4c-0.5,0-1-0.2-1.4-0.6
	c-0.4-0.4-0.6-0.9-0.6-1.4v-3.3c0-0.5,0.2-1,0.6-1.4c0.4-0.4,0.9-0.6,1.4-0.6h7.7V72.5z M31.3,70.8V66h-7.1v4.8H31.3z"/>
<path id="XMLID_22_" d="M35.3,72.1h-1.3v-7.3h1.3V72.1z"/>
<path id="XMLID_25_" d="M46.5,72.1h-1.3V66h-7.1v6.1h-1.3v-7.3h7.7c0.5,0,1,0.2,1.4,0.6c0.4,0.4,0.6,0.9,0.6,1.4V72.1z"/>
<path id="XMLID_27_" d="M57.6,72.1H50c-0.5,0-1-0.2-1.4-0.6c-0.4-0.4-0.6-0.9-0.6-1.4v-3.3c0-0.5,0.2-1,0.6-1.4
	c0.4-0.4,0.9-0.6,1.4-0.6h5.7c0.5,0,1,0.2,1.4,0.6c0.4,0.4,0.6,0.9,0.6,1.4v2.3h-8.4v1.8h8.4V72.1z M56.4,67.8V66h-7.1v1.8H56.4z"/>
<path id="XMLID_30_" d="M68.8,72.1h-7.7c-0.5,0-1-0.2-1.4-0.6c-0.4-0.4-0.6-0.9-0.6-1.4v-3.3c0-0.5,0.2-1,0.6-1.4
	c0.4-0.4,0.9-0.6,1.4-0.6h5.7c0.5,0,1,0.2,1.4,0.6c0.4,0.4,0.6,0.9,0.6,1.4v2.3h-8.4v1.8h8.4V72.1z M67.5,67.8V66h-7.1v1.8H67.5z"/>
<path id="XMLID_33_" d="M79.9,68.4h-1.3V66h-7.1v6.1h-1.3v-7.3h7.7c0.5,0,1,0.2,1.4,0.6c0.4,0.4,0.6,0.9,0.6,1.4V68.4z"/>
<path id="XMLID_35_" d="M82.7,72.1h-1.3v-7.3h1.3V72.1z"/>
<path id="XMLID_38_" d="M93.8,72.1h-1.3V66h-7.1v6.1h-1.3v-7.3h7.7c0.5,0,1,0.2,1.4,0.6c0.4,0.4,0.6,0.9,0.6,1.4V72.1z"/>
<path id="XMLID_40_" d="M105,72.5c0,0.5-0.2,1-0.6,1.4c-0.4,0.4-0.9,0.6-1.4,0.6h-7.7v-1.3h8.4v-1.1h-6.4c-0.5,0-1-0.2-1.4-0.6
	c-0.4-0.4-0.6-0.9-0.6-1.4v-3.3c0-0.5,0.2-1,0.6-1.4c0.4-0.4,0.9-0.6,1.4-0.6h7.7V72.5z M103.7,70.8V66h-7.1v4.8H103.7z"/>
<rect id="XMLID_6_" x="34.1" y="62.7" width="1.3" height="1.3"/>
<rect id="XMLID_12_" x="81.4" y="73.1" class="st7" width="1.2" height="1.2"/>
</svg>
