<?xml version="1.0" encoding="utf-8"?>
<!-- Generator: Adobe Illustrator 19.0.0, SVG Export Plug-In . SVG Version: 6.00 Build 0)  -->
<svg version="1.1" id="Layer_2" xmlns="http://www.w3.org/2000/svg" xmlns:xlink="http://www.w3.org/1999/xlink" x="0px" y="0px"
	 viewBox="0 0 478.8 352.8" style="enable-background:new 0 0 478.8 352.8;" xml:space="preserve">
<style type="text/css">
	.st0{fill:none;stroke:#231F20;stroke-linecap:round;stroke-linejoin:round;stroke-miterlimit:10;}
	.st1{fill:none;stroke:#AAAAAA;stroke-linecap:round;stroke-linejoin:round;stroke-miterlimit:10;}
	.st2{fill:none;stroke:#FFC107;stroke-linecap:round;stroke-linejoin:round;stroke-miterlimit:10;}
	.st3{clip-path:url(#XMLID_2_);fill:#AAAAAA;}
	.st4{fill:#AAAAAA;}
	.st5{fill:none;stroke:#FFFFFF;stroke-linecap:round;stroke-linejoin:round;}
	.st6{fill:none;stroke:#FFFFFF;stroke-linecap:round;stroke-linejoin:round;stroke-miterlimit:10;}
	.st7{fill:none;stroke:#FFFFFF;stroke-linecap:round;stroke-linejoin:round;stroke-miterlimit:3.864;}
	.st8{fill:none;stroke:#FFFFFF;stroke-linecap:round;stroke-linejoin:round;stroke-dasharray:1.854,1.854;}
	.st9{fill:none;stroke:#FFFFFF;stroke-linecap:round;stroke-linejoin:round;stroke-dasharray:2.238,2.238;}
	.st10{fill:#FFFFFF;}
	.st11{fill:#FFC107;}
	.st12{font-family:'ArialRoundedMTBold';}
	.st13{font-size:9.0735px;}
	.st14{fill:none;stroke:#C5C5C5;stroke-miterlimit:10;}
	.st15{fill:none;stroke:#C5C5C5;stroke-linecap:round;stroke-linejoin:round;stroke-miterlimit:10;}
	.st16{fill:none;stroke:#231F20;stroke-linecap:round;stroke-linejoin:round;}
</style>
<polyline id="XMLID_240_" class="st0" points="246.1,264.6 241.1,269.8 236.1,264.6 "/>
<g id="XMLID_3_">
	<path id="XMLID_6_" class="st1" d="M39.1,25.1c-0.1-0.1-0.3-0.1-0.4,0c0,0-0.8,0.8-0.9,0.8c0,0,0,0,0,0c-0.8,0.4-3.9-2.8-3.3-3.4
		l0.9-0.8c0.1-0.1,0.1-0.3,0-0.4l-2.8-2.9c-0.1-0.1-0.1-0.1-0.2-0.1c-0.1,0-0.1,0-0.2,0.1c-1.4,1.4-3.7,2.8,1.6,8.2
		c5.2,5.3,6.7,3.3,8.1,1.8c0.1-0.1,0.1-0.3,0-0.4L39.1,25.1z"/>
	<path id="XMLID_5_" class="st1" d="M41.4,23c0.1-2.3-1.8-4.1-4-4"/>
	<path id="XMLID_4_" class="st1" d="M43.4,23c0.1-3.3-2.6-6.1-6-6"/>
	<path id="XMLID_8_" class="st1" d="M37.4,20.9c1.2-0.1,2.2,0.9,2.1,2.1"/>
</g>
<g id="XMLID_132_">
	<path id="XMLID_136_" class="st2" d="M46.6,139.5c-0.2-0.2-0.5-0.2-0.8,0c0,0-1.5,1.5-1.6,1.6c0,0-0.1,0-0.1,0.1
		c-1.6,0.8-7.4-5.4-6.3-6.6l1.7-1.6c0.2-0.2,0.2-0.6,0-0.8l-5.4-5.5c-0.1-0.1-0.2-0.2-0.4-0.2c-0.1,0-0.3,0.1-0.4,0.2
		c-2.7,2.7-7.1,5.3,3.1,15.7c10,10.2,12.9,6.3,15.7,3.4c0.2-0.2,0.2-0.5,0-0.7L46.6,139.5z"/>
	<path id="XMLID_135_" class="st2" d="M51.1,135.5c0.1-4.4-3.4-7.9-7.7-7.8"/>
	<path id="XMLID_134_" class="st2" d="M54.9,135.5c0.1-6.4-5.1-11.6-11.5-11.5"/>
	<path id="XMLID_133_" class="st2" d="M43.3,131.5c2.3-0.1,4.1,1.7,4,4"/>
</g>
<g id="XMLID_10_">
	<path id="XMLID_14_" class="st1" d="M88.2,18.3L83,23.7c-0.4,0.4-1,0.4-1.4,0l-5.2-5.5"/>
	<line id="XMLID_13_" class="st1" x1="84.7" y1="24.3" x2="88.2" y2="27.7"/>
	<line id="XMLID_12_" class="st1" x1="79.8" y1="24.3" x2="76.3" y2="27.7"/>
	<path id="XMLID_11_" class="st1" d="M74.8,18.2v9.5c0,1,0.7,1.7,1.5,1.7h12c0.9,0,1.5-0.8,1.5-1.7v-9.5c0-1-0.7-1.8-1.5-1.8h-12
		C75.5,16.5,74.8,17.3,74.8,18.2z"/>
</g>
<g id="XMLID_138_">
	<path id="XMLID_142_" class="st2" d="M107.9,130l-8.6,9c-0.7,0.7-1.7,0.7-2.3,0l-8.6-9"/>
	<line id="XMLID_141_" class="st2" x1="102.1" y1="140" x2="107.9" y2="145.5"/>
	<line id="XMLID_140_" class="st2" x1="94.1" y1="140" x2="88.3" y2="145.5"/>
	<path id="XMLID_139_" class="st2" d="M85.7,129.9v15.7c0,1.6,1.1,2.9,2.5,2.9h19.9c1.4,0,2.6-1.3,2.6-2.9v-15.7
		c0-1.6-1.1-2.9-2.6-2.9H88.2C86.8,127,85.7,128.3,85.7,129.9z"/>
</g>
<line id="XMLID_18_" class="st1" x1="127.6" y1="23.5" x2="130.4" y2="23.5"/>
<circle id="XMLID_17_" class="st1" cx="127.6" cy="23" r="6.5"/>
<line id="XMLID_16_" class="st1" x1="127.6" y1="23.5" x2="127.6" y2="19.5"/>
<g id="XMLID_20_">
	<g id="XMLID_21_">
		<defs>
			<rect id="XMLID_22_" x="164.5" y="17" width="7.1" height="13"/>
		</defs>
		<clipPath id="XMLID_2_">
			<use xlink:href="#XMLID_22_"  style="overflow:visible;"/>
		</clipPath>
		<path id="XMLID_23_" class="st3" d="M171.3,17l-1.7,0c-1.9,0-3.1,1.3-3.1,3.2v1.5h-1.7c-0.1,0-0.3,0.1-0.3,0.3v2.1
			c0,0.1,0.1,0.3,0.3,0.3h1.7v5.4c0,0.1,0.1,0.3,0.3,0.3h2.2c0.1,0,0.3-0.1,0.3-0.3v-5.4h2c0.1,0,0.3-0.1,0.3-0.3l0-2.1
			c0-0.1,0-0.1-0.1-0.2c0,0-0.1-0.1-0.2-0.1h-2v-1.3c0-0.6,0.1-0.9,0.9-0.9l1.1,0c0.1,0,0.3-0.1,0.3-0.3v-2
			C171.5,17.1,171.4,17,171.3,17L171.3,17z M171.3,17"/>
	</g>
</g>
<g id="XMLID_27_">
	<path id="XMLID_28_" class="st4" d="M215,20.3c-0.5,0.2-1,0.4-1.6,0.4c0.6-0.3,1-0.9,1.2-1.5c-0.5,0.3-1.1,0.6-1.8,0.7
		c-0.5-0.5-1.2-0.9-2-0.9c-1.5,0-2.8,1.2-2.8,2.8c0,0.2,0,0.4,0.1,0.6c-2.3-0.1-4.4-1.2-5.7-2.9c-0.2,0.4-0.4,0.9-0.4,1.4
		c0,1,0.5,1.8,1.2,2.3c-0.5,0-0.9-0.1-1.3-0.3v0c0,1.3,1,2.5,2.2,2.7c-0.2,0.1-0.5,0.1-0.7,0.1c-0.2,0-0.4,0-0.5,0
		c0.4,1.1,1.4,1.9,2.6,1.9c-1,0.7-2.1,1.2-3.5,1.2c-0.2,0-0.4,0-0.7,0c1.2,0.8,2.7,1.2,4.3,1.2c5.1,0,7.9-4.2,7.9-7.9l0-0.4
		C214.2,21.3,214.7,20.9,215,20.3L215,20.3z M215,20.3"/>
</g>
<g id="XMLID_32_">
	<path id="XMLID_33_" class="st4" d="M249.3,30c-2.6,0-3.8-1.3-3.8-2.6c0-0.3,0.1-0.7,0.3-1.1c0.2-0.4,0.6-0.8,1.1-1.1
		c0.9-0.6,2.1-0.7,2.9-0.8c-0.2-0.3-0.3-0.5-0.3-1c0-0.2,0-0.3,0.1-0.4c-0.1,0-0.2,0-0.2,0c-1.1,0-1.8-0.5-2.2-0.9
		c-0.5-0.5-0.8-1.2-0.8-1.9c0-0.9,0.4-1.8,1.1-2.4l0,0c1-0.9,2.3-1,3.1-1h4.1l-1.7,1h-0.6c0.4,0.4,0.9,1.1,0.9,2
		c0,1.3-0.8,2-1.5,2.5l0,0c-0.2,0.2-0.4,0.4-0.4,0.7c0,0.3,0.2,0.4,0.4,0.6l0,0l0.6,0.5l0,0c0.7,0.6,1.5,1.2,1.5,2.5
		c0,0.9-0.4,1.7-1.2,2.3C251.8,29.6,250.6,30,249.3,30z M248.6,25.6c-0.3,0.1-1.3,0.5-1.3,1.5c0,0.5,0.2,1,0.7,1.3
		c0.5,0.4,1.2,0.5,2,0.5c1.4,0,2.3-0.6,2.3-1.6c0-0.7-0.5-1.1-1.7-2c-0.1,0-0.2,0-0.3,0C250.3,25.3,249.4,25.3,248.6,25.6z
		 M249.5,17.9c-0.4,0-0.8,0.2-1,0.5c-0.2,0.3-0.3,0.6-0.3,1.1c0,0.5,0.1,1.2,0.5,1.8c0.2,0.4,0.7,1,1.4,1c0.3,0,0.8-0.2,1-0.4
		c0.2-0.2,0.4-0.6,0.4-1.1c0-0.6-0.2-1.3-0.5-1.9C250.6,18.5,250.2,17.9,249.5,17.9z"/>
</g>
<g id="XMLID_9_">
	<path id="XMLID_47_" class="st4" d="M287.5,21.2h-2.6c-0.1,0-0.2,0.1-0.2,0.2v8.4c0,0.1,0.1,0.2,0.2,0.2h2.6c0.1,0,0.2-0.1,0.2-0.2
		v-8.4C287.7,21.3,287.6,21.2,287.5,21.2L287.5,21.2z M287.5,21.2"/>
	<g id="XMLID_40_">
		<path id="XMLID_44_" class="st4" d="M286.2,17c-0.9,0-1.7,0.8-1.7,1.7c0,0.9,0.8,1.7,1.7,1.7c0.9,0,1.7-0.8,1.7-1.7
			C287.9,17.8,287.2,17,286.2,17L286.2,17z M286.2,17"/>
		<path id="XMLID_41_" class="st4" d="M294.1,21c-1,0-1.8,0.4-2.3,1v-0.5c0-0.1-0.1-0.2-0.2-0.2h-2.5c-0.1,0-0.2,0.1-0.2,0.2v8.4
			c0,0.1,0.1,0.2,0.2,0.2h2.6c0.1,0,0.2-0.1,0.2-0.2v-4.1c0-1.4,0.4-1.9,1.3-1.9c1.1,0,1.1,0.9,1.1,2v4.1c0,0.1,0.1,0.2,0.2,0.2h2.6
			c0.1,0,0.2-0.1,0.2-0.2v-4.6C297.5,23.1,297.1,21,294.1,21L294.1,21z M294.1,21"/>
	</g>
</g>
<g id="XMLID_51_">
	<path id="XMLID_59_" class="st5" d="M32.9,75.5c0,1,0.2,1.7,0.5,2.6c-0.5,0.2-0.9,0.7-0.9,1.3c0,0.8,0.7,1.5,1.5,1.5c0,0,0,0,0,0
		c0.3,3.8,4.7,7.1,7.4,7.1c2.8,0,7.1-3.2,7.4-7.1c0,0,0,0,0,0c0.8,0,1.5-0.7,1.5-1.5c0-0.6-0.4-1.1-0.9-1.3c0.3-0.9,0.5-1.6,0.5-2.6
		"/>
	<path id="XMLID_58_" class="st6" d="M35.6,76.3l-0.2,2.4c0,0-0.8-1.1-2-0.6"/>
	<path id="XMLID_57_" class="st6" d="M47.3,76.2l0.2,2.5c0,0,0.8-1.1,2-0.6"/>
	<path id="XMLID_56_" class="st6" d="M38.4,65.1c-3.2,0.9-5.2,3.5-5.9,6.7l0,0c-1,0-1.8,0.8-1.8,1.8c0,1,0.8,1.5,1.8,1.8
		c9.2,3.2,17.8,0,17.8,0l0,0c1-0.3,1.8-0.8,1.8-1.8c0-1-0.8-1.8-1.8-1.8l0,0c-0.7-3.2-2.6-5.8-5.9-6.7"/>
	<path id="XMLID_55_" class="st6" d="M42.1,71.5h-1.3c-1.3,0-2.4-1.1-2.4-2.4v-3.8c0-1.3,1.1-2.4,2.4-2.4h1.3c1.3,0,2.4,1.1,2.4,2.4
		v3.8C44.5,70.5,43.5,71.5,42.1,71.5z"/>
	<line id="XMLID_54_" class="st7" x1="40.4" y1="83.8" x2="42.6" y2="83.8"/>
	<line id="XMLID_53_" class="st5" x1="39.2" y1="79.5" x2="39.2" y2="79.5"/>
	<line id="XMLID_52_" class="st5" x1="43.7" y1="79.5" x2="43.7" y2="79.5"/>
</g>
<g id="XMLID_61_">
	<path id="XMLID_65_" class="st6" d="M98.1,77l10.3-6.6l-10.1-6.6l-15,9.5l5.3,3.4c0.3,0.2,0.6,0.3,0.9,0.3l7.6,0.4
		C97.4,77.3,97.7,77.2,98.1,77z"/>
	<polyline id="XMLID_64_" class="st6" points="108.4,74.8 93.2,84.3 83.3,77.6 	"/>
	<polyline id="XMLID_63_" class="st6" points="108.4,79.2 93.2,88.8 83.3,82.1 	"/>
	<path id="XMLID_62_" class="st6" d="M97,77.3c0,0-2.8-1.7-4-4.6c-1.4,3-3.6,4.2-3.6,4.2"/>
</g>
<g id="XMLID_67_">
	<line id="XMLID_78_" class="st6" x1="141.5" y1="71.5" x2="145" y2="68"/>
	<line id="XMLID_77_" class="st6" x1="143.4" y1="73.4" x2="144.8" y2="72"/>
	<line id="XMLID_76_" class="st6" x1="154.1" y1="84" x2="155.5" y2="82.6"/>
	<line id="XMLID_75_" class="st6" x1="156.1" y1="86" x2="159.6" y2="82.5"/>
	<path id="XMLID_74_" class="st6" d="M142.4,79.5c-0.1,0.1-2.9,7.1-2.9,7.1c-0.2,0.6,0.4,1.3,1,1c0,0,7.1-2.7,7.2-2.8"/>
	<line id="XMLID_73_" class="st6" x1="140.6" y1="83.9" x2="143.3" y2="86.6"/>
	<path id="XMLID_72_" class="st6" d="M163.5,66.7l-3.1-3.1c-0.6-0.6-1.6-0.6-2.2,0l-15.9,15.9l5.4,5.4l15.8-15.7
		C164.2,68.5,164.2,67.4,163.5,66.7z"/>
	<g id="XMLID_69_">
		<polyline id="XMLID_71_" class="st6" points="151,68.2 145.8,63 139.4,69.4 144.5,74.6 		"/>
		<polyline id="XMLID_70_" class="st6" points="152.8,82.8 158.1,88 164.5,81.6 159.2,76.4 		"/>
	</g>
	<line id="XMLID_68_" class="st6" x1="145.5" y1="82.6" x2="158.2" y2="69.9"/>
</g>
<g id="XMLID_80_">
	<ellipse id="XMLID_102_" class="st6" cx="215.5" cy="65" rx="2.1" ry="2"/>
	<ellipse id="XMLID_101_" class="st6" cx="207.9" cy="86" rx="2.1" ry="2"/>
	<line id="XMLID_100_" class="st6" x1="207" y1="73.3" x2="214" y2="66.4"/>
	<line id="XMLID_99_" class="st6" x1="205.7" y1="77.9" x2="207.4" y2="84.1"/>
	<ellipse id="XMLID_98_" class="st6" cx="217.7" cy="82.1" rx="1.4" ry="1.4"/>
	<ellipse id="XMLID_97_" class="st6" cx="197" cy="79.6" rx="1.4" ry="1.4"/>
	<ellipse id="XMLID_96_" class="st6" cx="198.7" cy="64.4" rx="1.4" ry="1.4"/>
	<g id="XMLID_91_">
		<g id="XMLID_92_">
			<line id="XMLID_95_" class="st5" x1="199.3" y1="65.6" x2="199.9" y2="66.5"/>
			<line id="XMLID_94_" class="st8" x1="200.9" y1="68.3" x2="202.5" y2="71"/>
			<line id="XMLID_93_" class="st5" x1="203" y1="71.9" x2="203.6" y2="72.9"/>
		</g>
	</g>
	<g id="XMLID_86_">
		<g id="XMLID_87_">
			<line id="XMLID_90_" class="st5" x1="216.4" y1="81.4" x2="215.4" y2="80.9"/>
			<line id="XMLID_89_" class="st9" x1="213.1" y1="79.7" x2="209.7" y2="77.8"/>
			<line id="XMLID_88_" class="st5" x1="208.5" y1="77.2" x2="207.5" y2="76.7"/>
		</g>
	</g>
	<g id="XMLID_82_">
		<g id="XMLID_83_">
			<line id="XMLID_85_" class="st5" x1="198.3" y1="79" x2="200.3" y2="77.8"/>
			<line id="XMLID_84_" class="st5" x1="200.4" y1="77.8" x2="202.4" y2="76.7"/>
		</g>
	</g>
	<ellipse id="XMLID_81_" class="st6" cx="205" cy="75.3" rx="2.9" ry="2.7"/>
</g>
<g id="XMLID_104_">
	<path id="XMLID_107_" class="st5" d="M257.5,87.2c-4.1,0-7.5-3.4-7.5-7.6c0-4.2,3.3-7.6,7.5-7.6s7.5,3.4,7.5,7.6
		C265,83.8,261.7,87.2,257.5,87.2z"/>
	<path id="XMLID_106_" class="st5" d="M267.6,87.2c-4.1,0-7.5-3.4-7.5-7.6c0-4.2,3.3-7.6,7.5-7.6s7.5,3.4,7.5,7.6
		C275.1,83.8,271.7,87.2,267.6,87.2z"/>
	<path id="XMLID_105_" class="st5" d="M262.6,78.2c-4.1,0-7.5-3.4-7.5-7.6c0-4.2,3.3-7.6,7.5-7.6c4.1,0,7.5,3.4,7.5,7.6
		C270.1,74.8,266.7,78.2,262.6,78.2z"/>
</g>
<path id="XMLID_112_" class="st10" d="M318.1,65.4l-8.2,4.7c-0.1,0.1-0.2,0.2-0.2,0.4l0,9.7c0,0.2,0.1,0.3,0.2,0.4l8.2,4.7
	c0.1,0,0.1,0.1,0.2,0.1c0.1,0,0.2,0,0.2-0.1l8.2-4.7c0.1-0.1,0.2-0.2,0.2-0.4v-9.7c0-0.2-0.1-0.3-0.2-0.4l-8.2-4.7
	C318.4,65.3,318.2,65.3,318.1,65.4z M310.5,71.3l7.3,4.2l0,8.7l-7.3-4.2L310.5,71.3z M326.1,79.9l-7.3,4.2l0-8.7l7.3-4.2L326.1,79.9
	L326.1,79.9z M318.3,74.7l-7.3-4.2l7.3-4.2l7.3,4.2L318.3,74.7z"/>
<path id="XMLID_109_" class="st10" d="M330.7,68.1c-0.1-0.2-0.4-0.3-0.6-0.2l-1.6,0.9c-2.1-3.4-5.9-5.7-10.3-5.7
	c-4.3,0-8.1,2.3-10.3,5.7l-1.6-0.9c-0.2-0.1-0.5,0-0.6,0.2c-0.1,0.2,0,0.5,0.2,0.6l1.6,0.9c-0.9,1.7-1.4,3.6-1.4,5.7
	c0,6.5,5.2,11.9,11.7,12.1v1.5c0,0.2,0.2,0.4,0.4,0.4c0.2,0,0.4-0.2,0.4-0.4v-1.5c6.5-0.2,11.7-5.6,11.7-12.1c0-2-0.5-4-1.4-5.7
	l1.6-0.9C330.8,68.5,330.8,68.3,330.7,68.1z M318.3,86.5c-6.2,0-11.2-5-11.2-11.2c0-6.2,5-11.2,11.2-11.2c6.2,0,11.2,5,11.2,11.2
	C329.5,81.4,324.5,86.5,318.3,86.5z"/>
<g id="XMLID_118_">
	<line id="XMLID_129_" class="st5" x1="365.5" y1="84.9" x2="376.8" y2="84.9"/>
	<line id="XMLID_128_" class="st5" x1="365.5" y1="81.4" x2="376.8" y2="81.4"/>
	<line id="XMLID_127_" class="st5" x1="365.5" y1="77.9" x2="376.8" y2="77.9"/>
	<line id="XMLID_126_" class="st5" x1="365.5" y1="74.5" x2="370.6" y2="74.5"/>
	<line id="XMLID_125_" class="st5" x1="365.5" y1="64.3" x2="365.5" y2="68.8"/>
	<line id="XMLID_124_" class="st5" x1="370.6" y1="64.3" x2="370.6" y2="68.8"/>
	<ellipse id="XMLID_123_" class="st5" cx="365.5" cy="69.6" rx="1.3" ry="1.3"/>
	<line id="XMLID_122_" class="st5" x1="375.9" y1="64.3" x2="375.9" y2="68.8"/>
	<ellipse id="XMLID_121_" class="st5" cx="375.9" cy="69.6" rx="1.3" ry="1.3"/>
	<ellipse id="XMLID_120_" class="st5" cx="370.6" cy="69.6" rx="1.3" ry="1.3"/>
	<rect id="XMLID_119_" x="361.1" y="65.8" class="st5" width="19.1" height="23.4"/>
</g>
<g id="XMLID_38_">
	<path id="XMLID_145_" class="st2" d="M41.4,210c-5.8,0-10.4-4.8-10.4-10.6c0-5.9,4.7-10.6,10.4-10.6s10.4,4.8,10.4,10.6
		C51.8,205.2,47.1,210,41.4,210z"/>
	<path id="XMLID_144_" class="st2" d="M55.5,210c-5.8,0-10.4-4.8-10.4-10.6c0-5.9,4.7-10.6,10.4-10.6s10.4,4.8,10.4,10.6
		C65.9,205.2,61.2,210,55.5,210z"/>
	<path id="XMLID_143_" class="st2" d="M48.4,197.4c-5.8,0-10.4-4.8-10.4-10.6c0-5.9,4.7-10.6,10.4-10.6c5.8,0,10.4,4.8,10.4,10.6
		C58.9,192.6,54.2,197.4,48.4,197.4z"/>
</g>
<g id="XMLID_150_">
	<path id="XMLID_151_" class="st11" d="M127.9,192.9v-10.5c1.7-0.3,3.1-1.8,3.1-3.6c0-2-1.7-3.7-3.7-3.7c-1.8,0-3.3,1.3-3.6,3.1
		h-10.5c-0.3-1.7-1.8-3.1-3.6-3.1c-2,0-3.7,1.7-3.7,3.7c0,1.8,1.3,3.3,3.1,3.6v5.6h-5.6c-0.3-1.7-1.8-3.1-3.6-3.1
		c-2,0-3.7,1.7-3.7,3.7c0,1.8,1.3,3.3,3.1,3.6v10.5c-1.7,0.3-3.1,1.8-3.1,3.6c0,2,1.7,3.7,3.7,3.7c1.8,0,3.3-1.3,3.6-3.1h10.5
		c0.3,1.7,1.8,3.1,3.6,3.1c2,0,3.7-1.7,3.7-3.7c0-1.8-1.3-3.3-3.1-3.6v-5.6h5.6c0.3,1.7,1.8,3.1,3.6,3.1c2,0,3.7-1.7,3.7-3.7
		C131,194.7,129.7,193.2,127.9,192.9L127.9,192.9z M127.3,176.2c1.4,0,2.5,1.1,2.5,2.5c0,1.4-1.1,2.5-2.5,2.5
		c-1.4,0-2.5-1.1-2.5-2.5C124.9,177.3,126,176.2,127.3,176.2L127.3,176.2z M107.1,178.7c0-1.4,1.1-2.5,2.5-2.5
		c1.4,0,2.5,1.1,2.5,2.5c0,1.4-1.1,2.5-2.5,2.5C108.2,181.1,107.1,180,107.1,178.7L107.1,178.7z M110.1,189.1h3.7
		c0.3,1.5,1.5,2.8,3,3v3.7h-3.7c-0.3-1.5-1.5-2.8-3-3V189.1z M109.5,194c1.4,0,2.5,1.1,2.5,2.5c0,1.4-1.1,2.5-2.5,2.5
		c-1.4,0-2.5-1.1-2.5-2.5C107.1,195.1,108.2,194,109.5,194L109.5,194z M97.2,188.5c0-1.4,1.1-2.5,2.5-2.5c1.4,0,2.5,1.1,2.5,2.5
		c0,1.4-1.1,2.5-2.5,2.5C98.3,191,97.2,189.9,97.2,188.5L97.2,188.5z M99.7,208.8c-1.4,0-2.5-1.1-2.5-2.5c0-1.4,1.1-2.5,2.5-2.5
		c1.4,0,2.5,1.1,2.5,2.5C102.1,207.7,101,208.8,99.7,208.8L99.7,208.8z M113.9,205.7h-10.5c-0.3-1.5-1.5-2.8-3-3v-10.5
		c1.5-0.3,2.8-1.5,3-3h5.6v3.7c-1.7,0.3-3.1,1.8-3.1,3.6c0,2,1.7,3.7,3.7,3.7c1.8,0,3.3-1.3,3.6-3.1h3.7v5.6
		C115.3,202.9,114.1,204.2,113.9,205.7L113.9,205.7z M119.9,206.3c0,1.4-1.1,2.5-2.5,2.5c-1.4,0-2.5-1.1-2.5-2.5
		c0-1.4,1.1-2.5,2.5-2.5C118.8,203.9,119.9,205,119.9,206.3L119.9,206.3z M117.5,191c-1.4,0-2.5-1.1-2.5-2.5c0-1.4,1.1-2.5,2.5-2.5
		c1.4,0,2.5,1.1,2.5,2.5C119.9,189.9,118.8,191,117.5,191L117.5,191z M123.7,195.9h-5.6v-3.7c1.7-0.3,3.1-1.8,3.1-3.6
		c0-2-1.7-3.7-3.7-3.7c-1.8,0-3.3,1.3-3.6,3.1h-3.7v-5.6c1.5-0.3,2.8-1.5,3-3h10.5c0.3,1.5,1.5,2.8,3,3v10.5
		C125.2,193.1,123.9,194.3,123.7,195.9L123.7,195.9z M127.3,198.9c-1.4,0-2.5-1.1-2.5-2.5c0-1.4,1.1-2.5,2.5-2.5
		c1.4,0,2.5,1.1,2.5,2.5C129.8,197.8,128.7,198.9,127.3,198.9L127.3,198.9z M127.3,198.9"/>
</g>
<g id="XMLID_166_">
	<path id="XMLID_174_" class="st11" d="M161.7,192.5c0-9,7.3-16.3,16.3-16.3c5.1,0,9.8,2.4,12.9,6.4h-3.5c-0.3,0-0.6,0.3-0.6,0.6
		c0,0.3,0.3,0.6,0.6,0.6h4.7c0,0,0,0,0.1,0c0,0,0.1,0,0.1,0c0,0,0.1,0,0.1,0c0,0,0,0,0,0c0,0,0,0,0,0c0,0,0.1-0.1,0.1-0.1
		c0,0,0-0.1,0.1-0.1c0,0,0-0.1,0-0.1c0,0,0-0.1,0-0.1c0,0,0,0,0-0.1v-4.7c0-0.3-0.3-0.6-0.6-0.6c-0.3,0-0.6,0.3-0.6,0.6v2.9
		c-3.3-4-8.2-6.4-13.4-6.4c-9.6,0-17.5,7.9-17.5,17.5c0,1.9,0.3,3.7,0.9,5.4c0.1,0.2,0.3,0.4,0.6,0.4c0.1,0,0.1,0,0.2,0
		c0.3-0.1,0.5-0.4,0.4-0.7C161.9,195.9,161.7,194.2,161.7,192.5L161.7,192.5z M161.7,192.5"/>
	<path id="XMLID_170_" class="st11" d="M176,204.1c0.1,0,0.1,0,0.2,0c0.2,0,0.4-0.1,0.5-0.3l8.8-13.4c0.1-0.2,0.1-0.4,0-0.6
		c-0.1-0.2-0.4-0.3-0.6-0.3l-6.2,1l1.6-9.1c0-0.3-0.1-0.5-0.4-0.6c-0.3-0.1-0.6,0-0.7,0.2l-8.8,14.6c-0.1,0.2-0.1,0.4,0,0.6
		c0.1,0.2,0.4,0.3,0.6,0.2l6.2-1l-1.6,7.9C175.6,203.7,175.8,204,176,204.1L176,204.1z M172.2,195.2l6.5-10.8l-1.2,6.8
		c0,0.2,0,0.4,0.2,0.5c0.1,0.1,0.3,0.2,0.5,0.2l5.7-0.9l-6.4,9.8l1.2-5.8c0-0.2,0-0.4-0.2-0.5c-0.1-0.1-0.3-0.2-0.4-0.2
		c0,0-0.1,0-0.1,0L172.2,195.2z M172.2,195.2"/>
	<path id="XMLID_167_" class="st11" d="M194.6,187c-0.1-0.3-0.4-0.5-0.7-0.4c-0.3,0.1-0.5,0.4-0.4,0.7c0.6,1.7,0.8,3.4,0.8,5.2
		c0,9-7.3,16.3-16.3,16.3c-5.1,0-9.8-2.4-12.9-6.4h3.5c0.3,0,0.6-0.3,0.6-0.6c0-0.3-0.3-0.6-0.6-0.6H164c0,0,0,0-0.1,0
		c0,0-0.1,0-0.1,0c0,0-0.1,0-0.1,0c0,0,0,0,0,0c0,0,0,0,0,0c0,0-0.1,0.1-0.1,0.1c0,0,0,0.1-0.1,0.1c0,0,0,0.1,0,0.1c0,0,0,0.1,0,0.1
		c0,0,0,0,0,0.1v4.7c0,0.3,0.3,0.6,0.6,0.6c0.3,0,0.6-0.3,0.6-0.6v-2.9c3.3,4,8.2,6.4,13.4,6.4c9.6,0,17.5-7.9,17.5-17.5
		C195.5,190.6,195.2,188.7,194.6,187L194.6,187z M194.6,187"/>
</g>
<g id="XMLID_178_">
	<line id="XMLID_190_" class="st2" x1="237" y1="204.2" x2="236" y2="210"/>
	<line id="XMLID_189_" class="st2" x1="250.4" y1="204.2" x2="251.5" y2="210"/>
	<circle id="XMLID_188_" class="st2" cx="232.1" cy="188" r="1.3"/>
	<circle id="XMLID_187_" class="st2" cx="239.8" cy="183" r="1.3"/>
	<circle id="XMLID_186_" class="st2" cx="247.6" cy="195" r="1.3"/>
	<circle id="XMLID_185_" class="st2" cx="255.3" cy="186.6" r="1.3"/>
	<line id="XMLID_184_" class="st2" x1="238.7" y1="183.8" x2="233.2" y2="187.3"/>
	<line id="XMLID_183_" class="st2" x1="240.5" y1="184.1" x2="246.9" y2="193.9"/>
	<line id="XMLID_182_" class="st2" x1="248.5" y1="194" x2="254.4" y2="187.6"/>
	<rect id="XMLID_181_" x="226.2" y="177.5" class="st2" width="35" height="24.1"/>
	<line id="XMLID_180_" class="st2" x1="249.1" y1="175" x2="249.1" y2="177.4"/>
	<line id="XMLID_179_" class="st2" x1="238.3" y1="175" x2="238.3" y2="177.4"/>
</g>
<polyline id="XMLID_198_" class="st2" points="293,192.1 295.5,189.7 297.9,192.1 "/>
<path id="XMLID_197_" class="st2" d="M305.1,207.9c-7.2-3-11-10.8-9.7-18.2"/>
<polyline id="XMLID_196_" class="st2" points="319.5,209.6 316.2,208.7 317.1,205.4 "/>
<path id="XMLID_195_" class="st2" d="M327.9,190.9c1,7.8-3.9,14.9-10.9,17.5"/>
<polyline id="XMLID_194_" class="st2" points="321.6,176.8 322.5,180.2 319.2,181.1 "/>
<path id="XMLID_193_" class="st2" d="M301.4,179.6c6.2-4.8,14.8-4.3,20.6,0.4"/>
<text id="XMLID_192_" transform="matrix(1 0 0 1 303.4365 195.9199)" class="st11 st12 st13">BIM</text>
<g id="XMLID_204_">
	<path id="XMLID_205_" class="st11" d="M394,195.4l-0.9-1.1l-4.1,3.3l-5.4-3.1v-6.2l4.4-3.5l-0.9-1.1l-4.2,3.4l-5.5-3.2v-4.4h-1.4
		v4.7l-5,2.9l-4.2-3.4l-0.9,1.1l4.4,3.5v6.1l-6.3,3.6v7.1l-4.3,3.4l0.9,1.1l4.2-3.4l6,3.4l6.2-3.6l6.2,3.6l6.8-3.9v-6.9L394,195.4z
		 M371.6,188.3l5.3-3.1l5.3,3.1v6.1l-5.3,3.1l-5.3-3.1V188.3z M375.9,204.9l-5.3,3.1l-5.3-3.1v-6.1l5.3-3.1l5.3,3.1V204.9z
		 M388.2,204.9l-5.3,3.1l-5.3-3.1v-6.1l5.3-3.1l5.3,3.1V204.9z M388.2,204.9"/>
</g>
<circle id="XMLID_203_" class="st11" cx="376.7" cy="179.4" r="0.7"/>
<circle id="XMLID_202_" class="st11" cx="393.6" cy="194.8" r="0.7"/>
<circle id="XMLID_201_" class="st11" cx="360" cy="208.9" r="0.7"/>
<circle id="XMLID_200_" class="st11" cx="387.5" cy="184.2" r="0.7"/>
<circle id="XMLID_199_" class="st11" cx="366.2" cy="184.2" r="0.7"/>
<g id="XMLID_212_">
	<path id="XMLID_213_" class="st5" d="M419.4,80.8c1.1,0.4,1.7,0.5,2.5,1.6c0.2,0.2,0.1,0.5-0.2,0.6c-4.5,2-3.5,1.8-6.3,1.8
		c-1.4,0-3-0.3-3-1.7c0-0.3,0.1-0.6,0.3-0.9l0.4-0.6 M420.8,83.3c0.8,0.5,1.1,0.6,1.7,1.3c0.2,0.2,0.3,0.3,0.2,0.6
		c0,0.1-0.1,0.2-0.2,0.3c-4.4,2-3.8,1.8-5.8,1.8c-1.4,0-2.9-0.3-2.9-1.7l0.3-0.9 M421.5,85.9c0.6,0.7,2.4,2,1.6,2.4l-3.1,1.4
		c-0.7,0.3-2.3,0.3-3-0.2c-0.8-0.6-0.7-1.3-0.6-2.2 M414.7,79l0.8,0c0.7-0.3,1.7-0.7,2.5-0.7c1.9,0,3.2,1.7,2.5,2.1l-3.1,1.4
		c-1.6,0.7-4.9,0.6-5.5-2.3c-0.3-1.4,0.3-2.4,1.9-3c1.2-0.5,2.9-0.7,5.2-0.7h0.4c0,0-0.5-3.5-1.6-5.3l0,0c-0.6-1-1.1-1.8-1.1-2.9
		c0-3.1,2.9-3,3.2-1.2l0,0c0.6,2.8,2.1,3.9,4.7,6.7c0,0,0,0,0,0c0.4,0.5,3,4,3.5,4.2c0.2,0.1,3.5,0.3,3.5,0.3
		c0.5,1.4,0.8,2.8,0.8,4.5c0,1.5-0.3,2.8-0.8,4.1h-2.6c-0.2,0-0.5,0.1-0.6,0.3c-1.1,1.4-2.5,2.5-4.3,3.5c-1.2,0.3-2.6-0.1-3.7-0.4"
		/>
</g>
<g id="XMLID_221_">
	<path id="XMLID_224_" class="st14" d="M41,264.3l4.3,4.3c0.3,0.3,0.3,0.8,0,1.1l0,0c-0.3,0.3-0.8,0.3-1.1,0l-4.3-4.3"/>
	<circle id="XMLID_223_" class="st15" cx="36.4" cy="260.8" r="5.8"/>
	<path id="XMLID_222_" class="st15" d="M36.7,256.8c-1.1,0-2.3,0.4-3.1,1.2c-0.9,0.9-1.3,2-1.2,3.1"/>
</g>
<g id="XMLID_228_">
	<polyline id="XMLID_229_" class="st16" points="76.5,270 80.9,265 76.5,260 	"/>
</g>
<g id="XMLID_226_">
	<polyline id="XMLID_227_" class="st16" points="81.9,270 86.2,265 81.9,260 	"/>
</g>
<g id="XMLID_146_">
	<g id="XMLID_238_">
		<polyline id="XMLID_239_" class="st2" points="158.4,270 162,265.9 158.4,261.8 		"/>
	</g>
	<g id="XMLID_236_">
		<polyline id="XMLID_237_" class="st2" points="162.8,270 166.4,265.9 162.8,261.8 		"/>
	</g>
</g>
<g id="XMLID_242_">
	<g id="XMLID_245_">
		<polyline id="XMLID_246_" class="st2" points="205.4,270 201.8,265.9 205.4,261.8 		"/>
	</g>
	<g id="XMLID_243_">
		<polyline id="XMLID_244_" class="st2" points="201,270 197.4,265.9 201,261.8 		"/>
	</g>
</g>
<g id="XMLID_233_">
	<polyline id="XMLID_234_" class="st16" points="127,270 122.6,265 127,260 	"/>
</g>
<g id="XMLID_231_">
	<polyline id="XMLID_232_" class="st16" points="121.6,270 117.3,265 121.6,260 	"/>
</g>
</svg>
