<?xml version="1.0" encoding="utf-8"?>
<!-- Generator: Adobe Illustrator 16.0.0, SVG Export Plug-In . SVG Version: 6.00 Build 0)  -->
<!DOCTYPE svg PUBLIC "-//W3C//DTD SVG 1.1//EN" "http://www.w3.org/Graphics/SVG/1.1/DTD/svg11.dtd">
<svg version="1.1" xmlns="http://www.w3.org/2000/svg" xmlns:xlink="http://www.w3.org/1999/xlink" x="0px" y="0px"
	 width="478.817px" height="352.804px" viewBox="0 0 478.817 352.804" enable-background="new 0 0 478.817 352.804"
	 xml:space="preserve">
<g id="Layer_3">
</g>
<g id="Layer_2">
	<g>
		<defs>
			<rect id="SVGID_1_" width="478.817" height="352.804"/>
		</defs>
		<clipPath id="SVGID_2_">
			<use xlink:href="#SVGID_1_"  overflow="visible"/>
		</clipPath>
		
			<path clip-path="url(#SVGID_2_)" fill="none" stroke="#AAAAAA" stroke-linecap="round" stroke-linejoin="round" stroke-miterlimit="10" d="
			M39.105,25.06c-0.107-0.109-0.28-0.112-0.393-0.007c0,0-0.803,0.786-0.857,0.835c-0.013,0.013-0.027,0.024-0.044,0.032
			c-0.835,0.423-3.852-2.806-3.277-3.414l0.86-0.842c0.112-0.11,0.112-0.289,0.004-0.398l-2.814-2.87
			c-0.052-0.053-0.124-0.083-0.199-0.084c-0.074-0.001-0.146,0.028-0.199,0.081c-1.409,1.383-3.669,2.775,1.609,8.158
			c5.209,5.312,6.702,3.299,8.14,1.752c0.103-0.11,0.1-0.282-0.005-0.39L39.105,25.06z"/>
		
			<path clip-path="url(#SVGID_2_)" fill="none" stroke="#AAAAAA" stroke-linecap="round" stroke-linejoin="round" stroke-miterlimit="10" d="
			M41.445,22.985c0.075-2.266-1.768-4.105-4.03-4.03"/>
		
			<path clip-path="url(#SVGID_2_)" fill="none" stroke="#AAAAAA" stroke-linecap="round" stroke-linejoin="round" stroke-miterlimit="10" d="
			M43.399,22.985c0.073-3.343-2.638-6.057-5.984-5.984"/>
		
			<path clip-path="url(#SVGID_2_)" fill="none" stroke="#AAAAAA" stroke-linecap="round" stroke-linejoin="round" stroke-miterlimit="10" d="
			M37.416,20.909c1.182-0.078,2.154,0.895,2.076,2.076"/>
		
			<path clip-path="url(#SVGID_2_)" fill="none" stroke="#FFC107" stroke-linecap="round" stroke-linejoin="round" stroke-miterlimit="10" d="
			M46.592,139.5c-0.206-0.209-0.539-0.215-0.755-0.014c0,0-1.546,1.512-1.648,1.607c-0.025,0.025-0.053,0.045-0.085,0.061
			c-1.607,0.814-7.408-5.397-6.302-6.565l1.654-1.62c0.214-0.211,0.215-0.555,0.007-0.766l-5.412-5.519
			c-0.1-0.102-0.237-0.16-0.381-0.162c-0.144,0-0.281,0.056-0.384,0.156c-2.71,2.661-7.055,5.336,3.095,15.688
			c10.017,10.216,12.888,6.345,15.653,3.371c0.199-0.212,0.193-0.543-0.01-0.75L46.592,139.5z"/>
		
			<path clip-path="url(#SVGID_2_)" fill="none" stroke="#FFC107" stroke-linecap="round" stroke-linejoin="round" stroke-miterlimit="10" d="
			M51.093,135.51c0.143-4.358-3.399-7.893-7.75-7.751"/>
		
			<path clip-path="url(#SVGID_2_)" fill="none" stroke="#FFC107" stroke-linecap="round" stroke-linejoin="round" stroke-miterlimit="10" d="
			M54.851,135.51c0.141-6.428-5.072-11.648-11.507-11.507"/>
		
			<path clip-path="url(#SVGID_2_)" fill="none" stroke="#FFC107" stroke-linecap="round" stroke-linejoin="round" stroke-miterlimit="10" d="
			M43.344,131.517c2.272-0.15,4.142,1.722,3.993,3.993"/>
		
			<path clip-path="url(#SVGID_2_)" fill="none" stroke="#AAAAAA" stroke-linecap="round" stroke-linejoin="round" stroke-miterlimit="10" d="
			M88.163,18.291l-5.203,5.45c-0.394,0.413-1.017,0.413-1.411,0l-5.203-5.45"/>
		
			<line clip-path="url(#SVGID_2_)" fill="none" stroke="#AAAAAA" stroke-linecap="round" stroke-linejoin="round" stroke-miterlimit="10" x1="84.678" y1="24.305" x2="88.163" y2="27.683"/>
		
			<line clip-path="url(#SVGID_2_)" fill="none" stroke="#AAAAAA" stroke-linecap="round" stroke-linejoin="round" stroke-miterlimit="10" x1="79.832" y1="24.305" x2="76.346" y2="27.683"/>
		
			<path clip-path="url(#SVGID_2_)" fill="none" stroke="#AAAAAA" stroke-linecap="round" stroke-linejoin="round" stroke-miterlimit="10" d="
			M74.779,18.237v9.499c0,0.967,0.673,1.749,1.537,1.749h12.017c0.864,0,1.542-0.782,1.542-1.749v-9.499
			c0-0.967-0.678-1.752-1.542-1.752H76.316C75.452,16.485,74.779,17.27,74.779,18.237z"/>
		
			<path clip-path="url(#SVGID_2_)" fill="none" stroke="#FFC107" stroke-linecap="round" stroke-linejoin="round" stroke-miterlimit="10" d="
			M107.858,129.99l-8.616,9.026c-0.653,0.683-1.685,0.683-2.338,0l-8.616-9.026"/>
		
			<line clip-path="url(#SVGID_2_)" fill="none" stroke="#FFC107" stroke-linecap="round" stroke-linejoin="round" stroke-miterlimit="10" x1="102.086" y1="139.95" x2="107.858" y2="145.544"/>
		
			<line clip-path="url(#SVGID_2_)" fill="none" stroke="#FFC107" stroke-linecap="round" stroke-linejoin="round" stroke-miterlimit="10" x1="94.061" y1="139.95" x2="88.289" y2="145.544"/>
		
			<path clip-path="url(#SVGID_2_)" fill="none" stroke="#FFC107" stroke-linecap="round" stroke-linejoin="round" stroke-miterlimit="10" d="
			M85.694,129.901v15.731c0,1.601,1.114,2.896,2.546,2.896h19.9c1.432,0,2.554-1.295,2.554-2.896v-15.731
			c0-1.602-1.122-2.901-2.554-2.901h-19.9C86.808,127,85.694,128.299,85.694,129.901z"/>
		
			<line clip-path="url(#SVGID_2_)" fill="none" stroke="#AAAAAA" stroke-linecap="round" stroke-linejoin="round" stroke-miterlimit="10" x1="127.59" y1="23.5" x2="130.418" y2="23.5"/>
		
			<circle clip-path="url(#SVGID_2_)" fill="none" stroke="#AAAAAA" stroke-linecap="round" stroke-linejoin="round" stroke-miterlimit="10" cx="127.59" cy="22.985" r="6.5"/>
		
			<line clip-path="url(#SVGID_2_)" fill="none" stroke="#AAAAAA" stroke-linecap="round" stroke-linejoin="round" stroke-miterlimit="10" x1="127.59" y1="23.5" x2="127.59" y2="19.48"/>
	</g>
	<g>
		<defs>
			<rect id="SVGID_3_" x="164.5" y="17" width="7.1" height="13"/>
		</defs>
		<clipPath id="SVGID_4_">
			<use xlink:href="#SVGID_3_"  overflow="visible"/>
		</clipPath>
	</g>
	<g>
		<defs>
			<rect id="SVGID_5_" width="478.817" height="352.804"/>
		</defs>
		<clipPath id="SVGID_6_">
			<use xlink:href="#SVGID_5_"  overflow="visible"/>
		</clipPath>
		<path clip-path="url(#SVGID_6_)" fill="none" stroke="#FFFFFF" stroke-linecap="round" stroke-linejoin="round" d="M32.935,75.54
			c0,0.963,0.162,1.721,0.457,2.584c-0.509,0.228-0.864,0.737-0.864,1.331c0,0.805,0.653,1.459,1.459,1.459
			c0.008,0,0.016-0.002,0.025-0.002C34.314,84.755,38.683,88,41.448,88c2.836,0,7.133-3.244,7.435-7.088
			c0.009,0,0.017,0.002,0.026,0.002c0.805,0,1.458-0.654,1.458-1.459c0-0.594-0.356-1.103-0.864-1.331
			c0.294-0.863,0.457-1.622,0.457-2.585"/>
		
			<path clip-path="url(#SVGID_6_)" fill="none" stroke="#FFFFFF" stroke-linecap="round" stroke-linejoin="round" stroke-miterlimit="10" d="
			M35.61,76.263l-0.209,2.426c0,0-0.796-1.099-2.008-0.566"/>
		
			<path clip-path="url(#SVGID_6_)" fill="none" stroke="#FFFFFF" stroke-linecap="round" stroke-linejoin="round" stroke-miterlimit="10" d="
			M47.309,76.221l0.213,2.468c0,0,0.796-1.099,2.009-0.566"/>
		
			<path clip-path="url(#SVGID_6_)" fill="none" stroke="#FFFFFF" stroke-linecap="round" stroke-linejoin="round" stroke-miterlimit="10" d="
			M38.413,65.108c-3.236,0.904-5.231,3.493-5.884,6.714c-0.984,0-1.789,0.805-1.789,1.789c0,0.984,0.759,1.459,1.789,1.789
			c9.195,3.239,17.837,0,17.837,0c0.983-0.297,1.789-0.805,1.789-1.789c0-0.984-0.805-1.789-1.789-1.789
			c-0.654-3.221-2.614-5.81-5.851-6.714"/>
		
			<path clip-path="url(#SVGID_6_)" fill="none" stroke="#FFFFFF" stroke-linecap="round" stroke-linejoin="round" stroke-miterlimit="10" d="
			M42.135,71.543h-1.341c-1.315,0-2.381-1.066-2.381-2.381V65.38c0-1.315,1.066-2.38,2.38-2.38h1.343
			c1.314,0,2.379,1.065,2.379,2.379v3.784C44.516,70.477,43.45,71.543,42.135,71.543z"/>
		
			<line clip-path="url(#SVGID_6_)" fill="none" stroke="#FFFFFF" stroke-linecap="round" stroke-linejoin="round" stroke-miterlimit="3.864" x1="40.371" y1="83.833" x2="42.577" y2="83.833"/>
		
			<line clip-path="url(#SVGID_6_)" fill="none" stroke="#FFFFFF" stroke-linecap="round" stroke-linejoin="round" x1="39.224" y1="79.475" x2="39.224" y2="79.475"/>
		
			<line clip-path="url(#SVGID_6_)" fill="none" stroke="#FFFFFF" stroke-linecap="round" stroke-linejoin="round" x1="43.682" y1="79.475" x2="43.682" y2="79.475"/>
		
			<path clip-path="url(#SVGID_6_)" fill="none" stroke="#FFFFFF" stroke-linecap="round" stroke-linejoin="round" stroke-miterlimit="10" d="
			M98.063,76.973l10.343-6.595l-10.127-6.615l-15.025,9.452l5.305,3.368c0.277,0.176,0.578,0.275,0.884,0.29L97,77.266
			C97.367,77.285,97.732,77.184,98.063,76.973z"/>
		
			<polyline clip-path="url(#SVGID_6_)" fill="none" stroke="#FFFFFF" stroke-linecap="round" stroke-linejoin="round" stroke-miterlimit="10" points="
			108.406,74.808 93.241,84.333 83.254,77.646 		"/>
		
			<polyline clip-path="url(#SVGID_6_)" fill="none" stroke="#FFFFFF" stroke-linecap="round" stroke-linejoin="round" stroke-miterlimit="10" points="
			108.406,79.238 93.241,88.763 83.254,82.075 		"/>
		
			<path clip-path="url(#SVGID_6_)" fill="none" stroke="#FFFFFF" stroke-linecap="round" stroke-linejoin="round" stroke-miterlimit="10" d="
			M97,77.266c0,0-2.772-1.731-3.994-4.629c-1.426,2.992-3.563,4.237-3.563,4.237"/>
		
			<line clip-path="url(#SVGID_6_)" fill="none" stroke="#FFFFFF" stroke-linecap="round" stroke-linejoin="round" stroke-miterlimit="10" x1="141.474" y1="71.46" x2="144.988" y2="67.962"/>
		
			<line clip-path="url(#SVGID_6_)" fill="none" stroke="#FFFFFF" stroke-linecap="round" stroke-linejoin="round" stroke-miterlimit="10" x1="143.401" y1="73.379" x2="144.807" y2="71.979"/>
		
			<line clip-path="url(#SVGID_6_)" fill="none" stroke="#FFFFFF" stroke-linecap="round" stroke-linejoin="round" stroke-miterlimit="10" x1="154.077" y1="84.008" x2="155.482" y2="82.609"/>
		
			<line clip-path="url(#SVGID_6_)" fill="none" stroke="#FFFFFF" stroke-linecap="round" stroke-linejoin="round" stroke-miterlimit="10" x1="156.085" y1="86.008" x2="159.601" y2="82.509"/>
		
			<path clip-path="url(#SVGID_6_)" fill="none" stroke="#FFFFFF" stroke-linecap="round" stroke-linejoin="round" stroke-miterlimit="10" d="
			M142.382,79.536c-0.071,0.07-2.857,7.13-2.857,7.13c-0.239,0.573,0.404,1.277,1.027,1.023c0,0,7.129-2.738,7.199-2.808"/>
		
			<line clip-path="url(#SVGID_6_)" fill="none" stroke="#FFFFFF" stroke-linecap="round" stroke-linejoin="round" stroke-miterlimit="10" x1="140.608" y1="83.93" x2="143.314" y2="86.625"/>
		
			<path clip-path="url(#SVGID_6_)" fill="none" stroke="#FFFFFF" stroke-linecap="round" stroke-linejoin="round" stroke-miterlimit="10" d="
			M163.541,66.723l-3.085-3.072c-0.598-0.596-1.566-0.596-2.164,0l-15.933,15.863l5.414,5.39l15.768-15.699
			C164.229,68.521,164.229,67.407,163.541,66.723z"/>
		
			<polyline clip-path="url(#SVGID_6_)" fill="none" stroke="#FFFFFF" stroke-linecap="round" stroke-linejoin="round" stroke-miterlimit="10" points="
			150.963,68.154 145.826,63.039 139.39,69.447 144.527,74.561 		"/>
		
			<polyline clip-path="url(#SVGID_6_)" fill="none" stroke="#FFFFFF" stroke-linecap="round" stroke-linejoin="round" stroke-miterlimit="10" points="
			152.761,82.758 158.064,88.039 164.5,81.631 159.197,76.351 		"/>
		
			<line clip-path="url(#SVGID_6_)" fill="none" stroke="#FFFFFF" stroke-linecap="round" stroke-linejoin="round" stroke-miterlimit="10" x1="145.453" y1="82.593" x2="158.213" y2="69.888"/>
		
			<ellipse clip-path="url(#SVGID_6_)" fill="none" stroke="#FFFFFF" stroke-linecap="round" stroke-linejoin="round" stroke-miterlimit="10" cx="215.467" cy="65.003" rx="2.105" ry="1.972"/>
		
			<ellipse clip-path="url(#SVGID_6_)" fill="none" stroke="#FFFFFF" stroke-linecap="round" stroke-linejoin="round" stroke-miterlimit="10" cx="207.904" cy="86.028" rx="2.105" ry="1.972"/>
		
			<line clip-path="url(#SVGID_6_)" fill="none" stroke="#FFFFFF" stroke-linecap="round" stroke-linejoin="round" stroke-miterlimit="10" x1="206.999" y1="73.326" x2="213.995" y2="66.382"/>
		
			<line clip-path="url(#SVGID_6_)" fill="none" stroke="#FFFFFF" stroke-linecap="round" stroke-linejoin="round" stroke-miterlimit="10" x1="205.707" y1="77.947" x2="207.385" y2="84.119"/>
		
			<ellipse clip-path="url(#SVGID_6_)" fill="none" stroke="#FFFFFF" stroke-linecap="round" stroke-linejoin="round" stroke-miterlimit="10" cx="217.689" cy="82.093" rx="1.443" ry="1.352"/>
		
			<ellipse clip-path="url(#SVGID_6_)" fill="none" stroke="#FFFFFF" stroke-linecap="round" stroke-linejoin="round" stroke-miterlimit="10" cx="197.036" cy="79.635" rx="1.442" ry="1.351"/>
		
			<ellipse clip-path="url(#SVGID_6_)" fill="none" stroke="#FFFFFF" stroke-linecap="round" stroke-linejoin="round" stroke-miterlimit="10" cx="198.713" cy="64.352" rx="1.443" ry="1.351"/>
		
			<line clip-path="url(#SVGID_6_)" fill="none" stroke="#FFFFFF" stroke-linecap="round" stroke-linejoin="round" x1="199.332" y1="65.567" x2="199.898" y2="66.536"/>
		
			<line clip-path="url(#SVGID_6_)" fill="none" stroke="#FFFFFF" stroke-linecap="round" stroke-linejoin="round" stroke-dasharray="1.854,1.854" x1="200.946" y1="68.333" x2="202.519" y2="71.027"/>
		
			<line clip-path="url(#SVGID_6_)" fill="none" stroke="#FFFFFF" stroke-linecap="round" stroke-linejoin="round" x1="203.043" y1="71.926" x2="203.608" y2="72.895"/>
		
			<line clip-path="url(#SVGID_6_)" fill="none" stroke="#FFFFFF" stroke-linecap="round" stroke-linejoin="round" x1="216.428" y1="81.449" x2="215.405" y2="80.898"/>
		
			<line clip-path="url(#SVGID_6_)" fill="none" stroke="#FFFFFF" stroke-linecap="round" stroke-linejoin="round" stroke-dasharray="2.238,2.238" x1="213.117" y1="79.667" x2="209.685" y2="77.822"/>
		
			<line clip-path="url(#SVGID_6_)" fill="none" stroke="#FFFFFF" stroke-linecap="round" stroke-linejoin="round" x1="208.542" y1="77.206" x2="207.519" y2="76.656"/>
		
			<line clip-path="url(#SVGID_6_)" fill="none" stroke="#FFFFFF" stroke-linecap="round" stroke-linejoin="round" x1="198.295" y1="78.989" x2="200.312" y2="77.845"/>
		
			<line clip-path="url(#SVGID_6_)" fill="none" stroke="#FFFFFF" stroke-linecap="round" stroke-linejoin="round" x1="200.393" y1="77.8" x2="202.41" y2="76.656"/>
		
			<ellipse clip-path="url(#SVGID_6_)" fill="none" stroke="#FFFFFF" stroke-linecap="round" stroke-linejoin="round" stroke-miterlimit="10" cx="204.987" cy="75.302" rx="2.917" ry="2.732"/>
		<path clip-path="url(#SVGID_6_)" fill="none" stroke="#FFFFFF" stroke-linecap="round" stroke-linejoin="round" d="
			M257.542,87.199c-4.109,0-7.452-3.401-7.452-7.582c0-4.181,3.343-7.581,7.452-7.581c4.108,0,7.452,3.4,7.452,7.581
			C264.994,83.798,261.65,87.199,257.542,87.199z"/>
		<path clip-path="url(#SVGID_6_)" fill="none" stroke="#FFFFFF" stroke-linecap="round" stroke-linejoin="round" d="
			M267.639,87.199c-4.109,0-7.452-3.401-7.452-7.582c0-4.181,3.343-7.581,7.452-7.581c4.108,0,7.451,3.4,7.451,7.581
			C275.09,83.798,271.747,87.199,267.639,87.199z"/>
		<path clip-path="url(#SVGID_6_)" fill="none" stroke="#FFFFFF" stroke-linecap="round" stroke-linejoin="round" d="
			M262.602,78.194c-4.108,0-7.452-3.401-7.452-7.582c0-4.181,3.344-7.581,7.452-7.581c4.11,0,7.453,3.4,7.453,7.581
			C270.055,74.792,266.712,78.194,262.602,78.194z"/>
		<path clip-path="url(#SVGID_6_)" fill="#FFFFFF" d="M318.065,65.377l-8.209,4.738c-0.138,0.079-0.222,0.224-0.222,0.382
			l0.001,9.671c0,0.158,0.084,0.303,0.222,0.382l8.207,4.742c0.067,0.04,0.144,0.06,0.221,0.06c0.076,0,0.152-0.02,0.22-0.06
			l8.209-4.738c0.136-0.079,0.22-0.225,0.22-0.382v-9.675c0-0.157-0.084-0.303-0.22-0.382l-8.208-4.738
			C318.369,65.298,318.201,65.298,318.065,65.377 M310.518,71.261l7.326,4.23l-0.001,8.655l-7.325-4.232V71.261z M326.052,79.917
			l-7.327,4.229l0.002-8.655l7.325-4.229V79.917z M318.285,74.727l-7.326-4.23l7.326-4.229l7.326,4.23L318.285,74.727z"/>
		<path clip-path="url(#SVGID_6_)" fill="#FFFFFF" d="M330.727,68.064c-0.122-0.211-0.393-0.283-0.604-0.161l-1.582,0.914
			c-2.145-3.409-5.939-5.679-10.256-5.679s-8.111,2.27-10.256,5.679l-1.582-0.914c-0.211-0.122-0.481-0.05-0.604,0.161
			s-0.049,0.481,0.162,0.603l1.581,0.913c-0.899,1.692-1.411,3.621-1.411,5.667c0,6.529,5.194,11.867,11.667,12.1v1.466
			c0,0.243,0.198,0.441,0.441,0.441c0.244,0,0.442-0.198,0.442-0.441v-1.466c6.473-0.232,11.668-5.57,11.668-12.1
			c0-2.046-0.512-3.975-1.411-5.667l1.581-0.913C330.775,68.545,330.848,68.275,330.727,68.064 M318.285,86.474
			c-6.19,0-11.228-5.036-11.228-11.227c0-6.19,5.037-11.226,11.228-11.226c6.189,0,11.227,5.036,11.227,11.226
			C329.512,81.438,324.475,86.474,318.285,86.474"/>
		
			<line clip-path="url(#SVGID_6_)" fill="none" stroke="#FFFFFF" stroke-linecap="round" stroke-linejoin="round" x1="365.459" y1="84.94" x2="376.796" y2="84.94"/>
		
			<line clip-path="url(#SVGID_6_)" fill="none" stroke="#FFFFFF" stroke-linecap="round" stroke-linejoin="round" x1="365.459" y1="81.428" x2="376.796" y2="81.428"/>
		
			<line clip-path="url(#SVGID_6_)" fill="none" stroke="#FFFFFF" stroke-linecap="round" stroke-linejoin="round" x1="365.459" y1="77.917" x2="376.796" y2="77.917"/>
		
			<line clip-path="url(#SVGID_6_)" fill="none" stroke="#FFFFFF" stroke-linecap="round" stroke-linejoin="round" x1="365.459" y1="74.492" x2="370.602" y2="74.492"/>
		
			<line clip-path="url(#SVGID_6_)" fill="none" stroke="#FFFFFF" stroke-linecap="round" stroke-linejoin="round" x1="365.459" y1="64.254" x2="365.459" y2="68.823"/>
		
			<line clip-path="url(#SVGID_6_)" fill="none" stroke="#FFFFFF" stroke-linecap="round" stroke-linejoin="round" x1="370.641" y1="64.254" x2="370.641" y2="68.823"/>
		
			<ellipse clip-path="url(#SVGID_6_)" fill="none" stroke="#FFFFFF" stroke-linecap="round" stroke-linejoin="round" cx="365.458" cy="69.618" rx="1.263" ry="1.256"/>
		
			<line clip-path="url(#SVGID_6_)" fill="none" stroke="#FFFFFF" stroke-linecap="round" stroke-linejoin="round" x1="375.928" y1="64.254" x2="375.928" y2="68.823"/>
		
			<ellipse clip-path="url(#SVGID_6_)" fill="none" stroke="#FFFFFF" stroke-linecap="round" stroke-linejoin="round" cx="375.927" cy="69.618" rx="1.263" ry="1.256"/>
		
			<ellipse clip-path="url(#SVGID_6_)" fill="none" stroke="#FFFFFF" stroke-linecap="round" stroke-linejoin="round" cx="370.637" cy="69.618" rx="1.264" ry="1.256"/>
		
			<rect x="361.124" y="65.809" clip-path="url(#SVGID_6_)" fill="none" stroke="#FFFFFF" stroke-linecap="round" stroke-linejoin="round" width="19.104" height="23.445"/>
		
			<path clip-path="url(#SVGID_6_)" fill="none" stroke="#FFC107" stroke-linecap="round" stroke-linejoin="round" stroke-miterlimit="10" d="
			M41.353,210c-5.753,0-10.432-4.762-10.432-10.613c0-5.854,4.679-10.615,10.432-10.615s10.433,4.761,10.433,10.615
			C51.786,205.238,47.105,210,41.353,210z"/>
		
			<path clip-path="url(#SVGID_6_)" fill="none" stroke="#FFC107" stroke-linecap="round" stroke-linejoin="round" stroke-miterlimit="10" d="
			M55.487,210c-5.753,0-10.432-4.762-10.432-10.613c0-5.854,4.679-10.615,10.432-10.615s10.433,4.761,10.433,10.615
			C65.92,205.238,61.24,210,55.487,210z"/>
		
			<path clip-path="url(#SVGID_6_)" fill="none" stroke="#FFC107" stroke-linecap="round" stroke-linejoin="round" stroke-miterlimit="10" d="
			M48.437,197.392c-5.753,0-10.433-4.762-10.433-10.613c0-5.854,4.68-10.615,10.433-10.615c5.754,0,10.434,4.761,10.434,10.615
			C58.871,192.63,54.191,197.392,48.437,197.392z"/>
		<path clip-path="url(#SVGID_6_)" fill="#FFC107" d="M127.93,192.863v-10.55c1.74-0.294,3.07-1.807,3.07-3.629
			c0-2.031-1.653-3.684-3.684-3.684c-1.823,0-3.335,1.33-3.629,3.069h-10.55c-0.293-1.74-1.806-3.069-3.628-3.069
			c-2.032,0-3.684,1.653-3.684,3.684c0,1.822,1.33,3.335,3.07,3.629v5.581h-5.582c-0.294-1.738-1.807-3.068-3.629-3.068
			c-2.032,0-3.684,1.651-3.684,3.683c0,1.822,1.33,3.336,3.07,3.629v10.549c-1.74,0.295-3.07,1.808-3.07,3.63
			c0,2.031,1.652,3.685,3.684,3.685c1.822,0,3.335-1.331,3.629-3.07h10.55c0.293,1.739,1.806,3.07,3.628,3.07
			c2.032,0,3.684-1.653,3.684-3.685c0-1.822-1.33-3.335-3.07-3.63v-5.581h5.582c0.294,1.739,1.806,3.07,3.629,3.07
			c2.032,0,3.684-1.652,3.684-3.684C131,194.669,129.67,193.157,127.93,192.863 M127.316,176.229c1.355,0,2.455,1.102,2.455,2.456
			c0,1.354-1.1,2.456-2.455,2.456s-2.456-1.102-2.456-2.456C124.86,177.33,125.961,176.229,127.316,176.229 M107.053,178.684
			c0-1.354,1.101-2.456,2.456-2.456c1.354,0,2.456,1.102,2.456,2.456c0,1.354-1.102,2.456-2.456,2.456
			C108.154,181.14,107.053,180.039,107.053,178.684 M110.123,189.123h3.74c0.26,1.54,1.475,2.755,3.014,3.015v3.74h-3.74
			c-0.26-1.539-1.475-2.755-3.014-3.015V189.123z M109.509,194.036c1.354,0,2.456,1.101,2.456,2.456
			c0,1.354-1.102,2.456-2.456,2.456c-1.355,0-2.456-1.103-2.456-2.456C107.053,195.136,108.154,194.036,109.509,194.036
			 M97.228,188.508c0-1.354,1.101-2.456,2.456-2.456s2.456,1.102,2.456,2.456c0,1.355-1.101,2.457-2.456,2.457
			S97.228,189.864,97.228,188.508 M99.684,208.771c-1.355,0-2.456-1.102-2.456-2.455c0-1.354,1.101-2.457,2.456-2.457
			s2.456,1.103,2.456,2.457C102.14,207.669,101.039,208.771,99.684,208.771 M113.863,205.702h-10.55
			c-0.26-1.539-1.475-2.755-3.014-3.016v-10.549c1.538-0.26,2.754-1.475,3.014-3.015h5.582v3.74c-1.74,0.294-3.07,1.807-3.07,3.629
			c0,2.031,1.652,3.684,3.684,3.684c1.822,0,3.335-1.331,3.628-3.07h3.74v5.581C115.338,202.947,114.122,204.163,113.863,205.702
			 M119.947,206.316c0,1.354-1.101,2.455-2.456,2.455c-1.354,0-2.456-1.102-2.456-2.455c0-1.354,1.102-2.457,2.456-2.457
			C118.846,203.859,119.947,204.961,119.947,206.316 M117.491,190.965c-1.354,0-2.456-1.102-2.456-2.457
			c0-1.354,1.102-2.456,2.456-2.456c1.355,0,2.456,1.102,2.456,2.456C119.947,189.864,118.846,190.965,117.491,190.965
			 M123.687,195.877h-5.582v-3.74c1.74-0.293,3.07-1.807,3.07-3.629c0-2.031-1.652-3.683-3.684-3.683
			c-1.822,0-3.335,1.33-3.628,3.068h-3.74v-5.581c1.539-0.26,2.754-1.475,3.014-3.015h10.55c0.26,1.539,1.475,2.754,3.014,3.015
			v10.55C125.162,193.123,123.947,194.338,123.687,195.877 M127.316,198.948c-1.355,0-2.456-1.103-2.456-2.456
			c0-1.355,1.101-2.456,2.456-2.456s2.455,1.101,2.455,2.456C129.771,197.845,128.671,198.948,127.316,198.948"/>
		<path clip-path="url(#SVGID_6_)" fill="#FFC107" d="M161.667,192.5c0-9.006,7.327-16.333,16.333-16.333
			c5.056,0,9.787,2.38,12.867,6.416h-3.533c-0.323,0-0.584,0.263-0.584,0.584s0.261,0.583,0.584,0.583H192
			c0.018,0,0.034-0.009,0.052-0.011c0.039-0.003,0.076-0.011,0.113-0.021c0.04-0.013,0.074-0.026,0.109-0.045
			c0.016-0.009,0.034-0.01,0.049-0.021c0.016-0.01,0.025-0.027,0.04-0.039c0.031-0.024,0.059-0.053,0.084-0.084
			c0.023-0.029,0.043-0.058,0.06-0.09c0.018-0.033,0.031-0.065,0.042-0.101c0.012-0.038,0.02-0.076,0.023-0.117
			c0.002-0.019,0.012-0.035,0.012-0.055V178.5c0-0.321-0.261-0.583-0.584-0.583c-0.322,0-0.583,0.262-0.583,0.583v2.906
			C188.114,177.369,183.221,175,178,175c-9.649,0-17.5,7.851-17.5,17.5c0,1.857,0.289,3.684,0.859,5.429
			c0.079,0.247,0.309,0.403,0.554,0.403c0.06,0,0.121-0.01,0.181-0.029c0.306-0.101,0.474-0.43,0.374-0.735
			C161.937,195.938,161.667,194.234,161.667,192.5"/>
		<path clip-path="url(#SVGID_6_)" fill="#FFC107" d="M176.029,204.123c0.072,0.029,0.146,0.043,0.22,0.043
			c0.192,0,0.378-0.095,0.489-0.264l8.75-13.417c0.127-0.194,0.126-0.444,0-0.638c-0.128-0.193-0.357-0.295-0.584-0.256l-6.187,1.03
			l1.606-9.104c0.049-0.277-0.106-0.55-0.369-0.648c-0.262-0.098-0.56,0.005-0.704,0.246l-8.751,14.583
			c-0.117,0.196-0.11,0.441,0.019,0.629c0.127,0.188,0.354,0.284,0.577,0.247l6.167-1.026l-1.585,7.921
			C175.624,203.743,175.771,204.018,176.029,204.123 M172.15,195.217l6.477-10.796l-1.202,6.811
			c-0.033,0.187,0.027,0.377,0.16,0.512c0.134,0.135,0.323,0.197,0.51,0.165l5.691-0.948l-6.37,9.767l1.155-5.779
			c0.038-0.188-0.019-0.383-0.152-0.521c-0.111-0.114-0.263-0.178-0.419-0.178c-0.032,0-0.064,0.002-0.096,0.009L172.15,195.217z"/>
		<path clip-path="url(#SVGID_6_)" fill="#FFC107" d="M194.608,186.972c-0.102-0.307-0.431-0.472-0.738-0.369
			c-0.305,0.102-0.471,0.432-0.37,0.737c0.553,1.657,0.833,3.394,0.833,5.159c0,9.006-7.327,16.333-16.333,16.333
			c-5.055,0-9.786-2.38-12.867-6.416h3.533c0.323,0,0.583-0.262,0.583-0.584s-0.26-0.583-0.583-0.583H164
			c-0.018,0-0.034,0.009-0.051,0.011c-0.039,0.004-0.077,0.012-0.116,0.023c-0.038,0.012-0.073,0.025-0.108,0.043
			c-0.015,0.009-0.032,0.01-0.048,0.021c-0.017,0.011-0.025,0.027-0.039,0.039c-0.032,0.025-0.06,0.054-0.085,0.084
			c-0.023,0.029-0.043,0.059-0.06,0.091c-0.018,0.032-0.031,0.064-0.042,0.102c-0.012,0.037-0.02,0.075-0.024,0.115
			c-0.001,0.019-0.011,0.036-0.011,0.055v4.667c0,0.322,0.261,0.583,0.584,0.583c0.322,0,0.583-0.261,0.583-0.583v-2.907
			C167.886,207.63,172.779,210,178,210c9.649,0,17.5-7.85,17.5-17.5C195.5,190.609,195.199,188.749,194.608,186.972"/>
		
			<line clip-path="url(#SVGID_6_)" fill="none" stroke="#FFC107" stroke-linecap="round" stroke-linejoin="round" stroke-miterlimit="10" x1="237.021" y1="204.192" x2="235.961" y2="209.997"/>
		
			<line clip-path="url(#SVGID_6_)" fill="none" stroke="#FFC107" stroke-linecap="round" stroke-linejoin="round" stroke-miterlimit="10" x1="250.443" y1="204.192" x2="251.503" y2="209.997"/>
		
			<circle clip-path="url(#SVGID_6_)" fill="none" stroke="#FFC107" stroke-linecap="round" stroke-linejoin="round" stroke-miterlimit="10" cx="232.073" cy="187.971" r="1.317"/>
		
			<circle clip-path="url(#SVGID_6_)" fill="none" stroke="#FFC107" stroke-linecap="round" stroke-linejoin="round" stroke-miterlimit="10" cx="239.821" cy="183.04" r="1.317"/>
		
			<circle clip-path="url(#SVGID_6_)" fill="none" stroke="#FFC107" stroke-linecap="round" stroke-linejoin="round" stroke-miterlimit="10" cx="247.569" cy="195.014" r="1.317"/>
		
			<circle clip-path="url(#SVGID_6_)" fill="none" stroke="#FFC107" stroke-linecap="round" stroke-linejoin="round" stroke-miterlimit="10" cx="255.317" cy="186.562" r="1.318"/>
		
			<line clip-path="url(#SVGID_6_)" fill="none" stroke="#FFC107" stroke-linecap="round" stroke-linejoin="round" stroke-miterlimit="10" x1="238.726" y1="183.77" x2="233.182" y2="187.265"/>
		
			<line clip-path="url(#SVGID_6_)" fill="none" stroke="#FFC107" stroke-linecap="round" stroke-linejoin="round" stroke-miterlimit="10" x1="240.535" y1="184.144" x2="246.854" y2="193.909"/>
		
			<line clip-path="url(#SVGID_6_)" fill="none" stroke="#FFC107" stroke-linecap="round" stroke-linejoin="round" stroke-miterlimit="10" x1="248.456" y1="194.046" x2="254.409" y2="187.552"/>
		
			<rect x="226.211" y="177.522" clip-path="url(#SVGID_6_)" fill="none" stroke="#FFC107" stroke-linecap="round" stroke-linejoin="round" stroke-miterlimit="10" width="35" height="24.139"/>
		
			<line clip-path="url(#SVGID_6_)" fill="none" stroke="#FFC107" stroke-linecap="round" stroke-linejoin="round" stroke-miterlimit="10" x1="249.142" y1="175.004" x2="249.142" y2="177.418"/>
		
			<line clip-path="url(#SVGID_6_)" fill="none" stroke="#FFC107" stroke-linecap="round" stroke-linejoin="round" stroke-miterlimit="10" x1="238.28" y1="175.004" x2="238.28" y2="177.418"/>
		
			<polyline clip-path="url(#SVGID_6_)" fill="none" stroke="#FFC107" stroke-linecap="round" stroke-linejoin="round" stroke-miterlimit="10" points="
			293,192.119 295.459,189.707 297.853,192.146 		"/>
		
			<path clip-path="url(#SVGID_6_)" fill="none" stroke="#FFC107" stroke-linecap="round" stroke-linejoin="round" stroke-miterlimit="10" d="
			M305.134,207.945c-7.212-3.045-10.972-10.843-9.673-18.238"/>
		
			<polyline clip-path="url(#SVGID_6_)" fill="none" stroke="#FFC107" stroke-linecap="round" stroke-linejoin="round" stroke-miterlimit="10" points="
			319.545,209.619 316.225,208.705 317.131,205.409 		"/>
		
			<path clip-path="url(#SVGID_6_)" fill="none" stroke="#FFC107" stroke-linecap="round" stroke-linejoin="round" stroke-miterlimit="10" d="
			M327.871,190.948c0.992,7.765-3.859,14.935-10.906,17.528"/>
		
			<polyline clip-path="url(#SVGID_6_)" fill="none" stroke="#FFC107" stroke-linecap="round" stroke-linejoin="round" stroke-miterlimit="10" points="
			321.575,176.841 322.481,180.164 319.184,181.064 		"/>
		
			<path clip-path="url(#SVGID_6_)" fill="none" stroke="#FFC107" stroke-linecap="round" stroke-linejoin="round" stroke-miterlimit="10" d="
			M301.381,179.571c6.174-4.812,14.815-4.292,20.64,0.448"/>
	</g>
	<text transform="matrix(1 0 0 1 303.4365 195.9194)" fill="#FFC107" font-family="'ArialRoundedMTBold'" font-size="9.0735">BIM</text>
	<g>
		<defs>
			<rect id="SVGID_7_" width="478.817" height="352.804"/>
		</defs>
		<clipPath id="SVGID_8_">
			<use xlink:href="#SVGID_7_"  overflow="visible"/>
		</clipPath>
		<path clip-path="url(#SVGID_8_)" fill="#FFC107" d="M394.034,195.375l-0.892-1.123l-4.111,3.263l-5.395-3.114v-6.207l4.364-3.461
			l-0.891-1.124l-4.25,3.372l-5.49-3.169v-4.389h-1.435v4.653l-5.026,2.903l-4.248-3.371l-0.893,1.124l4.359,3.458v6.077
			l-6.267,3.619v7.063l-4.341,3.443l0.893,1.123l4.247-3.37l5.955,3.438l6.151-3.553l6.153,3.553l6.755-3.899v-6.852
			L394.034,195.375z M371.563,188.256l5.32-3.07l5.32,3.07v6.144l-5.321,3.072l-5.319-3.071V188.256z M375.936,204.857l-5.32,3.072
			l-5.32-3.072v-6.144l5.32-3.072l5.32,3.072V204.857z M388.241,204.857l-5.321,3.072l-5.32-3.072v-6.143l5.322-3.072l5.319,3.071
			V204.857z"/>
		<path clip-path="url(#SVGID_8_)" fill="#FFC107" d="M377.37,179.435c0-0.396-0.321-0.717-0.718-0.717
			c-0.396,0-0.717,0.321-0.717,0.717c0,0.396,0.321,0.717,0.717,0.717C377.049,180.152,377.37,179.832,377.37,179.435"/>
		<path clip-path="url(#SVGID_8_)" fill="#FFC107" d="M394.274,194.844c0-0.396-0.32-0.717-0.717-0.717
			c-0.396,0-0.717,0.321-0.717,0.717c0,0.396,0.321,0.718,0.717,0.718C393.954,195.562,394.274,195.241,394.274,194.844"/>
		<path clip-path="url(#SVGID_8_)" fill="#FFC107" d="M360.709,208.935c0-0.396-0.321-0.717-0.717-0.717
			c-0.396,0-0.718,0.32-0.718,0.717c0,0.396,0.321,0.717,0.718,0.717C360.388,209.652,360.709,209.331,360.709,208.935"/>
		<path clip-path="url(#SVGID_8_)" fill="#FFC107" d="M388.241,184.192c0-0.396-0.321-0.717-0.718-0.717
			c-0.396,0-0.717,0.321-0.717,0.717c0,0.396,0.321,0.718,0.717,0.718C387.92,184.91,388.241,184.588,388.241,184.192"/>
		<path clip-path="url(#SVGID_8_)" fill="#FFC107" d="M366.937,184.169c0-0.396-0.32-0.717-0.717-0.717
			c-0.396,0-0.717,0.321-0.717,0.717c0,0.396,0.321,0.718,0.717,0.718C366.616,184.887,366.937,184.566,366.937,184.169"/>
		<path clip-path="url(#SVGID_8_)" fill="none" stroke="#FFFFFF" stroke-linecap="round" stroke-linejoin="round" d="
			M419.381,80.788c1.098,0.372,1.709,0.524,2.5,1.585c0.15,0.201,0.073,0.488-0.153,0.588c-4.503,1.992-3.537,1.772-6.348,1.772
			c-1.409,0-2.979-0.286-2.979-1.702c0-0.304,0.116-0.623,0.346-0.948l0.371-0.581 M420.848,83.349
			c0.751,0.458,1.148,0.59,1.742,1.272c0.151,0.194,0.311,0.339,0.249,0.57c-0.03,0.114-0.109,0.208-0.217,0.257
			c-4.405,1.964-3.765,1.842-5.81,1.842c-1.407,0-2.879-0.289-2.879-1.691l0.296-0.944 M421.521,85.938
			c0.649,0.655,2.4,1.994,1.553,2.376l-3.09,1.393c-0.748,0.337-2.282,0.307-3.029-0.207c-0.811-0.556-0.692-1.287-0.642-2.223
			 M414.671,78.986l0.756-0.034c0.704-0.288,1.702-0.683,2.466-0.683c1.906,0,3.2,1.748,2.505,2.061l-3.146,1.418
			c-1.56,0.703-4.913,0.583-5.528-2.346c-0.295-1.398,0.343-2.421,1.881-3.03c1.178-0.461,2.935-0.693,5.224-0.693h0.366
			c0,0-0.549-3.513-1.615-5.283l-0.003-0.005c-0.557-0.956-1.052-1.774-1.052-2.916c0-3.07,2.869-2.965,3.239-1.244
			c0.598,2.772,2.056,3.935,4.688,6.739c0.008,0.008,0.015,0.016,0.021,0.025c0.369,0.46,3.001,3.973,3.537,4.219
			c0.229,0.107,3.463,0.284,3.463,0.284c0.51,1.411,0.842,2.77,0.842,4.489c0,1.513-0.322,2.784-0.773,4.091h-2.643
			c-0.235,0-0.454,0.109-0.604,0.291c-1.138,1.393-2.503,2.527-4.255,3.537c-1.162,0.339-2.563-0.088-3.655-0.38"/>
		<path clip-path="url(#SVGID_8_)" fill="none" stroke="#C5C5C5" stroke-miterlimit="10" d="M41.008,264.349l4.287,4.287
			c0.312,0.313,0.312,0.818,0,1.13c-0.311,0.312-0.817,0.312-1.129,0l-4.287-4.288"/>
		
			<circle clip-path="url(#SVGID_8_)" fill="none" stroke="#C5C5C5" stroke-linecap="round" stroke-linejoin="round" stroke-miterlimit="10" cx="36.36" cy="260.831" r="5.831"/>
		
			<path clip-path="url(#SVGID_8_)" fill="none" stroke="#C5C5C5" stroke-linecap="round" stroke-linejoin="round" stroke-miterlimit="10" d="
			M36.74,256.817c-1.124-0.037-2.259,0.369-3.117,1.228c-0.857,0.857-1.263,1.993-1.227,3.117"/>
		<polyline clip-path="url(#SVGID_8_)" fill="none" stroke="#231F20" stroke-linecap="round" stroke-linejoin="round" points="
			76.527,270 80.877,265 76.527,260 		"/>
		<polyline clip-path="url(#SVGID_8_)" fill="none" stroke="#231F20" stroke-linecap="round" stroke-linejoin="round" points="
			81.883,270 86.233,265 81.883,260 		"/>
		
			<polyline clip-path="url(#SVGID_8_)" fill="none" stroke="#FFC107" stroke-linecap="round" stroke-linejoin="round" stroke-miterlimit="10" points="
			158.38,270 161.965,265.877 158.38,261.756 		"/>
		
			<polyline clip-path="url(#SVGID_8_)" fill="none" stroke="#FFC107" stroke-linecap="round" stroke-linejoin="round" stroke-miterlimit="10" points="
			162.794,270 166.379,265.877 162.794,261.756 		"/>
		
			<polyline clip-path="url(#SVGID_8_)" fill="none" stroke="#FFC107" stroke-linecap="round" stroke-linejoin="round" stroke-miterlimit="10" points="
			205.38,270 201.795,265.877 205.38,261.756 		"/>
		
			<polyline clip-path="url(#SVGID_8_)" fill="none" stroke="#FFC107" stroke-linecap="round" stroke-linejoin="round" stroke-miterlimit="10" points="
			200.965,270 197.38,265.877 200.965,261.756 		"/>
		<polyline clip-path="url(#SVGID_8_)" fill="none" stroke="#231F20" stroke-linecap="round" stroke-linejoin="round" points="
			126.977,270 122.627,265 126.977,260 		"/>
		<polyline clip-path="url(#SVGID_8_)" fill="none" stroke="#231F20" stroke-linecap="round" stroke-linejoin="round" points="
			121.621,270 117.271,265 121.621,260 		"/>
	</g>
	
		<line fill="none" stroke="#FFFFFF" stroke-linecap="round" stroke-linejoin="round" stroke-miterlimit="10" x1="169.125" y1="29.998" x2="169.125" y2="20"/>
	<polyline fill="none" stroke="#FCFCFC" stroke-linecap="round" stroke-linejoin="round" stroke-miterlimit="10" points="
		173.754,25.211 169.128,30 164.5,25.211 	"/>
</g>
</svg>
