<?xml version="1.0" encoding="utf-8"?>
<!-- Generator: Adobe Illustrator 19.0.0, SVG Export Plug-In . SVG Version: 6.00 Build 0)  -->
<svg version="1.1" id="Layer_1" xmlns="http://www.w3.org/2000/svg" xmlns:xlink="http://www.w3.org/1999/xlink" x="0px" y="0px"
	 viewBox="0 0 95 68.2" style="enable-background:new 0 0 95 68.2;" xml:space="preserve">
<style type="text/css">
	.st0{fill:url(#XMLID_41_);}
	.st1{fill:url(#XMLID_42_);}
	.st2{fill:url(#XMLID_77_);}
	.st3{fill:url(#XMLID_78_);}
	.st4{fill:none;}
	.st5{font-family:'MyriadPro-Regular';}
	.st6{font-size:2.0838px;}
	.st7{fill:#FFFFFF;}
	.st8{fill:#ED1C24;}
</style>
<linearGradient id="XMLID_41_" gradientUnits="userSpaceOnUse" x1="84.3372" y1="38.6745" x2="68.1862" y2="26.0003">
	<stop  offset="0" style="stop-color:#FFF33B"/>
	<stop  offset="5.084340e-002" style="stop-color:#FFE029"/>
	<stop  offset="0.1113" style="stop-color:#FFD218"/>
	<stop  offset="0.1737" style="stop-color:#FEC90F"/>
	<stop  offset="0.2401" style="stop-color:#FDC70C"/>
	<stop  offset="0.5614" style="stop-color:#F8B019"/>
	<stop  offset="1" style="stop-color:#83360D"/>
</linearGradient>
<path id="XMLID_76_" class="st0" d="M46.6,37.4c3.1,2.6,6.3,5.4,9.6,8.5c2.4,2.3,4.6,4.5,6.7,6.7c2.3-4.5,4.8-9.1,7.7-13.8
	c6.2-10.3,12.6-19.2,18.8-26.9C75.1,20.4,60.8,28.9,46.6,37.4z"/>
<linearGradient id="XMLID_42_" gradientUnits="userSpaceOnUse" x1="94.602" y1="20.7878" x2="47.443" y2="50.7973">
	<stop  offset="0" style="stop-color:#FFF33B"/>
	<stop  offset="5.084340e-002" style="stop-color:#FFE029"/>
	<stop  offset="0.1113" style="stop-color:#FFD218"/>
	<stop  offset="0.1737" style="stop-color:#FEC90F"/>
	<stop  offset="0.2401" style="stop-color:#FDC70C"/>
	<stop  offset="0.5614" style="stop-color:#F8B019"/>
	<stop  offset="1" style="stop-color:#83360D"/>
</linearGradient>
<path id="XMLID_75_" class="st1" d="M89.1,12.1C83,19.7,76.7,28.5,70.6,38.6c-2.8,4.7-5.4,9.3-7.7,13.8c-2.1-2.2-4.3-4.4-6.7-6.7
	c-3-2.8-5.9-5.4-8.7-7.8c-0.2,0.1-0.4,0.2-0.6,0.4c3.1,2.6,6.3,5.4,9.6,8.5c2.4,2.3,4.6,4.5,6.7,6.7c2.4-4.5,4.9-9.1,7.7-13.8
	C77,29.5,83.3,20.2,89.5,11.8C89.4,11.9,89.3,12,89.1,12.1z"/>
<linearGradient id="XMLID_77_" gradientUnits="userSpaceOnUse" x1="73.2474" y1="32.803" x2="0.1365" y2="24.9928">
	<stop  offset="0" style="stop-color:#FFF33B"/>
	<stop  offset="5.084340e-002" style="stop-color:#FFE029"/>
	<stop  offset="0.1113" style="stop-color:#FFD218"/>
	<stop  offset="0.1737" style="stop-color:#FEC90F"/>
	<stop  offset="0.2401" style="stop-color:#FDC70C"/>
	<stop  offset="0.5614" style="stop-color:#F8B019"/>
	<stop  offset="1" style="stop-color:#83360D"/>
</linearGradient>
<path id="XMLID_74_" class="st2" d="M53.9,36.9c-5.2,3.7-10.7,7.6-10.7,7.6c-4.6,3.3-8.3,5.9-10.5,7.5c-1.4-3.1-3.3-7-5.6-11.5
	c0,0-3.3-6.5-6.8-12.4C13.5,17,6.5,7.6,0,0c7.5,9.7,15.2,21,22.5,34.1c3.7,6.6,7,13.1,9.9,19.3c7.2-5,14.3-10.1,21.4-15.2
	c12-8.6,23.8-17.4,35.6-26.4C68.9,26.3,59.1,33.2,53.9,36.9z"/>
<linearGradient id="XMLID_78_" gradientUnits="userSpaceOnUse" x1="49.5722" y1="44.7936" x2="43.6954" y2="-2.3023">
	<stop  offset="0" style="stop-color:#FFF33B"/>
	<stop  offset="5.084340e-002" style="stop-color:#FFE029"/>
	<stop  offset="0.1113" style="stop-color:#FFD218"/>
	<stop  offset="0.1737" style="stop-color:#FEC90F"/>
	<stop  offset="0.2401" style="stop-color:#FDC70C"/>
	<stop  offset="0.4287" style="stop-color:#F8B019"/>
	<stop  offset="0.949" style="stop-color:#83360D"/>
</linearGradient>
<path id="XMLID_73_" class="st3" d="M89.4,11.9c0.4,0.6-14.8,10.8-35.3,25.5c-9.1,6.5-16.6,12-21.8,15.9c-2.6-6.3-5.7-13-9.6-20
	C15.5,19.8,7.4,8.8,0,0c11.7,11.1,27.5,21.9,46.7,22.7c9.7,0.4,26.1-2,39-9.1C86.6,13.2,89.3,11.7,89.4,11.9z"/>
<text id="XMLID_72_" transform="matrix(1 0 0 -1 37.6422 66.7306)" class="st4 st5 st6">ENGENERING</text>
<path id="XMLID_69_" class="st7" d="M9.3,65.2H2.4c-0.5,0-0.9-0.2-1.3-0.5c-0.4-0.4-0.5-0.8-0.5-1.3v-3c0-0.5,0.2-0.9,0.5-1.3
	c0.4-0.4,0.8-0.5,1.3-0.5h5.1c0.5,0,0.9,0.2,1.3,0.5c0.4,0.4,0.5,0.8,0.5,1.3v2.1H1.7v1.6h7.6V65.2z M8.2,61.3v-1.6H1.7v1.6H8.2z"/>
<path id="XMLID_67_" class="st7" d="M19.4,65.2h-1.2v-5.5h-6.4v5.5h-1.2v-6.6h6.9c0.5,0,0.9,0.2,1.3,0.5c0.4,0.4,0.5,0.8,0.5,1.3
	V65.2z"/>
<path id="XMLID_64_" class="st7" d="M29.5,65.6c0,0.5-0.2,0.9-0.5,1.3c-0.4,0.4-0.8,0.5-1.3,0.5h-6.9v-1.2h7.6v-1h-5.8
	c-0.5,0-0.9-0.2-1.3-0.5c-0.4-0.4-0.5-0.8-0.5-1.3v-3c0-0.5,0.2-0.9,0.5-1.3c0.4-0.4,0.8-0.5,1.3-0.5h6.9V65.6z M28.3,64.1v-4.3
	h-6.4v4.3H28.3z"/>
<path id="XMLID_62_" class="st7" d="M32,65.2h-1.2v-6.6H32V65.2z"/>
<path id="XMLID_60_" class="st7" d="M42.1,65.2h-1.2v-5.5h-6.4v5.5h-1.2v-6.6h6.9c0.5,0,0.9,0.2,1.3,0.5c0.4,0.4,0.5,0.8,0.5,1.3
	V65.2z"/>
<path id="XMLID_57_" class="st7" d="M52.2,65.2h-6.9c-0.5,0-0.9-0.2-1.3-0.5c-0.4-0.4-0.5-0.8-0.5-1.3v-3c0-0.5,0.2-0.9,0.5-1.3
	c0.4-0.4,0.8-0.5,1.3-0.5h5.1c0.5,0,0.9,0.2,1.3,0.5c0.4,0.4,0.5,0.8,0.5,1.3v2.1h-7.6v1.6h7.6V65.2z M51,61.3v-1.6h-6.4v1.6H51z"/>
<path id="XMLID_54_" class="st7" d="M62.3,65.2h-6.9c-0.5,0-0.9-0.2-1.3-0.5c-0.4-0.4-0.5-0.8-0.5-1.3v-3c0-0.5,0.2-0.9,0.5-1.3
	c0.4-0.4,0.8-0.5,1.3-0.5h5.1c0.5,0,0.9,0.2,1.3,0.5c0.4,0.4,0.5,0.8,0.5,1.3v2.1h-7.6v1.6h7.6V65.2z M61.1,61.3v-1.6h-6.4v1.6H61.1
	z"/>
<path id="XMLID_52_" class="st7" d="M72.3,61.9h-1.2v-2.2h-6.4v5.5h-1.2v-6.6h6.9c0.5,0,0.9,0.2,1.3,0.5c0.4,0.4,0.5,0.8,0.5,1.3
	V61.9z"/>
<path id="XMLID_50_" class="st7" d="M74.8,65.2h-1.2v-6.6h1.2V65.2z"/>
<path id="XMLID_48_" class="st7" d="M84.9,65.2h-1.2v-5.5h-6.4v5.5h-1.2v-6.6h6.9c0.5,0,0.9,0.2,1.3,0.5c0.4,0.4,0.5,0.8,0.5,1.3
	V65.2z"/>
<path id="XMLID_45_" class="st7" d="M95,65.6c0,0.5-0.2,0.9-0.5,1.3c-0.4,0.4-0.8,0.5-1.3,0.5h-6.9v-1.2h7.6v-1h-5.8
	c-0.5,0-0.9-0.2-1.3-0.5c-0.4-0.4-0.5-0.8-0.5-1.3v-3c0-0.5,0.2-0.9,0.5-1.3c0.4-0.4,0.8-0.5,1.3-0.5H95V65.6z M93.8,64.1v-4.3h-6.4
	v4.3H93.8z"/>
<rect id="XMLID_44_" x="30.8" y="56.7" class="st7" width="1.2" height="1.2"/>
<rect id="XMLID_43_" x="73.7" y="66.2" class="st8" width="1.1" height="1.1"/>
</svg>
