<?xml version="1.0" encoding="utf-8"?>
<!-- Generator: Adobe Illustrator 19.0.0, SVG Export Plug-In . SVG Version: 6.00 Build 0)  -->
<svg version="1.1" id="Layer_5" xmlns="http://www.w3.org/2000/svg" xmlns:xlink="http://www.w3.org/1999/xlink" x="0px" y="0px"
	 width="478.817px" height="352.804px" viewBox="0 0 478.817 352.804" style="enable-background:new 0 0 478.817 352.804;"
	 xml:space="preserve">
<style type="text/css">
	.st0{fill:#FFC107;}
	.st1{fill:#AAAAAA;}
	.st2{fill:none;stroke:#AAAAAA;stroke-linecap:round;stroke-linejoin:round;stroke-miterlimit:10;}
	.st3{fill:none;stroke:#FFC107;stroke-linecap:round;stroke-linejoin:round;stroke-miterlimit:10;}
	.st4{clip-path:url(#XMLID_2_);fill:#AAAAAA;}
	.st5{fill:none;stroke:#FFFFFF;stroke-linecap:round;stroke-linejoin:round;}
	.st6{fill:none;stroke:#FFFFFF;stroke-linecap:round;stroke-linejoin:round;stroke-miterlimit:10;}
	.st7{fill:none;stroke:#FFFFFF;stroke-linecap:round;stroke-linejoin:round;stroke-miterlimit:3.864;}
	.st8{fill:none;stroke:#FFFFFF;stroke-linecap:round;stroke-linejoin:round;stroke-dasharray:1.854,1.854;}
	.st9{fill:none;stroke:#FFFFFF;stroke-linecap:round;stroke-linejoin:round;stroke-dasharray:2.238,2.238;}
	.st10{fill:#FFFFFF;}
	.st11{font-family:'ArialRoundedMTBold';}
	.st12{font-size:9.0735px;}
	.st13{fill:none;stroke:#C5C5C5;stroke-miterlimit:10;}
	.st14{fill:none;stroke:#C5C5C5;stroke-linecap:round;stroke-linejoin:round;stroke-miterlimit:10;}
	.st15{fill:none;stroke:#231F20;stroke-linecap:round;stroke-linejoin:round;}
</style>
<g id="XMLID_266_">
	<path id="XMLID_273_" class="st0" d="M158.066,148.529c-1.343,0-2.65-0.361-3.799-1.048c-0.362,0.032-0.725,0.049-1.087,0.049
		c-6.352,0-11.519-5.221-11.519-11.644c0-0.495,0.032-0.997,0.094-1.495c-0.493-1.024-0.753-2.162-0.753-3.305
		c0-4.167,3.354-7.557,7.48-7.557c1.155,0,2.305,0.275,3.337,0.795c0.45-0.054,0.907-0.08,1.362-0.08
		c6.354,0,11.52,5.223,11.52,11.643c0,0.477-0.029,0.957-0.088,1.431c0.612,1.117,0.934,2.375,0.934,3.652
		C165.545,145.139,162.191,148.529,158.066,148.529L158.066,148.529z M154.549,146.252l0.177,0.112
		c0.999,0.638,2.155,0.973,3.34,0.973c3.47,0,6.289-2.855,6.289-6.367c0-1.138-0.303-2.256-0.872-3.232l-0.103-0.176l0.028-0.204
		c0.068-0.487,0.104-0.98,0.104-1.47c0-5.763-4.635-10.453-10.332-10.453c-0.465,0-0.933,0.033-1.392,0.095l-0.191,0.023
		l-0.17-0.091c-0.903-0.485-1.922-0.744-2.945-0.744c-3.468,0-6.288,2.855-6.288,6.367c0,1.018,0.243,2.031,0.706,2.933l0.087,0.168
		l-0.028,0.186c-0.072,0.504-0.108,1.012-0.108,1.514c0,5.763,4.635,10.454,10.33,10.454c0.385,0,0.775-0.023,1.16-0.065
		L154.549,146.252z M154.549,146.252"/>
	<path id="XMLID_267_" class="st0" d="M152.924,144.085c-1.965,0-3.582-0.456-4.801-1.357c-1.162-0.837-1.779-1.911-1.779-3.104
		c0-0.666,0.237-1.25,0.685-1.694c0.478-0.472,1.139-0.71,1.83-0.663c-2.152-1.121-2.515-2.996-2.515-4.133
		c0-1.732,0.749-3.137,2.162-4.063c1.131-0.73,2.535-1.1,4.18-1.1c1.428,0,2.765,0.345,3.971,1.027
		c1.478,0.835,2.227,1.904,2.227,3.178c0,0.702-0.291,1.32-0.817,1.742c-0.382,0.307-0.824,0.488-1.318,0.545
		c2.279,1.13,2.664,3.116,2.664,4.332c0,1.595-0.588,2.889-1.753,3.844C156.523,143.597,154.928,144.085,152.924,144.085
		L152.924,144.085z M148.699,138.452c-0.342,0-0.614,0.106-0.835,0.324c-0.221,0.22-0.329,0.498-0.329,0.846
		c0,0.817,0.421,1.517,1.29,2.145c1.015,0.749,2.393,1.128,4.1,1.128c1.716,0,3.056-0.394,3.977-1.172
		c0.892-0.734,1.322-1.691,1.322-2.93c0-1.964-1.133-3.222-3.366-3.737l-2.505-0.57c-1.419-0.32-2.109-0.817-2.109-1.518
		c0-0.491,0.201-0.895,0.598-1.199c0.39-0.3,0.943-0.452,1.643-0.452c0.817,0,1.493,0.181,2.008,0.534
		c0.054,0.037,0.225,0.153,0.962,0.951c0.3,0.329,0.614,0.488,0.956,0.488c0.36,0,0.657-0.1,0.908-0.304
		c0.247-0.198,0.373-0.471,0.373-0.813c0-0.813-0.542-1.533-1.62-2.142c-1.027-0.578-2.165-0.872-3.387-0.872
		c-1.41,0-2.599,0.305-3.532,0.908c-1.09,0.714-1.619,1.717-1.619,3.064c0,1.818,1.06,3.013,3.148,3.553l3.377,0.865
		c0.894,0.234,1.344,0.726,1.344,1.463c0,0.49-0.22,0.915-0.656,1.265c-0.461,0.382-1.062,0.57-1.832,0.57
		c-0.877,0-1.598-0.223-2.147-0.661c-0.057-0.046-0.208-0.166-0.997-1.143C149.449,138.646,149.099,138.452,148.699,138.452
		L148.699,138.452z M150.181,137.783c0.183,0.143,0.356,0.314,0.518,0.514c0.652,0.804,0.811,0.957,0.828,0.973
		c0.321,0.257,0.778,0.387,1.388,0.387c0.483,0,0.837-0.099,1.083-0.303c0.215-0.173,0.215-0.273,0.215-0.34
		c0-0.086,0-0.192-0.453-0.311l-3.373-0.864C150.317,137.822,150.247,137.803,150.181,137.783L150.181,137.783z M151.439,132.886
		c0.111,0.091,0.449,0.277,1.177,0.44l2.176,0.496c-0.072-0.067-0.143-0.137-0.211-0.212c-0.601-0.651-0.763-0.776-0.77-0.781
		c-0.303-0.21-0.753-0.318-1.326-0.318c-0.42,0-0.746,0.073-0.919,0.207C151.482,132.778,151.45,132.824,151.439,132.886
		L151.439,132.886z M151.439,132.886"/>
</g>
<g id="XMLID_39_">
	<path id="XMLID_268_" class="st1" d="M336.729,31.071c-0.698,0-1.378-0.188-1.975-0.545c-0.188,0.017-0.377,0.025-0.565,0.025
		c-3.303,0-5.99-2.715-5.99-6.055c0-0.257,0.017-0.518,0.049-0.777c-0.256-0.532-0.391-1.124-0.391-1.719
		c0-2.167,1.744-3.93,3.889-3.93c0.601,0,1.198,0.143,1.735,0.413c0.234-0.028,0.471-0.041,0.708-0.041
		c3.304,0,5.99,2.716,5.99,6.054c0,0.248-0.015,0.498-0.046,0.744c0.318,0.581,0.486,1.235,0.486,1.899
		C340.618,29.308,338.873,31.071,336.729,31.071L336.729,31.071z M334.9,29.887l0.092,0.058c0.52,0.332,1.121,0.506,1.737,0.506
		c1.805,0,3.27-1.485,3.27-3.311c0-0.592-0.157-1.173-0.454-1.681l-0.053-0.091l0.014-0.106c0.036-0.253,0.054-0.51,0.054-0.764
		c0-2.997-2.41-5.436-5.373-5.436c-0.242,0-0.485,0.017-0.724,0.05l-0.099,0.012l-0.088-0.047c-0.47-0.252-1-0.387-1.532-0.387
		c-1.803,0-3.27,1.485-3.27,3.311c0,0.529,0.127,1.056,0.367,1.525l0.045,0.088l-0.015,0.097c-0.037,0.262-0.056,0.526-0.056,0.787
		c0,2.997,2.41,5.436,5.371,5.436c0.2,0,0.403-0.012,0.603-0.034L334.9,29.887z M334.9,29.887"/>
	<path id="XMLID_240_" class="st1" d="M334.055,28.76c-1.022,0-1.862-0.237-2.497-0.706c-0.604-0.435-0.925-0.994-0.925-1.614
		c0-0.346,0.123-0.65,0.356-0.881c0.249-0.245,0.592-0.369,0.952-0.345c-1.119-0.583-1.308-1.558-1.308-2.149
		c0-0.901,0.389-1.631,1.124-2.113c0.588-0.38,1.318-0.572,2.173-0.572c0.743,0,1.438,0.179,2.065,0.534
		c0.768,0.434,1.158,0.99,1.158,1.652c0,0.365-0.152,0.686-0.425,0.906c-0.199,0.16-0.428,0.254-0.685,0.283
		c1.185,0.587,1.385,1.62,1.385,2.253c0,0.829-0.306,1.502-0.912,1.999C335.926,28.507,335.097,28.76,334.055,28.76L334.055,28.76z
		 M331.858,25.831c-0.178,0-0.319,0.055-0.434,0.168c-0.115,0.114-0.171,0.259-0.171,0.44c0,0.425,0.219,0.789,0.671,1.115
		c0.528,0.389,1.245,0.586,2.132,0.586c0.892,0,1.589-0.205,2.068-0.609c0.464-0.382,0.687-0.879,0.687-1.523
		c0-1.021-0.589-1.675-1.75-1.943l-1.302-0.296c-0.738-0.167-1.097-0.425-1.097-0.79c0-0.256,0.104-0.465,0.311-0.623
		c0.203-0.156,0.49-0.235,0.854-0.235c0.425,0,0.777,0.094,1.044,0.278c0.028,0.019,0.117,0.08,0.5,0.495
		c0.156,0.171,0.319,0.254,0.497,0.254c0.187,0,0.342-0.052,0.472-0.158c0.129-0.103,0.194-0.245,0.194-0.423
		c0-0.423-0.282-0.797-0.842-1.114C335.157,21.153,334.565,21,333.93,21c-0.733,0-1.351,0.159-1.837,0.472
		c-0.567,0.371-0.842,0.893-0.842,1.593c0,0.945,0.551,1.567,1.637,1.848l1.756,0.45c0.465,0.122,0.699,0.377,0.699,0.761
		c0,0.255-0.114,0.476-0.341,0.658c-0.24,0.199-0.552,0.296-0.953,0.296c-0.456,0-0.831-0.116-1.116-0.344
		c-0.03-0.024-0.108-0.086-0.518-0.594C332.248,25.932,332.066,25.831,331.858,25.831L331.858,25.831z M332.628,25.483
		c0.095,0.074,0.185,0.163,0.27,0.267c0.339,0.418,0.422,0.498,0.431,0.506c0.167,0.134,0.405,0.201,0.722,0.201
		c0.251,0,0.435-0.052,0.563-0.157c0.112-0.09,0.112-0.142,0.112-0.177c0-0.045,0-0.1-0.236-0.162l-1.754-0.449
		C332.699,25.504,332.663,25.494,332.628,25.483L332.628,25.483z M333.282,22.937c0.058,0.047,0.233,0.144,0.612,0.229l1.132,0.258
		c-0.037-0.035-0.074-0.071-0.11-0.11c-0.313-0.339-0.397-0.404-0.4-0.406c-0.157-0.109-0.391-0.165-0.69-0.165
		c-0.218,0-0.388,0.038-0.478,0.107C333.305,22.881,333.288,22.905,333.282,22.937L333.282,22.937z M333.282,22.937"/>
</g>
<g id="XMLID_3_">
	<path id="XMLID_6_" class="st2" d="M39.105,25.06c-0.107-0.109-0.28-0.112-0.393-0.007c0,0-0.804,0.786-0.857,0.835
		c-0.013,0.013-0.028,0.023-0.044,0.032c-0.836,0.423-3.852-2.806-3.277-3.414l0.86-0.843c0.111-0.109,0.112-0.289,0.004-0.398
		l-2.814-2.87c-0.052-0.053-0.124-0.083-0.198-0.084c-0.075,0-0.146,0.029-0.2,0.081c-1.409,1.383-3.668,2.775,1.609,8.158
		c5.209,5.312,6.702,3.299,8.14,1.753c0.103-0.11,0.1-0.282-0.005-0.39L39.105,25.06z"/>
	<path id="XMLID_5_" class="st2" d="M41.445,22.985c0.075-2.266-1.768-4.105-4.03-4.03"/>
	<path id="XMLID_4_" class="st2" d="M43.399,22.985c0.073-3.343-2.638-6.057-5.984-5.984"/>
	<path id="XMLID_8_" class="st2" d="M37.416,20.909c1.182-0.078,2.154,0.895,2.076,2.076"/>
</g>
<g id="XMLID_132_">
	<path id="XMLID_136_" class="st3" d="M46.592,139.5c-0.206-0.209-0.539-0.215-0.755-0.014c0,0-1.546,1.512-1.648,1.606
		c-0.025,0.025-0.053,0.045-0.085,0.062c-1.607,0.814-7.408-5.397-6.302-6.565l1.654-1.62c0.214-0.21,0.215-0.555,0.007-0.766
		l-5.412-5.519c-0.1-0.102-0.238-0.16-0.381-0.162c-0.144-0.001-0.281,0.055-0.384,0.156c-2.71,2.66-7.055,5.336,3.095,15.688
		c10.017,10.216,12.888,6.344,15.653,3.37c0.198-0.212,0.193-0.543-0.01-0.75L46.592,139.5z"/>
	<path id="XMLID_135_" class="st3" d="M51.093,135.51c0.143-4.358-3.399-7.893-7.75-7.751"/>
	<path id="XMLID_134_" class="st3" d="M54.85,135.51c0.141-6.428-5.072-11.648-11.507-11.507"/>
	<path id="XMLID_133_" class="st3" d="M43.344,131.517c2.272-0.15,4.142,1.722,3.993,3.993"/>
</g>
<g id="XMLID_10_">
	<path id="XMLID_14_" class="st2" d="M88.163,18.291l-5.203,5.45c-0.394,0.413-1.017,0.413-1.411,0l-5.203-5.45"/>
	<line id="XMLID_13_" class="st2" x1="84.677" y1="24.305" x2="88.163" y2="27.683"/>
	<line id="XMLID_12_" class="st2" x1="79.831" y1="24.305" x2="76.346" y2="27.683"/>
	<path id="XMLID_11_" class="st2" d="M74.779,18.237v9.499c0,0.966,0.673,1.749,1.537,1.749h12.017c0.865,0,1.542-0.782,1.542-1.749
		v-9.499c0-0.967-0.678-1.752-1.542-1.752H76.316C75.451,16.485,74.779,17.27,74.779,18.237z"/>
</g>
<g id="XMLID_138_">
	<path id="XMLID_142_" class="st3" d="M107.858,129.99l-8.616,9.026c-0.653,0.684-1.685,0.684-2.337,0l-8.616-9.026"/>
	<line id="XMLID_141_" class="st3" x1="102.087" y1="139.95" x2="107.858" y2="145.544"/>
	<line id="XMLID_140_" class="st3" x1="94.061" y1="139.95" x2="88.289" y2="145.544"/>
	<path id="XMLID_139_" class="st3" d="M85.694,129.901v15.731c0,1.6,1.114,2.896,2.546,2.896h19.9c1.432,0,2.554-1.296,2.554-2.896
		v-15.731c0-1.602-1.122-2.901-2.554-2.901h-19.9C86.808,127,85.694,128.3,85.694,129.901z"/>
</g>
<line id="XMLID_18_" class="st2" x1="127.59" y1="23.5" x2="130.418" y2="23.5"/>
<circle id="XMLID_17_" class="st2" cx="127.59" cy="22.985" r="6.5"/>
<line id="XMLID_16_" class="st2" x1="127.59" y1="23.5" x2="127.59" y2="19.48"/>
<g id="XMLID_20_">
	<g id="XMLID_21_">
		<defs>
			<rect id="XMLID_22_" x="164.5" y="17" width="7.1" height="13"/>
		</defs>
		<clipPath id="XMLID_2_">
			<use xlink:href="#XMLID_22_"  style="overflow:visible;"/>
		</clipPath>
		<path id="XMLID_23_" class="st4" d="M171.264,16.986l-1.686-0.003c-1.894,0-3.118,1.256-3.118,3.199v1.475h-1.695
			c-0.146,0-0.265,0.118-0.265,0.265v2.138c0,0.146,0.119,0.265,0.265,0.265h1.695v5.393c0,0.146,0.119,0.265,0.265,0.265h2.211
			c0.147,0,0.265-0.119,0.265-0.265v-5.393h1.982c0.147,0,0.265-0.119,0.265-0.265l0.001-2.138c0-0.07-0.028-0.137-0.078-0.187
			c-0.05-0.05-0.117-0.077-0.187-0.077h-1.982v-1.251c0-0.601,0.143-0.906,0.926-0.906l1.136-0.001c0.147,0,0.265-0.119,0.265-0.265
			v-1.984C171.528,17.105,171.41,16.987,171.264,16.986L171.264,16.986z M171.264,16.986"/>
	</g>
</g>
<g id="XMLID_27_">
	<path id="XMLID_28_" class="st1" d="M215.042,20.301c-0.496,0.22-1.034,0.372-1.595,0.439c0.574-0.344,1.012-0.889,1.223-1.538
		c-0.537,0.318-1.132,0.55-1.769,0.674c-0.504-0.537-1.227-0.876-2.025-0.876c-1.533,0-2.777,1.244-2.777,2.777
		c0,0.219,0.025,0.43,0.071,0.633c-2.31-0.116-4.355-1.22-5.727-2.902c-0.24,0.409-0.377,0.889-0.377,1.397
		c0,0.963,0.492,1.814,1.236,2.309c-0.455-0.012-0.88-0.14-1.256-0.347v0.034c0,1.347,0.958,2.47,2.227,2.727
		c-0.232,0.061-0.479,0.094-0.731,0.094c-0.178,0-0.351-0.016-0.525-0.049c0.355,1.103,1.379,1.904,2.595,1.93
		c-0.951,0.744-2.15,1.186-3.451,1.186c-0.223,0-0.442-0.013-0.661-0.037c1.231,0.789,2.69,1.247,4.26,1.247
		c5.108,0,7.901-4.232,7.901-7.9l-0.008-0.36C214.199,21.347,214.67,20.86,215.042,20.301L215.042,20.301z M215.042,20.301"/>
</g>
<g id="XMLID_32_">
	<path id="XMLID_33_" class="st1" d="M249.253,30c-2.593,0-3.753-1.284-3.753-2.557c0-0.26,0.051-0.664,0.295-1.107
		c0.237-0.431,0.598-0.793,1.073-1.075c0.921-0.563,2.117-0.704,2.906-0.764c-0.176-0.25-0.327-0.547-0.327-0.963
		c0-0.176,0.029-0.314,0.069-0.435c-0.084,0.005-0.167,0.009-0.246,0.009c-1.102,0-1.789-0.475-2.171-0.874
		c-0.489-0.51-0.769-1.208-0.769-1.915c0-0.873,0.421-1.756,1.127-2.363l0.003-0.003c1.037-0.854,2.259-0.953,3.087-0.953h4.133
		l-1.728,0.97h-0.587c0.399,0.398,0.874,1.053,0.874,2.05c0,1.345-0.805,1.982-1.456,2.493l-0.018,0.018
		c-0.197,0.196-0.383,0.382-0.383,0.653c0,0.271,0.188,0.425,0.353,0.561l0.007,0.005l0.598,0.464l0.003,0.002
		c0.718,0.603,1.46,1.226,1.46,2.463c0,0.858-0.431,1.695-1.182,2.297C251.786,29.647,250.622,30,249.253,30z M248.635,25.566
		c-0.325,0.118-1.3,0.475-1.3,1.529c0,0.52,0.247,0.969,0.715,1.299c0.496,0.35,1.194,0.535,2.017,0.535
		c1.389,0,2.252-0.614,2.252-1.602c0-0.73-0.464-1.135-1.69-2.006c-0.097-0.01-0.172-0.01-0.313-0.01
		C250.306,25.311,249.368,25.322,248.635,25.566z M249.503,17.921c-0.378,0-0.786,0.192-1.015,0.477
		c-0.218,0.269-0.323,0.632-0.323,1.109c0,0.463,0.125,1.179,0.477,1.798c0.25,0.44,0.696,0.963,1.408,0.963
		c0.345,0,0.755-0.168,0.997-0.409c0.242-0.242,0.36-0.595,0.36-1.078c0-0.615-0.193-1.334-0.505-1.878
		C250.645,18.455,250.194,17.921,249.503,17.921z"/>
</g>
<g id="XMLID_9_">
	<path id="XMLID_47_" class="st1" d="M287.515,21.191h-2.601c-0.116,0-0.209,0.093-0.209,0.209v8.354
		c0,0.115,0.093,0.209,0.209,0.209h2.601c0.115,0,0.209-0.093,0.209-0.209V21.4C287.724,21.284,287.631,21.191,287.515,21.191
		L287.515,21.191z M287.515,21.191"/>
	<g id="XMLID_40_">
		<path id="XMLID_44_" class="st1" d="M286.216,17.038c-0.946,0-1.716,0.769-1.716,1.714c0,0.946,0.77,1.715,1.716,1.715
			c0.945,0,1.715-0.769,1.715-1.715C287.931,17.807,287.161,17.038,286.216,17.038L286.216,17.038z M286.216,17.038"/>
		<path id="XMLID_41_" class="st1" d="M294.13,20.983c-1.044,0-1.817,0.449-2.285,0.959V21.4c0-0.115-0.094-0.209-0.209-0.209
			h-2.491c-0.116,0-0.209,0.093-0.209,0.209v8.354c0,0.115,0.093,0.209,0.209,0.209h2.595c0.116,0,0.209-0.093,0.209-0.209v-4.133
			c0-1.393,0.378-1.936,1.349-1.936c1.058,0,1.142,0.87,1.142,2.007v4.062c0,0.115,0.093,0.209,0.209,0.209h2.596
			c0.116,0,0.209-0.093,0.209-0.209v-4.583C297.454,23.1,297.059,20.983,294.13,20.983L294.13,20.983z M294.13,20.983"/>
	</g>
</g>
<g id="XMLID_51_">
	<path id="XMLID_59_" class="st5" d="M32.935,75.54c0,0.963,0.162,1.721,0.457,2.584c-0.509,0.228-0.864,0.738-0.864,1.331
		c0,0.805,0.652,1.459,1.459,1.459c0.009,0,0.016-0.001,0.025-0.001C34.314,84.755,38.683,88,41.448,88
		c2.837,0,7.133-3.245,7.435-7.088c0.009,0,0.017,0.001,0.025,0.001c0.805,0,1.459-0.653,1.459-1.459
		c0-0.593-0.356-1.103-0.865-1.331c0.295-0.863,0.457-1.621,0.457-2.584"/>
	<path id="XMLID_58_" class="st6" d="M35.61,76.263l-0.209,2.426c0,0-0.796-1.1-2.008-0.566"/>
	<path id="XMLID_57_" class="st6" d="M47.309,76.221l0.213,2.468c0,0,0.796-1.1,2.008-0.566"/>
	<path id="XMLID_56_" class="st6" d="M38.413,65.108c-3.236,0.904-5.231,3.493-5.884,6.714l0,0c-0.984,0-1.789,0.805-1.789,1.789
		c0,0.984,0.759,1.459,1.789,1.789c9.195,3.239,17.837,0,17.837,0l0,0c0.983-0.296,1.789-0.805,1.789-1.789
		c0-0.984-0.805-1.789-1.789-1.789l0,0c-0.653-3.222-2.613-5.81-5.85-6.714"/>
	<path id="XMLID_55_" class="st6" d="M42.135,71.543h-1.341c-1.315,0-2.381-1.066-2.381-2.381V65.38c0-1.315,1.066-2.38,2.38-2.38
		h1.342c1.314,0,2.38,1.065,2.38,2.38v3.783C44.516,70.478,43.45,71.543,42.135,71.543z"/>
	<line id="XMLID_54_" class="st7" x1="40.371" y1="83.833" x2="42.577" y2="83.833"/>
	<line id="XMLID_53_" class="st5" x1="39.224" y1="79.475" x2="39.224" y2="79.475"/>
	<line id="XMLID_52_" class="st5" x1="43.682" y1="79.475" x2="43.682" y2="79.475"/>
</g>
<g id="XMLID_61_">
	<path id="XMLID_65_" class="st6" d="M98.063,76.973l10.343-6.595l-10.127-6.615l-15.025,9.452l5.305,3.368
		c0.277,0.176,0.577,0.274,0.884,0.29L97,77.266C97.367,77.285,97.731,77.185,98.063,76.973z"/>
	<polyline id="XMLID_64_" class="st6" points="108.406,74.808 93.241,84.334 83.254,77.645 	"/>
	<polyline id="XMLID_63_" class="st6" points="108.406,79.238 93.241,88.763 83.254,82.075 	"/>
	<path id="XMLID_62_" class="st6" d="M97,77.266c0,0-2.772-1.731-3.994-4.629c-1.426,2.992-3.563,4.237-3.563,4.237"/>
</g>
<g id="XMLID_67_">
	<line id="XMLID_78_" class="st6" x1="141.474" y1="71.46" x2="144.988" y2="67.962"/>
	<line id="XMLID_77_" class="st6" x1="143.401" y1="73.38" x2="144.807" y2="71.979"/>
	<line id="XMLID_76_" class="st6" x1="154.077" y1="84.008" x2="155.483" y2="82.609"/>
	<line id="XMLID_75_" class="st6" x1="156.086" y1="86.008" x2="159.6" y2="82.51"/>
	<path id="XMLID_74_" class="st6" d="M142.382,79.536c-0.071,0.07-2.857,7.13-2.857,7.13c-0.239,0.573,0.404,1.277,1.027,1.023
		c0,0,7.129-2.738,7.199-2.808"/>
	<line id="XMLID_73_" class="st6" x1="140.609" y1="83.93" x2="143.315" y2="86.625"/>
	<path id="XMLID_72_" class="st6" d="M163.541,66.723l-3.085-3.072c-0.598-0.595-1.565-0.595-2.163,0l-15.933,15.864l5.414,5.39
		l15.768-15.699C164.229,68.521,164.229,67.407,163.541,66.723z"/>
	<g id="XMLID_69_">
		<polyline id="XMLID_71_" class="st6" points="150.963,68.154 145.825,63.039 139.39,69.447 144.527,74.561 		"/>
		<polyline id="XMLID_70_" class="st6" points="152.761,82.759 158.064,88.039 164.5,81.631 159.197,76.351 		"/>
	</g>
	<line id="XMLID_68_" class="st6" x1="145.453" y1="82.594" x2="158.214" y2="69.889"/>
</g>
<g id="XMLID_80_">
	<ellipse id="XMLID_102_" class="st6" cx="215.467" cy="65.003" rx="2.105" ry="1.972"/>
	<ellipse id="XMLID_101_" class="st6" cx="207.904" cy="86.028" rx="2.105" ry="1.972"/>
	<line id="XMLID_100_" class="st6" x1="206.998" y1="73.326" x2="213.994" y2="66.382"/>
	<line id="XMLID_99_" class="st6" x1="205.707" y1="77.947" x2="207.385" y2="84.119"/>
	<ellipse id="XMLID_98_" class="st6" cx="217.689" cy="82.094" rx="1.443" ry="1.352"/>
	<ellipse id="XMLID_97_" class="st6" cx="197.036" cy="79.635" rx="1.443" ry="1.351"/>
	<ellipse id="XMLID_96_" class="st6" cx="198.713" cy="64.352" rx="1.443" ry="1.351"/>
	<g id="XMLID_91_">
		<g id="XMLID_92_">
			<line id="XMLID_95_" class="st5" x1="199.332" y1="65.567" x2="199.898" y2="66.536"/>
			<line id="XMLID_94_" class="st8" x1="200.946" y1="68.333" x2="202.519" y2="71.028"/>
			<line id="XMLID_93_" class="st5" x1="203.043" y1="71.926" x2="203.607" y2="72.895"/>
		</g>
	</g>
	<g id="XMLID_86_">
		<g id="XMLID_87_">
			<line id="XMLID_90_" class="st5" x1="216.428" y1="81.449" x2="215.405" y2="80.899"/>
			<line id="XMLID_89_" class="st9" x1="213.117" y1="79.668" x2="209.686" y2="77.821"/>
			<line id="XMLID_88_" class="st5" x1="208.542" y1="77.206" x2="207.519" y2="76.656"/>
		</g>
	</g>
	<g id="XMLID_82_">
		<g id="XMLID_83_">
			<line id="XMLID_85_" class="st5" x1="198.295" y1="78.989" x2="200.312" y2="77.845"/>
			<line id="XMLID_84_" class="st5" x1="200.392" y1="77.8" x2="202.41" y2="76.656"/>
		</g>
	</g>
	<ellipse id="XMLID_81_" class="st6" cx="204.987" cy="75.302" rx="2.917" ry="2.732"/>
</g>
<g id="XMLID_104_">
	<path id="XMLID_107_" class="st5" d="M257.542,87.199c-4.109,0-7.452-3.401-7.452-7.582c0-4.181,3.343-7.582,7.452-7.582
		s7.452,3.401,7.452,7.582C264.994,83.798,261.651,87.199,257.542,87.199z"/>
	<path id="XMLID_106_" class="st5" d="M267.638,87.199c-4.109,0-7.452-3.401-7.452-7.582c0-4.181,3.343-7.582,7.452-7.582
		s7.452,3.401,7.452,7.582C275.09,83.798,271.747,87.199,267.638,87.199z"/>
	<path id="XMLID_105_" class="st5" d="M262.602,78.194c-4.109,0-7.452-3.401-7.452-7.582c0-4.181,3.343-7.582,7.452-7.582
		c4.11,0,7.453,3.4,7.453,7.582C270.055,74.793,266.712,78.194,262.602,78.194z"/>
</g>
<path id="XMLID_112_" class="st10" d="M318.065,65.377l-8.209,4.738c-0.137,0.079-0.221,0.224-0.221,0.382l0.001,9.671
	c0,0.158,0.084,0.303,0.22,0.382l8.207,4.742c0.068,0.039,0.145,0.059,0.221,0.059c0.076,0,0.152-0.02,0.221-0.059l8.208-4.739
	c0.136-0.079,0.221-0.224,0.221-0.382v-9.674c0-0.158-0.084-0.303-0.221-0.382l-8.208-4.739
	C318.369,65.298,318.201,65.298,318.065,65.377z M310.518,71.262l7.326,4.23l-0.001,8.655l-7.325-4.232L310.518,71.262z
	 M326.052,79.917l-7.326,4.229l0.001-8.655l7.326-4.229L326.052,79.917L326.052,79.917z M318.285,74.727l-7.326-4.23l7.326-4.229
	l7.326,4.229L318.285,74.727z"/>
<path id="XMLID_109_" class="st10" d="M330.726,68.065c-0.122-0.211-0.392-0.283-0.603-0.161l-1.583,0.914
	c-2.145-3.408-5.94-5.678-10.256-5.678c-4.316,0-8.111,2.27-10.256,5.678l-1.582-0.914c-0.211-0.122-0.481-0.05-0.603,0.161
	c-0.122,0.211-0.05,0.481,0.161,0.603l1.581,0.913c-0.9,1.692-1.411,3.621-1.411,5.667c0,6.529,5.194,11.867,11.667,12.1v1.465
	c0,0.244,0.198,0.441,0.441,0.441c0.244,0,0.441-0.198,0.441-0.441v-1.465c6.474-0.233,11.668-5.571,11.668-12.1
	c0-2.046-0.511-3.975-1.411-5.667l1.581-0.913C330.776,68.545,330.848,68.276,330.726,68.065z M318.285,86.474
	c-6.19,0-11.227-5.036-11.227-11.227c0-6.19,5.036-11.227,11.227-11.227c6.19,0,11.227,5.036,11.227,11.227
	C329.512,81.438,324.475,86.474,318.285,86.474z"/>
<g id="XMLID_118_">
	<line id="XMLID_129_" class="st5" x1="365.459" y1="84.94" x2="376.796" y2="84.94"/>
	<line id="XMLID_128_" class="st5" x1="365.459" y1="81.428" x2="376.796" y2="81.428"/>
	<line id="XMLID_127_" class="st5" x1="365.459" y1="77.917" x2="376.796" y2="77.917"/>
	<line id="XMLID_126_" class="st5" x1="365.459" y1="74.492" x2="370.602" y2="74.492"/>
	<line id="XMLID_125_" class="st5" x1="365.459" y1="64.254" x2="365.459" y2="68.823"/>
	<line id="XMLID_124_" class="st5" x1="370.641" y1="64.254" x2="370.641" y2="68.823"/>
	<ellipse id="XMLID_123_" class="st5" cx="365.459" cy="69.618" rx="1.264" ry="1.256"/>
	<line id="XMLID_122_" class="st5" x1="375.928" y1="64.254" x2="375.928" y2="68.823"/>
	<ellipse id="XMLID_121_" class="st5" cx="375.927" cy="69.618" rx="1.264" ry="1.256"/>
	<ellipse id="XMLID_120_" class="st5" cx="370.636" cy="69.618" rx="1.264" ry="1.256"/>
	<rect id="XMLID_119_" x="361.124" y="65.809" class="st5" width="19.104" height="23.445"/>
</g>
<g id="XMLID_38_">
	<path id="XMLID_145_" class="st3" d="M41.352,210c-5.753,0-10.432-4.762-10.432-10.614c0-5.854,4.68-10.614,10.432-10.614
		s10.433,4.761,10.433,10.614C51.785,205.238,47.105,210,41.352,210z"/>
	<path id="XMLID_144_" class="st3" d="M55.487,210c-5.753,0-10.432-4.762-10.432-10.614c0-5.854,4.68-10.614,10.432-10.614
		s10.433,4.761,10.433,10.614C65.92,205.238,61.24,210,55.487,210z"/>
	<path id="XMLID_143_" class="st3" d="M48.437,197.393c-5.753,0-10.433-4.762-10.433-10.614c0-5.854,4.68-10.614,10.433-10.614
		c5.754,0,10.434,4.761,10.434,10.614C58.87,192.631,54.19,197.393,48.437,197.393z"/>
</g>
<g id="XMLID_150_">
	<path id="XMLID_151_" class="st0" d="M127.93,192.863v-10.549c1.74-0.294,3.07-1.807,3.07-3.629c0-2.031-1.653-3.684-3.684-3.684
		c-1.823,0-3.335,1.33-3.629,3.07h-10.549c-0.294-1.74-1.807-3.07-3.629-3.07c-2.032,0-3.684,1.653-3.684,3.684
		c0,1.822,1.33,3.335,3.07,3.629v5.582h-5.582c-0.294-1.74-1.807-3.07-3.629-3.07c-2.032,0-3.684,1.652-3.684,3.684
		c0,1.822,1.33,3.335,3.07,3.629v10.549c-1.74,0.294-3.07,1.807-3.07,3.629c0,2.032,1.652,3.684,3.684,3.684
		c1.822,0,3.335-1.33,3.629-3.07h10.549c0.294,1.74,1.807,3.07,3.629,3.07c2.032,0,3.684-1.652,3.684-3.684
		c0-1.823-1.33-3.335-3.07-3.629v-5.582h5.582c0.294,1.74,1.807,3.07,3.629,3.07c2.032,0,3.684-1.652,3.684-3.684
		C131,194.669,129.67,193.156,127.93,192.863L127.93,192.863z M127.316,176.228c1.355,0,2.455,1.102,2.455,2.456
		c0,1.355-1.101,2.456-2.455,2.456c-1.355,0-2.456-1.102-2.456-2.456C124.86,177.33,125.961,176.228,127.316,176.228
		L127.316,176.228z M107.053,178.684c0-1.354,1.102-2.456,2.456-2.456c1.354,0,2.456,1.102,2.456,2.456
		c0,1.355-1.102,2.456-2.456,2.456C108.154,181.14,107.053,180.038,107.053,178.684L107.053,178.684z M110.123,189.123h3.74
		c0.26,1.539,1.475,2.755,3.015,3.015v3.74h-3.74c-0.26-1.539-1.475-2.755-3.015-3.015V189.123z M109.509,194.035
		c1.354,0,2.456,1.102,2.456,2.456c0,1.354-1.102,2.456-2.456,2.456c-1.355,0-2.456-1.102-2.456-2.456
		C107.053,195.137,108.154,194.035,109.509,194.035L109.509,194.035z M97.228,188.509c0-1.354,1.101-2.456,2.455-2.456
		c1.355,0,2.456,1.102,2.456,2.456c0,1.355-1.101,2.456-2.456,2.456C98.329,190.965,97.228,189.863,97.228,188.509L97.228,188.509z
		 M99.684,208.772c-1.355,0-2.455-1.102-2.455-2.455c0-1.355,1.101-2.456,2.455-2.456c1.355,0,2.456,1.102,2.456,2.456
		C102.14,207.67,101.039,208.772,99.684,208.772L99.684,208.772z M113.863,205.702h-10.549c-0.26-1.539-1.475-2.755-3.015-3.015
		v-10.549c1.539-0.26,2.755-1.475,3.015-3.015h5.582v3.74c-1.74,0.293-3.07,1.807-3.07,3.629c0,2.032,1.652,3.684,3.684,3.684
		c1.822,0,3.335-1.33,3.629-3.07h3.74v5.582C115.338,202.947,114.122,204.162,113.863,205.702L113.863,205.702z M119.947,206.316
		c0,1.354-1.102,2.455-2.456,2.455c-1.354,0-2.456-1.102-2.456-2.455c0-1.355,1.102-2.456,2.456-2.456
		C118.846,203.86,119.947,204.962,119.947,206.316L119.947,206.316z M117.491,190.965c-1.354,0-2.456-1.102-2.456-2.456
		c0-1.354,1.102-2.456,2.456-2.456c1.355,0,2.456,1.102,2.456,2.456C119.947,189.863,118.846,190.965,117.491,190.965
		L117.491,190.965z M123.687,195.878h-5.582v-3.74c1.74-0.293,3.07-1.807,3.07-3.629c0-2.032-1.652-3.684-3.684-3.684
		c-1.822,0-3.335,1.33-3.629,3.07h-3.74v-5.582c1.539-0.26,2.755-1.475,3.015-3.015h10.549c0.26,1.539,1.475,2.754,3.015,3.015
		v10.549C125.162,193.123,123.947,194.338,123.687,195.878L123.687,195.878z M127.316,198.947c-1.355,0-2.456-1.102-2.456-2.456
		c0-1.355,1.101-2.456,2.456-2.456c1.355,0,2.455,1.102,2.455,2.456C129.771,197.846,128.671,198.947,127.316,198.947
		L127.316,198.947z M127.316,198.947"/>
</g>
<g id="XMLID_166_">
	<path id="XMLID_174_" class="st0" d="M161.667,192.5c0-9.006,7.327-16.333,16.333-16.333c5.055,0,9.787,2.381,12.866,6.417h-3.533
		c-0.322,0-0.583,0.261-0.583,0.583c0,0.322,0.261,0.583,0.583,0.583H192c0.018,0,0.034-0.009,0.051-0.01
		c0.039-0.003,0.076-0.012,0.113-0.023c0.039-0.012,0.074-0.026,0.109-0.044c0.016-0.008,0.033-0.009,0.048-0.02
		c0.016-0.01,0.025-0.027,0.04-0.039c0.031-0.025,0.059-0.053,0.084-0.083c0.023-0.029,0.044-0.058,0.061-0.09
		c0.017-0.033,0.031-0.065,0.041-0.101c0.012-0.038,0.02-0.076,0.023-0.116c0.002-0.019,0.012-0.036,0.012-0.055V178.5
		c0-0.322-0.261-0.583-0.583-0.583c-0.322,0-0.584,0.261-0.584,0.583v2.906C188.114,177.37,183.221,175,178,175
		c-9.649,0-17.5,7.851-17.5,17.5c0,1.857,0.289,3.683,0.858,5.428c0.08,0.247,0.309,0.403,0.555,0.403
		c0.059,0,0.12-0.01,0.181-0.029c0.306-0.1,0.474-0.429,0.374-0.735C161.936,195.938,161.667,194.234,161.667,192.5L161.667,192.5z
		 M161.667,192.5"/>
	<path id="XMLID_170_" class="st0" d="M176.029,204.123c0.072,0.029,0.147,0.043,0.221,0.043c0.192,0,0.378-0.095,0.489-0.265
		l8.75-13.417c0.127-0.194,0.126-0.444-0.001-0.638c-0.127-0.194-0.357-0.296-0.584-0.256l-6.187,1.031l1.607-9.104
		c0.049-0.277-0.106-0.55-0.37-0.648c-0.262-0.097-0.559,0.005-0.704,0.246l-8.75,14.583c-0.118,0.196-0.11,0.441,0.018,0.629
		c0.127,0.188,0.354,0.284,0.577,0.247l6.166-1.027l-1.584,7.921C175.623,203.743,175.77,204.018,176.029,204.123L176.029,204.123z
		 M172.15,195.217l6.477-10.796l-1.201,6.811c-0.033,0.187,0.026,0.377,0.159,0.512c0.134,0.135,0.324,0.197,0.511,0.165l5.69-0.948
		l-6.37,9.767l1.156-5.78c0.038-0.188-0.019-0.382-0.152-0.52c-0.112-0.114-0.263-0.177-0.42-0.177
		c-0.032,0-0.063,0.002-0.095,0.008L172.15,195.217z M172.15,195.217"/>
	<path id="XMLID_167_" class="st0" d="M194.608,186.972c-0.102-0.306-0.431-0.471-0.738-0.369c-0.305,0.102-0.471,0.432-0.369,0.737
		c0.552,1.658,0.832,3.394,0.832,5.16c0,9.006-7.327,16.333-16.333,16.333c-5.055,0-9.786-2.38-12.867-6.417h3.533
		c0.322,0,0.583-0.261,0.583-0.583c0-0.322-0.261-0.583-0.583-0.583H164c-0.018,0-0.033,0.009-0.05,0.011
		c-0.039,0.003-0.077,0.012-0.116,0.023c-0.038,0.012-0.073,0.025-0.107,0.043c-0.015,0.009-0.033,0.01-0.048,0.02
		c-0.016,0.011-0.025,0.027-0.039,0.04c-0.032,0.025-0.059,0.052-0.084,0.083c-0.023,0.029-0.044,0.058-0.061,0.09
		c-0.017,0.033-0.031,0.065-0.041,0.101c-0.012,0.038-0.02,0.075-0.024,0.116c-0.002,0.019-0.011,0.036-0.011,0.055v4.667
		c0,0.322,0.261,0.583,0.583,0.583c0.322,0,0.583-0.261,0.583-0.583v-2.907C167.886,207.631,172.78,210,178,210
		c9.649,0,17.5-7.851,17.5-17.5C195.5,190.609,195.2,188.749,194.608,186.972L194.608,186.972z M194.608,186.972"/>
</g>
<g id="XMLID_178_">
	<line id="XMLID_190_" class="st3" x1="237.022" y1="204.192" x2="235.962" y2="209.996"/>
	<line id="XMLID_189_" class="st3" x1="250.443" y1="204.192" x2="251.503" y2="209.996"/>
	<circle id="XMLID_188_" class="st3" cx="232.073" cy="187.97" r="1.317"/>
	<circle id="XMLID_187_" class="st3" cx="239.821" cy="183.04" r="1.317"/>
	<circle id="XMLID_186_" class="st3" cx="247.569" cy="195.014" r="1.317"/>
	<circle id="XMLID_185_" class="st3" cx="255.317" cy="186.562" r="1.317"/>
	<line id="XMLID_184_" class="st3" x1="238.726" y1="183.771" x2="233.182" y2="187.265"/>
	<line id="XMLID_183_" class="st3" x1="240.536" y1="184.144" x2="246.854" y2="193.91"/>
	<line id="XMLID_182_" class="st3" x1="248.456" y1="194.046" x2="254.409" y2="187.553"/>
	<rect id="XMLID_181_" x="226.211" y="177.523" class="st3" width="35" height="24.138"/>
	<line id="XMLID_180_" class="st3" x1="249.142" y1="175.004" x2="249.142" y2="177.418"/>
	<line id="XMLID_179_" class="st3" x1="238.28" y1="175.004" x2="238.28" y2="177.418"/>
</g>
<polyline id="XMLID_198_" class="st3" points="292.999,192.119 295.458,189.707 297.852,192.147 "/>
<path id="XMLID_197_" class="st3" d="M305.134,207.945c-7.212-3.045-10.972-10.843-9.673-18.238"/>
<polyline id="XMLID_196_" class="st3" points="319.545,209.619 316.224,208.705 317.131,205.409 "/>
<path id="XMLID_195_" class="st3" d="M327.871,190.948c0.993,7.765-3.859,14.935-10.906,17.529"/>
<polyline id="XMLID_194_" class="st3" points="321.575,176.841 322.482,180.164 319.184,181.064 "/>
<path id="XMLID_193_" class="st3" d="M301.381,179.571c6.174-4.812,14.816-4.293,20.64,0.448"/>
<text id="XMLID_192_" transform="matrix(1 0 0 1 303.4365 195.9199)" class="st0 st11 st12">BIM</text>
<g id="XMLID_204_">
	<path id="XMLID_205_" class="st0" d="M394.034,195.375l-0.891-1.123l-4.111,3.262l-5.394-3.114v-6.206l4.363-3.461l-0.891-1.124
		l-4.25,3.372l-5.49-3.169v-4.388h-1.434v4.653l-5.027,2.902l-4.248-3.37l-0.892,1.124l4.359,3.458v6.077l-6.268,3.619v7.065
		l-4.339,3.442l0.891,1.124l4.248-3.37l5.955,3.439l6.152-3.552l6.153,3.552l6.755-3.9v-6.852L394.034,195.375z M371.562,188.257
		l5.32-3.072l5.32,3.072v6.142l-5.322,3.073l-5.319-3.071V188.257z M375.936,204.857l-5.32,3.072l-5.321-3.072v-6.143l5.321-3.072
		l5.32,3.072V204.857z M388.241,204.857l-5.321,3.072l-5.32-3.072v-6.142l5.322-3.073l5.319,3.071V204.857z M388.241,204.857"/>
</g>
<circle id="XMLID_203_" class="st0" cx="376.653" cy="179.435" r="0.717"/>
<circle id="XMLID_202_" class="st0" cx="393.558" cy="194.845" r="0.717"/>
<circle id="XMLID_201_" class="st0" cx="359.992" cy="208.935" r="0.717"/>
<circle id="XMLID_200_" class="st0" cx="387.524" cy="184.192" r="0.717"/>
<circle id="XMLID_199_" class="st0" cx="366.22" cy="184.17" r="0.717"/>
<g id="XMLID_212_">
	<path id="XMLID_213_" class="st5" d="M419.381,80.789c1.097,0.371,1.709,0.524,2.5,1.585c0.15,0.201,0.073,0.488-0.154,0.588
		c-4.502,1.992-3.537,1.773-6.347,1.773c-1.41,0-2.979-0.286-2.979-1.702c0-0.304,0.116-0.623,0.345-0.948l0.371-0.58
		 M420.848,83.35c0.75,0.458,1.148,0.59,1.742,1.272c0.151,0.194,0.309,0.339,0.249,0.57c-0.03,0.114-0.11,0.208-0.217,0.256
		c-4.405,1.965-3.765,1.843-5.81,1.843c-1.407,0-2.878-0.289-2.878-1.691l0.296-0.944 M421.521,85.939
		c0.649,0.655,2.401,1.993,1.553,2.376l-3.089,1.393c-0.749,0.338-2.282,0.307-3.03-0.206c-0.81-0.556-0.691-1.288-0.641-2.223
		 M414.671,78.986l0.756-0.034c0.704-0.289,1.702-0.684,2.465-0.684c1.907,0,3.201,1.748,2.504,2.062l-3.145,1.417
		c-1.56,0.703-4.913,0.583-5.528-2.345c-0.294-1.399,0.343-2.422,1.881-3.031c1.178-0.46,2.935-0.693,5.223-0.693h0.366
		c0,0-0.549-3.513-1.615-5.283l-0.003-0.005c-0.556-0.955-1.052-1.773-1.052-2.916c0-3.07,2.87-2.965,3.24-1.244l0,0
		c0.597,2.772,2.055,3.935,4.687,6.738c0.007,0.008,0.015,0.017,0.022,0.025c0.369,0.46,3.001,3.973,3.537,4.219
		c0.228,0.107,3.462,0.283,3.462,0.283c0.509,1.411,0.841,2.77,0.841,4.489c0,1.513-0.322,2.784-0.772,4.091h-2.643
		c-0.235,0-0.454,0.109-0.602,0.291c-1.139,1.394-2.504,2.527-4.255,3.537c-1.163,0.338-2.565-0.088-3.655-0.381"/>
</g>
<g id="XMLID_221_">
	<path id="XMLID_224_" class="st13" d="M41.008,264.35l4.287,4.287c0.312,0.312,0.312,0.817,0,1.129l0,0
		c-0.312,0.312-0.817,0.312-1.129,0l-4.287-4.287"/>
	<circle id="XMLID_223_" class="st14" cx="36.36" cy="260.83" r="5.83"/>
	<path id="XMLID_222_" class="st14" d="M36.74,256.817c-1.124-0.037-2.259,0.369-3.117,1.227c-0.858,0.858-1.264,1.993-1.227,3.117"
		/>
</g>
<g id="XMLID_228_">
	<polyline id="XMLID_229_" class="st15" points="76.527,270 80.877,265 76.527,260 	"/>
</g>
<g id="XMLID_226_">
	<polyline id="XMLID_227_" class="st15" points="81.883,270 86.233,265 81.883,260 	"/>
</g>
<g id="XMLID_146_">
	<g id="XMLID_238_">
		<polyline id="XMLID_239_" class="st3" points="158.38,270 161.965,265.878 158.38,261.757 		"/>
	</g>
	<g id="XMLID_236_">
		<polyline id="XMLID_237_" class="st3" points="162.795,270 166.38,265.878 162.795,261.757 		"/>
	</g>
</g>
<g id="XMLID_242_">
	<g id="XMLID_245_">
		<polyline id="XMLID_246_" class="st3" points="205.38,270 201.795,265.878 205.38,261.757 		"/>
	</g>
	<g id="XMLID_243_">
		<polyline id="XMLID_244_" class="st3" points="200.965,270 197.38,265.878 200.965,261.757 		"/>
	</g>
</g>
<g id="XMLID_233_">
	<polyline id="XMLID_234_" class="st15" points="126.977,270 122.627,265 126.977,260 	"/>
</g>
<g id="XMLID_231_">
	<polyline id="XMLID_232_" class="st15" points="121.621,270 117.272,265 121.621,260 	"/>
</g>
<g id="XMLID_255_">
	<g id="XMLID_339_">
		<path id="XMLID_391_" class="st1" d="M411.969,31.071c-0.238,0-0.459-0.097-0.623-0.272c-0.165-0.176-0.251-0.409-0.242-0.656
			l0.16-4.514c0.011-0.3,0.011-0.806,0-1.106l-0.159-4.376c-0.009-0.247,0.077-0.48,0.241-0.657
			c0.164-0.176,0.385-0.272,0.623-0.272h3.172c0.238,0,0.459,0.097,0.623,0.272c0.132,0.141,0.213,0.32,0.235,0.516l0.007,0.066
			h0.27v-1.481c0-0.287,0.225-0.52,0.501-0.52h4.209c0.276,0,0.501,0.233,0.501,0.52v1.481h0.305c0.535,0,0.97,0.538,0.97,1.199
			v7.916c0,0.661-0.52,1.199-1.159,1.199h-5.62l-0.016,0.053c-0.04,0.137-0.109,0.257-0.204,0.358
			c-0.164,0.176-0.385,0.272-0.623,0.272H411.969z M411.969,19.918c-0.054,0-0.104,0.021-0.14,0.06
			c-0.035,0.037-0.053,0.088-0.051,0.142l0.159,4.376c0.012,0.32,0.012,0.839,0.001,1.157l-0.16,4.514
			c-0.002,0.054,0.017,0.105,0.052,0.143c0.036,0.039,0.086,0.06,0.14,0.06h3.172c0.054,0,0.103-0.021,0.14-0.06
			c0.036-0.039,0.054-0.089,0.052-0.143l-0.16-4.514c-0.011-0.318-0.011-0.838,0.001-1.157l0.159-4.376
			c0.002-0.054-0.016-0.105-0.052-0.143c-0.035-0.038-0.085-0.06-0.139-0.06H411.969z M415.846,24.523
			c-0.011,0.301-0.011,0.807-0.001,1.105l0.144,4.058h5.613c0.268,0,0.486-0.224,0.486-0.499v-7.916
			c0-0.286-0.157-0.499-0.297-0.499h-0.305v1.372c0,0.287-0.225,0.52-0.501,0.52h-4.209c-0.276,0-0.501-0.233-0.501-0.52v-1.372
			h-0.294L415.846,24.523z M416.95,21.964h3.864v-3.192h-3.864V21.964z"/>
	</g>
	<path id="XMLID_371_" class="st1" d="M417.229,23.937h-0.276c-0.136,0-0.245,0.113-0.245,0.253c0,0.14,0.11,0.253,0.245,0.253
		h0.276c0.135,0,0.245-0.113,0.245-0.253C417.474,24.05,417.364,23.937,417.229,23.937L417.229,23.937z M417.229,23.937"/>
	<path id="XMLID_368_" class="st1" d="M419.019,23.937h-0.276c-0.135,0-0.245,0.113-0.245,0.253c0,0.14,0.11,0.253,0.245,0.253
		h0.276c0.135,0,0.245-0.113,0.245-0.253C419.265,24.05,419.155,23.937,419.019,23.937L419.019,23.937z M419.019,23.937"/>
	<path id="XMLID_365_" class="st1" d="M420.81,23.937h-0.276c-0.135,0-0.245,0.113-0.245,0.253c0,0.14,0.11,0.253,0.245,0.253h0.276
		c0.135,0,0.245-0.113,0.245-0.253C421.055,24.05,420.945,23.937,420.81,23.937L420.81,23.937z M420.81,23.937"/>
	<path id="XMLID_362_" class="st1" d="M417.229,25.562h-0.276c-0.136,0-0.245,0.113-0.245,0.253c0,0.14,0.11,0.253,0.245,0.253
		h0.276c0.135,0,0.245-0.113,0.245-0.253C417.474,25.675,417.364,25.562,417.229,25.562L417.229,25.562z M417.229,25.562"/>
	<path id="XMLID_359_" class="st1" d="M419.019,25.562h-0.276c-0.135,0-0.245,0.113-0.245,0.253c0,0.14,0.11,0.253,0.245,0.253
		h0.276c0.135,0,0.245-0.113,0.245-0.253C419.265,25.675,419.155,25.562,419.019,25.562L419.019,25.562z M419.019,25.562"/>
	<path id="XMLID_356_" class="st1" d="M420.81,25.562h-0.276c-0.135,0-0.245,0.113-0.245,0.253c0,0.14,0.11,0.253,0.245,0.253h0.276
		c0.135,0,0.245-0.113,0.245-0.253C421.055,25.675,420.945,25.562,420.81,25.562L420.81,25.562z M420.81,25.562"/>
	<path id="XMLID_353_" class="st1" d="M417.229,27.187h-0.276c-0.136,0-0.245,0.113-0.245,0.253c0,0.14,0.11,0.253,0.245,0.253
		h0.276c0.135,0,0.245-0.113,0.245-0.253C417.474,27.3,417.364,27.187,417.229,27.187L417.229,27.187z M417.229,27.187"/>
	<path id="XMLID_350_" class="st1" d="M419.019,27.187h-0.276c-0.135,0-0.245,0.113-0.245,0.253c0,0.14,0.11,0.253,0.245,0.253
		h0.276c0.135,0,0.245-0.113,0.245-0.253C419.265,27.3,419.155,27.187,419.019,27.187L419.019,27.187z M419.019,27.187"/>
	<path id="XMLID_347_" class="st1" d="M420.81,27.187h-0.276c-0.135,0-0.245,0.113-0.245,0.253c0,0.14,0.11,0.253,0.245,0.253h0.276
		c0.135,0,0.245-0.113,0.245-0.253C421.055,27.3,420.945,27.187,420.81,27.187L420.81,27.187z M420.81,27.187"/>
</g>
<g id="XMLID_254_">
	<g id="XMLID_298_">
		<path id="XMLID_299_" class="st0" d="M198.996,148.529c-0.457,0-0.882-0.186-1.198-0.524c-0.317-0.339-0.482-0.787-0.466-1.262
			l0.308-8.681c0.021-0.577,0.02-1.55-0.001-2.126l-0.306-8.416c-0.017-0.475,0.148-0.923,0.464-1.263
			c0.315-0.338,0.741-0.524,1.198-0.524h6.1c0.458,0,0.883,0.186,1.198,0.524c0.254,0.272,0.41,0.615,0.452,0.991l0.014,0.127h0.52
			v-2.848c0-0.551,0.432-1,0.964-1h8.094c0.531,0,0.964,0.449,0.964,1v2.848h0.586c1.029,0,1.866,1.035,1.866,2.306v15.224
			c0,1.272-1,2.306-2.23,2.306h-10.807l-0.03,0.103c-0.078,0.263-0.209,0.494-0.392,0.689c-0.315,0.338-0.741,0.524-1.198,0.524
			H198.996z M198.996,127.08c-0.105,0-0.2,0.041-0.269,0.116c-0.067,0.072-0.103,0.169-0.099,0.274l0.306,8.416
			c0.023,0.615,0.023,1.614,0.001,2.226l-0.308,8.681c-0.003,0.105,0.032,0.202,0.1,0.275c0.069,0.074,0.165,0.115,0.268,0.115h6.1
			c0.104,0,0.199-0.041,0.269-0.115c0.07-0.076,0.104-0.171,0.1-0.275l-0.308-8.681c-0.021-0.612-0.021-1.611,0.001-2.226
			l0.306-8.416c0.004-0.104-0.032-0.201-0.1-0.274c-0.068-0.074-0.164-0.115-0.268-0.115H198.996z M206.452,135.936
			c-0.021,0.578-0.021,1.552-0.001,2.126l0.277,7.804h10.795c0.515,0,0.934-0.43,0.934-0.96v-15.224c0-0.549-0.301-0.96-0.571-0.96
			H217.3v2.638c0,0.551-0.432,1-0.964,1h-8.094c-0.531,0-0.964-0.449-0.964-1v-2.638h-0.565L206.452,135.936z M208.574,131.015h7.43
			v-6.139h-7.43V131.015z"/>
	</g>
	<path id="XMLID_295_" class="st0" d="M209.111,134.809h-0.53c-0.261,0-0.472,0.218-0.472,0.487c0,0.269,0.211,0.487,0.472,0.487
		h0.53c0.26,0,0.472-0.218,0.472-0.487C209.583,135.027,209.372,134.809,209.111,134.809L209.111,134.809z M209.111,134.809"/>
	<path id="XMLID_292_" class="st0" d="M212.555,134.809h-0.531c-0.26,0-0.472,0.218-0.472,0.487c0,0.269,0.211,0.487,0.472,0.487
		h0.531c0.26,0,0.472-0.218,0.472-0.487C213.026,135.027,212.815,134.809,212.555,134.809L212.555,134.809z M212.555,134.809"/>
	<path id="XMLID_289_" class="st0" d="M215.998,134.809h-0.53c-0.26,0-0.472,0.218-0.472,0.487c0,0.269,0.211,0.487,0.472,0.487
		h0.53c0.26,0,0.472-0.218,0.472-0.487C216.47,135.027,216.259,134.809,215.998,134.809L215.998,134.809z M215.998,134.809"/>
	<path id="XMLID_286_" class="st0" d="M209.111,137.934h-0.53c-0.261,0-0.472,0.218-0.472,0.487c0,0.269,0.211,0.487,0.472,0.487
		h0.53c0.26,0,0.472-0.218,0.472-0.487C209.583,138.152,209.372,137.934,209.111,137.934L209.111,137.934z M209.111,137.934"/>
	<path id="XMLID_283_" class="st0" d="M212.555,137.934h-0.531c-0.26,0-0.472,0.218-0.472,0.487c0,0.269,0.211,0.487,0.472,0.487
		h0.531c0.26,0,0.472-0.218,0.472-0.487C213.026,138.152,212.815,137.934,212.555,137.934L212.555,137.934z M212.555,137.934"/>
	<path id="XMLID_280_" class="st0" d="M215.998,137.934h-0.53c-0.26,0-0.472,0.218-0.472,0.487c0,0.269,0.211,0.487,0.472,0.487
		h0.53c0.26,0,0.472-0.218,0.472-0.487C216.47,138.152,216.259,137.934,215.998,137.934L215.998,137.934z M215.998,137.934"/>
	<path id="XMLID_277_" class="st0" d="M209.111,141.059h-0.53c-0.261,0-0.472,0.218-0.472,0.487c0,0.269,0.211,0.487,0.472,0.487
		h0.53c0.26,0,0.472-0.218,0.472-0.487C209.583,141.278,209.372,141.059,209.111,141.059L209.111,141.059z M209.111,141.059"/>
	<path id="XMLID_274_" class="st0" d="M212.555,141.059h-0.531c-0.26,0-0.472,0.218-0.472,0.487c0,0.269,0.211,0.487,0.472,0.487
		h0.531c0.26,0,0.472-0.218,0.472-0.487C213.026,141.278,212.815,141.059,212.555,141.059L212.555,141.059z M212.555,141.059"/>
	<path id="XMLID_256_" class="st0" d="M215.998,141.059h-0.53c-0.26,0-0.472,0.218-0.472,0.487c0,0.269,0.211,0.487,0.472,0.487
		h0.53c0.26,0,0.472-0.218,0.472-0.487C216.47,141.278,216.259,141.059,215.998,141.059L215.998,141.059z M215.998,141.059"/>
</g>
<g id="XMLID_251_">
	<line id="XMLID_305_" class="st6" x1="375.925" y1="30.97" x2="375.925" y2="20.971"/>
	<polyline id="XMLID_304_" class="st6" points="380.555,26.183 375.928,30.971 371.3,26.183 	"/>
</g>
</svg>
