<?xml version="1.0" encoding="utf-8"?>
<!-- Generator: Adobe Illustrator 19.0.0, SVG Export Plug-In . SVG Version: 6.00 Build 0)  -->
<svg version="1.1" id="Layer_4" xmlns="http://www.w3.org/2000/svg" xmlns:xlink="http://www.w3.org/1999/xlink" x="0px" y="0px"
	 width="478.817px" height="352.804px" viewBox="-66 220.196 478.817 352.804"
	 style="enable-background:new -66 220.196 478.817 352.804;" xml:space="preserve">
<style type="text/css">
	.st0{fill:#FFC107;}
	.st1{fill:none;}
	.st2{fill:none;stroke:#AAAAAA;stroke-linecap:round;stroke-linejoin:round;stroke-miterlimit:10;}
	.st3{fill:none;stroke:#FFC107;stroke-linecap:round;stroke-linejoin:round;stroke-miterlimit:10;}
	.st4{fill:none;stroke:#FFFFFF;stroke-linecap:round;stroke-linejoin:round;}
	.st5{fill:none;stroke:#FFFFFF;stroke-linecap:round;stroke-linejoin:round;stroke-miterlimit:10;}
	.st6{fill:none;stroke:#FFFFFF;stroke-linecap:round;stroke-linejoin:round;stroke-miterlimit:3.864;}
	.st7{fill:none;stroke:#FFFFFF;stroke-linecap:round;stroke-linejoin:round;stroke-dasharray:1.854,1.854;}
	.st8{fill:none;stroke:#FFFFFF;stroke-linecap:round;stroke-linejoin:round;stroke-dasharray:2.238,2.238;}
	.st9{fill:#FFFFFF;}
	.st10{font-family:'ArialRoundedMTBold';}
	.st11{font-size:9.0735px;}
	.st12{fill:none;stroke:#C5C5C5;stroke-miterlimit:10;}
	.st13{fill:none;stroke:#C5C5C5;stroke-linecap:round;stroke-linejoin:round;stroke-miterlimit:10;}
	.st14{fill:none;stroke:#231F20;stroke-linecap:round;stroke-linejoin:round;}
	.st15{fill:none;stroke:#FCFCFC;stroke-linecap:round;stroke-linejoin:round;stroke-miterlimit:10;}
	.st16{fill:#AAAAAA;}
	.st17{clip-path:url(#XMLID_2_);fill:#AAAAAA;}
</style>
<g id="XMLID_266_">
	<path id="XMLID_273_" class="st0" d="M92.754,370.225c-1.343,0-2.65-0.361-3.799-1.048c-0.362,0.032-0.725,0.049-1.087,0.049
		c-6.352,0-11.519-5.221-11.519-11.644c0-0.495,0.032-0.997,0.094-1.495c-0.493-1.024-0.753-2.162-0.753-3.305
		c0-4.167,3.354-7.557,7.48-7.557c1.155,0,2.305,0.275,3.337,0.795c0.45-0.054,0.907-0.08,1.362-0.08
		c6.354,0,11.52,5.223,11.52,11.643c0,0.477-0.029,0.957-0.088,1.431c0.612,1.117,0.934,2.375,0.934,3.652
		C100.233,366.835,96.878,370.225,92.754,370.225L92.754,370.225z M89.236,367.948l0.177,0.112c0.999,0.638,2.155,0.973,3.34,0.973
		c3.47,0,6.289-2.855,6.289-6.367c0-1.138-0.303-2.256-0.872-3.232l-0.103-0.176l0.028-0.204c0.068-0.487,0.104-0.98,0.104-1.47
		c0-5.763-4.635-10.453-10.332-10.453c-0.465,0-0.933,0.033-1.392,0.095l-0.191,0.023l-0.17-0.091
		c-0.903-0.485-1.922-0.744-2.945-0.744c-3.468,0-6.288,2.855-6.288,6.367c0,1.018,0.243,2.031,0.706,2.933l0.087,0.168
		l-0.028,0.186c-0.072,0.504-0.108,1.012-0.108,1.514c0,5.763,4.635,10.454,10.33,10.454c0.385,0,0.775-0.023,1.16-0.065
		L89.236,367.948z M89.236,367.948"/>
	<path id="XMLID_267_" class="st0" d="M87.611,365.781c-1.965,0-3.582-0.456-4.801-1.357c-1.162-0.837-1.779-1.911-1.779-3.104
		c0-0.666,0.237-1.25,0.685-1.694c0.478-0.472,1.139-0.71,1.83-0.663c-2.152-1.121-2.515-2.996-2.515-4.133
		c0-1.732,0.749-3.137,2.162-4.063c1.131-0.73,2.535-1.1,4.18-1.1c1.428,0,2.765,0.345,3.971,1.027
		c1.478,0.835,2.227,1.904,2.227,3.178c0,0.702-0.291,1.32-0.817,1.742c-0.382,0.307-0.824,0.488-1.318,0.545
		c2.279,1.13,2.664,3.116,2.664,4.332c0,1.595-0.588,2.889-1.753,3.844C91.211,365.293,89.616,365.781,87.611,365.781
		L87.611,365.781z M83.386,360.148c-0.342,0-0.614,0.106-0.835,0.324c-0.221,0.22-0.329,0.498-0.329,0.846
		c0,0.817,0.421,1.517,1.29,2.145c1.015,0.749,2.393,1.128,4.1,1.128c1.716,0,3.056-0.394,3.977-1.172
		c0.892-0.734,1.322-1.691,1.322-2.93c0-1.964-1.133-3.222-3.366-3.737l-2.505-0.57c-1.419-0.32-2.109-0.817-2.109-1.518
		c0-0.491,0.201-0.895,0.598-1.199c0.39-0.3,0.943-0.452,1.643-0.452c0.817,0,1.493,0.181,2.008,0.534
		c0.054,0.037,0.225,0.153,0.962,0.951c0.3,0.329,0.614,0.488,0.956,0.488c0.36,0,0.657-0.1,0.908-0.304
		c0.247-0.198,0.373-0.471,0.373-0.813c0-0.813-0.542-1.533-1.62-2.142c-1.027-0.578-2.165-0.872-3.387-0.872
		c-1.41,0-2.599,0.305-3.532,0.908c-1.09,0.714-1.619,1.717-1.619,3.064c0,1.818,1.06,3.013,3.148,3.553l3.377,0.865
		c0.894,0.234,1.344,0.726,1.344,1.463c0,0.49-0.22,0.915-0.656,1.265c-0.461,0.382-1.062,0.57-1.832,0.57
		c-0.877,0-1.598-0.223-2.147-0.661c-0.057-0.046-0.208-0.166-0.997-1.143C84.136,360.342,83.786,360.148,83.386,360.148
		L83.386,360.148z M84.868,359.479c0.183,0.143,0.356,0.314,0.518,0.514c0.652,0.804,0.811,0.957,0.828,0.973
		c0.321,0.257,0.778,0.387,1.388,0.387c0.483,0,0.837-0.099,1.083-0.303c0.215-0.173,0.215-0.273,0.215-0.34
		c0-0.086,0-0.192-0.453-0.311l-3.373-0.864C85.005,359.519,84.935,359.499,84.868,359.479L84.868,359.479z M86.126,354.582
		c0.111,0.091,0.449,0.277,1.177,0.44l2.176,0.496c-0.072-0.067-0.143-0.137-0.211-0.212c-0.601-0.651-0.763-0.776-0.77-0.781
		c-0.303-0.21-0.753-0.318-1.326-0.318c-0.42,0-0.746,0.073-0.919,0.207C86.169,354.474,86.138,354.52,86.126,354.582
		L86.126,354.582z M86.126,354.582"/>
</g>
<polyline class="st1" points="-66,573 -66,220.196 412.817,220.196 412.817,573 "/>
<path class="st2" d="M-26.895,245.256c-0.107-0.109-0.28-0.112-0.393-0.007c0,0-0.803,0.786-0.857,0.835
	c-0.013,0.013-0.027,0.024-0.044,0.032c-0.835,0.423-3.852-2.806-3.277-3.414l0.86-0.842c0.112-0.11,0.112-0.289,0.004-0.398
	l-2.814-2.87c-0.052-0.053-0.124-0.083-0.199-0.084c-0.074-0.001-0.146,0.028-0.199,0.081c-1.409,1.383-3.669,2.775,1.609,8.158
	c5.209,5.312,6.702,3.299,8.14,1.752c0.103-0.11,0.1-0.282-0.005-0.39L-26.895,245.256z"/>
<polyline class="st1" points="-66,573 -66,220.196 412.817,220.196 412.817,573 "/>
<path class="st2" d="M-24.555,243.181c0.075-2.266-1.768-4.105-4.03-4.03"/>
<polyline class="st1" points="-66,573 -66,220.196 412.817,220.196 412.817,573 "/>
<path class="st2" d="M-22.601,243.181c0.073-3.343-2.638-6.057-5.984-5.984"/>
<polyline class="st1" points="-66,573 -66,220.196 412.817,220.196 412.817,573 "/>
<path class="st2" d="M-28.584,241.105c1.182-0.078,2.154,0.895,2.076,2.076"/>
<polyline class="st1" points="-66,573 -66,220.196 412.817,220.196 412.817,573 "/>
<path class="st3" d="M-19.408,359.696c-0.206-0.209-0.539-0.215-0.755-0.014c0,0-1.546,1.512-1.648,1.607
	c-0.025,0.025-0.053,0.045-0.085,0.061c-1.607,0.814-7.408-5.397-6.302-6.565l1.654-1.62c0.214-0.211,0.215-0.555,0.007-0.766
	l-5.412-5.519c-0.1-0.102-0.237-0.16-0.381-0.162c-0.144,0-0.281,0.056-0.384,0.156c-2.71,2.661-7.055,5.336,3.095,15.688
	c10.017,10.216,12.888,6.345,15.653,3.371c0.199-0.212,0.193-0.543-0.01-0.75L-19.408,359.696z"/>
<polyline class="st1" points="-66,573 -66,220.196 412.817,220.196 412.817,573 "/>
<path class="st3" d="M-14.907,355.706c0.143-4.358-3.399-7.893-7.75-7.751"/>
<polyline class="st1" points="-66,573 -66,220.196 412.817,220.196 412.817,573 "/>
<path class="st3" d="M-11.149,355.706c0.141-6.428-5.072-11.648-11.507-11.507"/>
<polyline class="st1" points="-66,573 -66,220.196 412.817,220.196 412.817,573 "/>
<path class="st3" d="M-22.656,351.713c2.272-0.15,4.142,1.722,3.993,3.993"/>
<polyline class="st1" points="-66,573 -66,220.196 412.817,220.196 412.817,573 "/>
<path class="st2" d="M22.163,238.487l-5.203,5.45c-0.394,0.413-1.017,0.413-1.411,0l-5.203-5.45"/>
<polyline class="st1" points="-66,573 -66,220.196 412.817,220.196 412.817,573 "/>
<line class="st2" x1="18.678" y1="244.501" x2="22.163" y2="247.879"/>
<polyline class="st1" points="-66,573 -66,220.196 412.817,220.196 412.817,573 "/>
<line class="st2" x1="13.832" y1="244.501" x2="10.346" y2="247.879"/>
<polyline class="st1" points="-66,573 -66,220.196 412.817,220.196 412.817,573 "/>
<path class="st2" d="M8.779,238.433v9.499c0,0.967,0.673,1.749,1.537,1.749h12.017c0.864,0,1.542-0.782,1.542-1.749v-9.499
	c0-0.967-0.678-1.752-1.542-1.752H10.316C9.452,236.681,8.779,237.466,8.779,238.433z"/>
<polyline class="st1" points="-66,573 -66,220.196 412.817,220.196 412.817,573 "/>
<path class="st3" d="M41.858,350.186l-8.616,9.026c-0.653,0.683-1.685,0.683-2.338,0l-8.616-9.026"/>
<polyline class="st1" points="-66,573 -66,220.196 412.817,220.196 412.817,573 "/>
<line class="st3" x1="36.086" y1="360.146" x2="41.858" y2="365.74"/>
<polyline class="st1" points="-66,573 -66,220.196 412.817,220.196 412.817,573 "/>
<line class="st3" x1="28.061" y1="360.146" x2="22.289" y2="365.74"/>
<polyline class="st1" points="-66,573 -66,220.196 412.817,220.196 412.817,573 "/>
<path class="st3" d="M19.694,350.097v15.731c0,1.601,1.114,2.896,2.546,2.896h19.9c1.432,0,2.554-1.295,2.554-2.896v-15.731
	c0-1.602-1.122-2.901-2.554-2.901h-19.9C20.808,347.196,19.694,348.495,19.694,350.097z"/>
<polyline class="st1" points="-66,573 -66,220.196 412.817,220.196 412.817,573 "/>
<line class="st2" x1="61.59" y1="243.696" x2="64.418" y2="243.696"/>
<polyline class="st1" points="-66,573 -66,220.196 412.817,220.196 412.817,573 "/>
<circle class="st2" cx="61.59" cy="243.181" r="6.5"/>
<polyline class="st1" points="-66,573 -66,220.196 412.817,220.196 412.817,573 "/>
<line class="st2" x1="61.59" y1="243.696" x2="61.59" y2="239.676"/>
<polyline class="st1" points="-66,573 -66,220.196 412.817,220.196 412.817,573 "/>
<path class="st4" d="M-33.065,295.736c0,0.963,0.162,1.721,0.457,2.584c-0.509,0.228-0.864,0.737-0.864,1.331
	c0,0.805,0.653,1.459,1.459,1.459c0.008,0,0.016-0.002,0.025-0.002c0.302,3.843,4.671,7.088,7.436,7.088
	c2.836,0,7.133-3.244,7.435-7.088c0.009,0,0.017,0.002,0.026,0.002c0.805,0,1.458-0.654,1.458-1.459
	c0-0.594-0.356-1.103-0.864-1.331c0.294-0.863,0.457-1.622,0.457-2.585"/>
<polyline class="st1" points="-66,573 -66,220.196 412.817,220.196 412.817,573 "/>
<path class="st5" d="M-30.39,296.459l-0.209,2.426c0,0-0.796-1.099-2.008-0.566"/>
<polyline class="st1" points="-66,573 -66,220.196 412.817,220.196 412.817,573 "/>
<path class="st5" d="M-18.691,296.417l0.213,2.468c0,0,0.796-1.099,2.009-0.566"/>
<polyline class="st1" points="-66,573 -66,220.196 412.817,220.196 412.817,573 "/>
<path class="st5" d="M-27.587,285.304c-3.236,0.904-5.231,3.493-5.884,6.714c-0.984,0-1.789,0.805-1.789,1.789
	s0.759,1.459,1.789,1.789c9.195,3.239,17.837,0,17.837,0c0.983-0.297,1.789-0.805,1.789-1.789s-0.805-1.789-1.789-1.789
	c-0.654-3.221-2.614-5.81-5.851-6.714"/>
<polyline class="st1" points="-66,573 -66,220.196 412.817,220.196 412.817,573 "/>
<path class="st5" d="M-23.865,291.739h-1.341c-1.315,0-2.381-1.066-2.381-2.381v-3.782c0-1.315,1.066-2.38,2.38-2.38h1.343
	c1.314,0,2.379,1.065,2.379,2.379v3.784C-21.484,290.673-22.55,291.739-23.865,291.739z"/>
<polyline class="st1" points="-66,573 -66,220.196 412.817,220.196 412.817,573 "/>
<line class="st6" x1="-25.629" y1="304.029" x2="-23.423" y2="304.029"/>
<polyline class="st1" points="-66,573 -66,220.196 412.817,220.196 412.817,573 "/>
<line class="st4" x1="-26.776" y1="299.671" x2="-26.776" y2="299.671"/>
<polyline class="st1" points="-66,573 -66,220.196 412.817,220.196 412.817,573 "/>
<line class="st4" x1="-22.318" y1="299.671" x2="-22.318" y2="299.671"/>
<polyline class="st1" points="-66,573 -66,220.196 412.817,220.196 412.817,573 "/>
<path class="st5" d="M32.063,297.169l10.343-6.595l-10.127-6.615l-15.025,9.452l5.305,3.368c0.277,0.176,0.578,0.275,0.884,0.29
	L31,297.462C31.367,297.481,31.732,297.38,32.063,297.169z"/>
<polyline class="st1" points="-66,573 -66,220.196 412.817,220.196 412.817,573 "/>
<polyline class="st5" points="42.406,295.004 27.241,304.529 17.254,297.842 "/>
<polyline class="st1" points="-66,573 -66,220.196 412.817,220.196 412.817,573 "/>
<polyline class="st5" points="42.406,299.434 27.241,308.959 17.254,302.271 "/>
<polyline class="st1" points="-66,573 -66,220.196 412.817,220.196 412.817,573 "/>
<path class="st5" d="M31,297.462c0,0-2.772-1.731-3.994-4.629c-1.426,2.992-3.563,4.237-3.563,4.237"/>
<polyline class="st1" points="-66,573 -66,220.196 412.817,220.196 412.817,573 "/>
<line class="st5" x1="75.474" y1="291.656" x2="78.988" y2="288.158"/>
<polyline class="st1" points="-66,573 -66,220.196 412.817,220.196 412.817,573 "/>
<line class="st5" x1="77.401" y1="293.575" x2="78.807" y2="292.175"/>
<polyline class="st1" points="-66,573 -66,220.196 412.817,220.196 412.817,573 "/>
<line class="st5" x1="88.077" y1="304.204" x2="89.482" y2="302.805"/>
<polyline class="st1" points="-66,573 -66,220.196 412.817,220.196 412.817,573 "/>
<line class="st5" x1="90.085" y1="306.204" x2="93.601" y2="302.705"/>
<polyline class="st1" points="-66,573 -66,220.196 412.817,220.196 412.817,573 "/>
<path class="st5" d="M76.382,299.732c-0.071,0.07-2.857,7.13-2.857,7.13c-0.239,0.573,0.404,1.277,1.027,1.023
	c0,0,7.129-2.738,7.199-2.808"/>
<polyline class="st1" points="-66,573 -66,220.196 412.817,220.196 412.817,573 "/>
<line class="st5" x1="74.608" y1="304.126" x2="77.314" y2="306.821"/>
<polyline class="st1" points="-66,573 -66,220.196 412.817,220.196 412.817,573 "/>
<path class="st5" d="M97.541,286.919l-3.085-3.072c-0.598-0.596-1.566-0.596-2.164,0L76.359,299.71l5.414,5.39l15.768-15.699
	C98.229,288.717,98.229,287.603,97.541,286.919z"/>
<polyline class="st1" points="-66,573 -66,220.196 412.817,220.196 412.817,573 "/>
<polyline class="st5" points="84.963,288.35 79.826,283.235 73.39,289.643 78.527,294.757 "/>
<polyline class="st1" points="-66,573 -66,220.196 412.817,220.196 412.817,573 "/>
<polyline class="st5" points="86.761,302.954 92.064,308.235 98.5,301.827 93.197,296.547 "/>
<polyline class="st1" points="-66,573 -66,220.196 412.817,220.196 412.817,573 "/>
<line class="st5" x1="79.453" y1="302.789" x2="92.213" y2="290.084"/>
<polyline class="st1" points="-66,573 -66,220.196 412.817,220.196 412.817,573 "/>
<ellipse class="st5" cx="149.467" cy="285.199" rx="2.105" ry="1.972"/>
<polyline class="st1" points="-66,573 -66,220.196 412.817,220.196 412.817,573 "/>
<ellipse class="st5" cx="141.904" cy="306.224" rx="2.105" ry="1.972"/>
<polyline class="st1" points="-66,573 -66,220.196 412.817,220.196 412.817,573 "/>
<line class="st5" x1="140.999" y1="293.522" x2="147.995" y2="286.578"/>
<polyline class="st1" points="-66,573 -66,220.196 412.817,220.196 412.817,573 "/>
<line class="st5" x1="139.707" y1="298.143" x2="141.385" y2="304.315"/>
<polyline class="st1" points="-66,573 -66,220.196 412.817,220.196 412.817,573 "/>
<ellipse class="st5" cx="151.689" cy="302.289" rx="1.443" ry="1.352"/>
<polyline class="st1" points="-66,573 -66,220.196 412.817,220.196 412.817,573 "/>
<ellipse class="st5" cx="131.036" cy="299.831" rx="1.442" ry="1.351"/>
<polyline class="st1" points="-66,573 -66,220.196 412.817,220.196 412.817,573 "/>
<ellipse class="st5" cx="132.713" cy="284.548" rx="1.443" ry="1.351"/>
<polyline class="st1" points="-66,573 -66,220.196 412.817,220.196 412.817,573 "/>
<line class="st4" x1="133.332" y1="285.763" x2="133.898" y2="286.732"/>
<polyline class="st1" points="-66,573 -66,220.196 412.817,220.196 412.817,573 "/>
<line class="st7" x1="134.946" y1="288.529" x2="136.519" y2="291.223"/>
<polyline class="st1" points="-66,573 -66,220.196 412.817,220.196 412.817,573 "/>
<line class="st4" x1="137.043" y1="292.122" x2="137.608" y2="293.091"/>
<polyline class="st1" points="-66,573 -66,220.196 412.817,220.196 412.817,573 "/>
<line class="st4" x1="150.428" y1="301.645" x2="149.405" y2="301.094"/>
<polyline class="st1" points="-66,573 -66,220.196 412.817,220.196 412.817,573 "/>
<line class="st8" x1="147.117" y1="299.863" x2="143.685" y2="298.018"/>
<polyline class="st1" points="-66,573 -66,220.196 412.817,220.196 412.817,573 "/>
<line class="st4" x1="142.542" y1="297.402" x2="141.519" y2="296.852"/>
<polyline class="st1" points="-66,573 -66,220.196 412.817,220.196 412.817,573 "/>
<line class="st4" x1="132.295" y1="299.185" x2="134.312" y2="298.041"/>
<polyline class="st1" points="-66,573 -66,220.196 412.817,220.196 412.817,573 "/>
<line class="st4" x1="134.393" y1="297.996" x2="136.41" y2="296.852"/>
<polyline class="st1" points="-66,573 -66,220.196 412.817,220.196 412.817,573 "/>
<ellipse class="st5" cx="138.987" cy="295.498" rx="2.917" ry="2.732"/>
<polyline class="st1" points="-66,573 -66,220.196 412.817,220.196 412.817,573 "/>
<path class="st4" d="M191.542,307.395c-4.109,0-7.452-3.401-7.452-7.582s3.343-7.581,7.452-7.581c4.108,0,7.452,3.4,7.452,7.581
	S195.65,307.395,191.542,307.395z"/>
<polyline class="st1" points="-66,573 -66,220.196 412.817,220.196 412.817,573 "/>
<path class="st4" d="M201.639,307.395c-4.109,0-7.452-3.401-7.452-7.582s3.343-7.581,7.452-7.581c4.108,0,7.451,3.4,7.451,7.581
	S205.747,307.395,201.639,307.395z"/>
<polyline class="st1" points="-66,573 -66,220.196 412.817,220.196 412.817,573 "/>
<path class="st4" d="M196.602,298.39c-4.108,0-7.452-3.401-7.452-7.582s3.344-7.581,7.452-7.581c4.11,0,7.453,3.4,7.453,7.581
	C204.055,294.988,200.712,298.39,196.602,298.39z"/>
<polyline class="st1" points="-66,573 -66,220.196 412.817,220.196 412.817,573 "/>
<path class="st9" d="M252.065,285.573l-8.209,4.738c-0.138,0.079-0.222,0.224-0.222,0.382l0.001,9.671
	c0,0.158,0.084,0.303,0.222,0.382l8.207,4.742c0.067,0.04,0.144,0.06,0.221,0.06c0.076,0,0.152-0.02,0.22-0.06l8.209-4.738
	c0.136-0.079,0.22-0.225,0.22-0.382v-9.675c0-0.157-0.084-0.303-0.22-0.382l-8.208-4.738
	C252.369,285.494,252.201,285.494,252.065,285.573 M244.518,291.457l7.326,4.23l-0.001,8.655l-7.325-4.232L244.518,291.457
	L244.518,291.457z M260.052,300.113l-7.327,4.229l0.002-8.655l7.325-4.229L260.052,300.113L260.052,300.113z M252.285,294.923
	l-7.326-4.23l7.326-4.229l7.326,4.23L252.285,294.923z"/>
<polyline class="st1" points="-66,573 -66,220.196 412.817,220.196 412.817,573 "/>
<path class="st9" d="M264.727,288.26c-0.122-0.211-0.393-0.283-0.604-0.161l-1.582,0.914c-2.145-3.409-5.939-5.679-10.256-5.679
	s-8.111,2.27-10.256,5.679l-1.582-0.914c-0.211-0.122-0.481-0.05-0.604,0.161s-0.049,0.481,0.162,0.603l1.581,0.913
	c-0.899,1.692-1.411,3.621-1.411,5.667c0,6.529,5.194,11.867,11.667,12.1v1.466c0,0.243,0.198,0.441,0.441,0.441
	c0.244,0,0.442-0.198,0.442-0.441v-1.466c6.473-0.232,11.668-5.57,11.668-12.1c0-2.046-0.512-3.975-1.411-5.667l1.581-0.913
	C264.775,288.741,264.848,288.471,264.727,288.26 M252.285,306.67c-6.19,0-11.228-5.036-11.228-11.227
	c0-6.19,5.037-11.226,11.228-11.226c6.189,0,11.227,5.036,11.227,11.226C263.512,301.634,258.475,306.67,252.285,306.67"/>
<polyline class="st1" points="-66,573 -66,220.196 412.817,220.196 412.817,573 "/>
<line class="st4" x1="299.459" y1="305.136" x2="310.796" y2="305.136"/>
<polyline class="st1" points="-66,573 -66,220.196 412.817,220.196 412.817,573 "/>
<line class="st4" x1="299.459" y1="301.624" x2="310.796" y2="301.624"/>
<polyline class="st1" points="-66,573 -66,220.196 412.817,220.196 412.817,573 "/>
<line class="st4" x1="299.459" y1="298.113" x2="310.796" y2="298.113"/>
<polyline class="st1" points="-66,573 -66,220.196 412.817,220.196 412.817,573 "/>
<line class="st4" x1="299.459" y1="294.688" x2="304.602" y2="294.688"/>
<polyline class="st1" points="-66,573 -66,220.196 412.817,220.196 412.817,573 "/>
<line class="st4" x1="299.459" y1="284.45" x2="299.459" y2="289.019"/>
<polyline class="st1" points="-66,573 -66,220.196 412.817,220.196 412.817,573 "/>
<line class="st4" x1="304.641" y1="284.45" x2="304.641" y2="289.019"/>
<polyline class="st1" points="-66,573 -66,220.196 412.817,220.196 412.817,573 "/>
<ellipse class="st4" cx="299.458" cy="289.814" rx="1.263" ry="1.256"/>
<polyline class="st1" points="-66,573 -66,220.196 412.817,220.196 412.817,573 "/>
<line class="st4" x1="309.928" y1="284.45" x2="309.928" y2="289.019"/>
<polyline class="st1" points="-66,573 -66,220.196 412.817,220.196 412.817,573 "/>
<ellipse class="st4" cx="309.927" cy="289.814" rx="1.263" ry="1.256"/>
<polyline class="st1" points="-66,573 -66,220.196 412.817,220.196 412.817,573 "/>
<ellipse class="st4" cx="304.637" cy="289.814" rx="1.264" ry="1.256"/>
<polyline class="st1" points="-66,573 -66,220.196 412.817,220.196 412.817,573 "/>
<rect x="295.124" y="286.005" class="st4" width="19.104" height="23.445"/>
<polyline class="st1" points="-66,573 -66,220.196 412.817,220.196 412.817,573 "/>
<path class="st3" d="M-24.647,430.196c-5.753,0-10.432-4.762-10.432-10.613c0-5.854,4.679-10.615,10.432-10.615
	s10.433,4.761,10.433,10.615C-14.214,425.434-18.895,430.196-24.647,430.196z"/>
<polyline class="st1" points="-66,573 -66,220.196 412.817,220.196 412.817,573 "/>
<path class="st3" d="M-10.513,430.196c-5.753,0-10.432-4.762-10.432-10.613c0-5.854,4.679-10.615,10.432-10.615
	s10.433,4.761,10.433,10.615C-0.08,425.434-4.76,430.196-10.513,430.196z"/>
<polyline class="st1" points="-66,573 -66,220.196 412.817,220.196 412.817,573 "/>
<path class="st3" d="M-17.563,417.588c-5.753,0-10.433-4.762-10.433-10.613c0-5.854,4.68-10.615,10.433-10.615
	c5.754,0,10.434,4.761,10.434,10.615C-7.129,412.826-11.809,417.588-17.563,417.588z"/>
<polyline class="st1" points="-66,573 -66,220.196 412.817,220.196 412.817,573 "/>
<path class="st0" d="M61.93,413.059v-10.55c1.74-0.294,3.07-1.807,3.07-3.629c0-2.031-1.653-3.684-3.684-3.684
	c-1.823,0-3.335,1.33-3.629,3.069h-10.55c-0.293-1.74-1.806-3.069-3.628-3.069c-2.032,0-3.684,1.653-3.684,3.684
	c0,1.822,1.33,3.335,3.07,3.629v5.581h-5.582c-0.294-1.738-1.807-3.068-3.629-3.068c-2.032,0-3.684,1.651-3.684,3.683
	c0,1.822,1.33,3.336,3.07,3.629v10.549c-1.74,0.295-3.07,1.808-3.07,3.63c0,2.031,1.652,3.685,3.684,3.685
	c1.822,0,3.335-1.331,3.629-3.07h10.55c0.293,1.739,1.806,3.07,3.628,3.07c2.032,0,3.684-1.653,3.684-3.685
	c0-1.822-1.33-3.335-3.07-3.63v-5.581h5.582c0.294,1.739,1.806,3.07,3.629,3.07c2.032,0,3.684-1.652,3.684-3.684
	C65,414.865,63.67,413.353,61.93,413.059 M61.316,396.425c1.355,0,2.455,1.102,2.455,2.456c0,1.354-1.1,2.456-2.455,2.456
	s-2.456-1.102-2.456-2.456C58.86,397.526,59.961,396.425,61.316,396.425 M41.053,398.88c0-1.354,1.101-2.456,2.456-2.456
	c1.354,0,2.456,1.102,2.456,2.456c0,1.354-1.102,2.456-2.456,2.456C42.154,401.336,41.053,400.235,41.053,398.88 M44.123,409.319
	h3.74c0.26,1.54,1.475,2.755,3.014,3.015v3.74h-3.74c-0.26-1.539-1.475-2.755-3.014-3.015V409.319z M43.509,414.232
	c1.354,0,2.456,1.101,2.456,2.456c0,1.354-1.102,2.456-2.456,2.456c-1.355,0-2.456-1.103-2.456-2.456
	C41.053,415.332,42.154,414.232,43.509,414.232 M31.228,408.704c0-1.354,1.101-2.456,2.456-2.456s2.456,1.102,2.456,2.456
	c0,1.355-1.101,2.457-2.456,2.457S31.228,410.06,31.228,408.704 M33.684,428.967c-1.355,0-2.456-1.102-2.456-2.455
	c0-1.354,1.101-2.457,2.456-2.457s2.456,1.103,2.456,2.457C36.14,427.865,35.039,428.967,33.684,428.967 M47.863,425.898h-10.55
	c-0.26-1.539-1.475-2.755-3.014-3.016v-10.549c1.538-0.26,2.754-1.475,3.014-3.015h5.582v3.74c-1.74,0.294-3.07,1.807-3.07,3.629
	c0,2.031,1.652,3.684,3.684,3.684c1.822,0,3.335-1.331,3.628-3.07h3.74v5.581C49.338,423.143,48.122,424.359,47.863,425.898
	 M53.947,426.512c0,1.354-1.101,2.455-2.456,2.455c-1.354,0-2.456-1.102-2.456-2.455c0-1.354,1.102-2.457,2.456-2.457
	C52.846,424.055,53.947,425.157,53.947,426.512 M51.491,411.161c-1.354,0-2.456-1.102-2.456-2.457c0-1.354,1.102-2.456,2.456-2.456
	c1.355,0,2.456,1.102,2.456,2.456C53.947,410.06,52.846,411.161,51.491,411.161 M57.687,416.073h-5.582v-3.74
	c1.74-0.293,3.07-1.807,3.07-3.629c0-2.031-1.652-3.683-3.684-3.683c-1.822,0-3.335,1.33-3.628,3.068h-3.74v-5.581
	c1.539-0.26,2.754-1.475,3.014-3.015h10.55c0.26,1.539,1.475,2.754,3.014,3.015v10.55C59.162,413.319,57.947,414.534,57.687,416.073
	 M61.316,419.144c-1.355,0-2.456-1.103-2.456-2.456c0-1.355,1.101-2.456,2.456-2.456s2.455,1.101,2.455,2.456
	C63.771,418.041,62.671,419.144,61.316,419.144"/>
<polyline class="st1" points="-66,573 -66,220.196 412.817,220.196 412.817,573 "/>
<path class="st0" d="M95.667,412.696c0-9.006,7.327-16.333,16.333-16.333c5.056,0,9.787,2.38,12.867,6.416h-3.533
	c-0.323,0-0.584,0.263-0.584,0.584s0.261,0.583,0.584,0.583H126c0.018,0,0.034-0.009,0.052-0.011
	c0.039-0.003,0.076-0.011,0.113-0.021c0.04-0.013,0.074-0.026,0.109-0.045c0.016-0.009,0.034-0.01,0.049-0.021
	c0.016-0.01,0.025-0.027,0.04-0.039c0.031-0.024,0.059-0.053,0.084-0.084c0.023-0.029,0.043-0.058,0.06-0.09
	c0.018-0.033,0.031-0.065,0.042-0.101c0.012-0.038,0.02-0.076,0.023-0.117c0.002-0.019,0.012-0.035,0.012-0.055v-4.666
	c0-0.321-0.261-0.583-0.584-0.583c-0.322,0-0.583,0.262-0.583,0.583v2.906c-3.303-4.037-8.196-6.406-13.417-6.406
	c-9.649,0-17.5,7.851-17.5,17.5c0,1.857,0.289,3.684,0.859,5.429c0.079,0.247,0.309,0.403,0.554,0.403
	c0.06,0,0.121-0.01,0.181-0.029c0.306-0.101,0.474-0.43,0.374-0.735C95.937,416.134,95.667,414.43,95.667,412.696"/>
<polyline class="st1" points="-66,573 -66,220.196 412.817,220.196 412.817,573 "/>
<path class="st0" d="M110.029,424.319c0.072,0.029,0.146,0.043,0.22,0.043c0.192,0,0.378-0.095,0.489-0.264l8.75-13.417
	c0.127-0.194,0.126-0.444,0-0.638c-0.128-0.193-0.357-0.295-0.584-0.256l-6.187,1.03l1.606-9.104
	c0.049-0.277-0.106-0.55-0.369-0.648c-0.262-0.098-0.56,0.005-0.704,0.246l-8.751,14.583c-0.117,0.196-0.11,0.441,0.019,0.629
	c0.127,0.188,0.354,0.284,0.577,0.247l6.167-1.026l-1.585,7.921C109.624,423.939,109.771,424.214,110.029,424.319 M106.15,415.413
	l6.477-10.796l-1.202,6.811c-0.033,0.187,0.027,0.377,0.16,0.512c0.134,0.135,0.323,0.197,0.51,0.165l5.691-0.948l-6.37,9.767
	l1.155-5.779c0.038-0.188-0.019-0.383-0.152-0.521c-0.111-0.114-0.263-0.178-0.419-0.178c-0.032,0-0.064,0.002-0.096,0.009
	L106.15,415.413z"/>
<polyline class="st1" points="-66,573 -66,220.196 412.817,220.196 412.817,573 "/>
<path class="st0" d="M128.608,407.168c-0.102-0.307-0.431-0.472-0.738-0.369c-0.305,0.102-0.471,0.432-0.37,0.737
	c0.553,1.657,0.833,3.394,0.833,5.159c0,9.006-7.327,16.333-16.333,16.333c-5.055,0-9.786-2.38-12.867-6.416h3.533
	c0.323,0,0.583-0.262,0.583-0.584s-0.26-0.583-0.583-0.583H98c-0.018,0-0.034,0.009-0.051,0.011
	c-0.039,0.004-0.077,0.012-0.116,0.023c-0.038,0.012-0.073,0.025-0.108,0.043c-0.015,0.009-0.032,0.01-0.048,0.021
	c-0.017,0.011-0.025,0.027-0.039,0.039c-0.032,0.025-0.06,0.054-0.085,0.084c-0.023,0.029-0.043,0.059-0.06,0.091
	c-0.018,0.032-0.031,0.064-0.042,0.102c-0.012,0.037-0.02,0.075-0.024,0.115c-0.001,0.019-0.011,0.036-0.011,0.055v4.667
	c0,0.322,0.261,0.583,0.584,0.583c0.322,0,0.583-0.261,0.583-0.583v-2.907c3.303,4.037,8.196,6.407,13.417,6.407
	c9.649,0,17.5-7.85,17.5-17.5C129.5,410.805,129.199,408.945,128.608,407.168"/>
<polyline class="st1" points="-66,573 -66,220.196 412.817,220.196 412.817,573 "/>
<line class="st3" x1="171.021" y1="424.388" x2="169.961" y2="430.193"/>
<polyline class="st1" points="-66,573 -66,220.196 412.817,220.196 412.817,573 "/>
<line class="st3" x1="184.443" y1="424.388" x2="185.503" y2="430.193"/>
<polyline class="st1" points="-66,573 -66,220.196 412.817,220.196 412.817,573 "/>
<circle class="st3" cx="166.073" cy="408.167" r="1.317"/>
<polyline class="st1" points="-66,573 -66,220.196 412.817,220.196 412.817,573 "/>
<circle class="st3" cx="173.821" cy="403.236" r="1.317"/>
<polyline class="st1" points="-66,573 -66,220.196 412.817,220.196 412.817,573 "/>
<circle class="st3" cx="181.569" cy="415.21" r="1.317"/>
<polyline class="st1" points="-66,573 -66,220.196 412.817,220.196 412.817,573 "/>
<circle class="st3" cx="189.317" cy="406.758" r="1.318"/>
<polyline class="st1" points="-66,573 -66,220.196 412.817,220.196 412.817,573 "/>
<line class="st3" x1="172.726" y1="403.966" x2="167.182" y2="407.461"/>
<polyline class="st1" points="-66,573 -66,220.196 412.817,220.196 412.817,573 "/>
<line class="st3" x1="174.535" y1="404.34" x2="180.854" y2="414.105"/>
<polyline class="st1" points="-66,573 -66,220.196 412.817,220.196 412.817,573 "/>
<line class="st3" x1="182.456" y1="414.242" x2="188.409" y2="407.748"/>
<polyline class="st1" points="-66,573 -66,220.196 412.817,220.196 412.817,573 "/>
<rect x="160.211" y="397.718" class="st3" width="35" height="24.139"/>
<polyline class="st1" points="-66,573 -66,220.196 412.817,220.196 412.817,573 "/>
<line class="st3" x1="183.142" y1="395.2" x2="183.142" y2="397.614"/>
<polyline class="st1" points="-66,573 -66,220.196 412.817,220.196 412.817,573 "/>
<line class="st3" x1="172.28" y1="395.2" x2="172.28" y2="397.614"/>
<polyline class="st1" points="-66,573 -66,220.196 412.817,220.196 412.817,573 "/>
<polyline class="st3" points="227,412.315 229.459,409.903 231.853,412.342 "/>
<polyline class="st1" points="-66,573 -66,220.196 412.817,220.196 412.817,573 "/>
<path class="st3" d="M239.134,428.141c-7.212-3.045-10.972-10.843-9.673-18.238"/>
<polyline class="st1" points="-66,573 -66,220.196 412.817,220.196 412.817,573 "/>
<polyline class="st3" points="253.545,429.815 250.225,428.901 251.131,425.605 "/>
<polyline class="st1" points="-66,573 -66,220.196 412.817,220.196 412.817,573 "/>
<path class="st3" d="M261.871,411.144c0.992,7.765-3.859,14.935-10.906,17.528"/>
<polyline class="st1" points="-66,573 -66,220.196 412.817,220.196 412.817,573 "/>
<polyline class="st3" points="255.575,397.037 256.481,400.36 253.184,401.26 "/>
<polyline class="st1" points="-66,573 -66,220.196 412.817,220.196 412.817,573 "/>
<path class="st3" d="M235.381,399.767c6.174-4.812,14.815-4.292,20.64,0.448"/>
<text transform="matrix(1 0 0 1 237.4365 416.1154)" class="st0 st10 st11">BIM</text>
<polyline class="st1" points="-66,573 -66,220.196 412.817,220.196 412.817,573 "/>
<path class="st0" d="M328.034,415.571l-0.892-1.123l-4.111,3.263l-5.395-3.114v-6.207l4.364-3.461l-0.891-1.124l-4.25,3.372
	l-5.49-3.169v-4.389h-1.435v4.653l-5.026,2.903l-4.248-3.371l-0.893,1.124l4.359,3.458v6.077l-6.267,3.619v7.063l-4.341,3.443
	l0.893,1.123l4.247-3.37l5.955,3.438l6.151-3.553l6.153,3.553l6.755-3.899v-6.852L328.034,415.571z M305.563,408.452l5.32-3.07
	l5.32,3.07v6.144l-5.321,3.072l-5.319-3.071V408.452z M309.936,425.053l-5.32,3.072l-5.32-3.072v-6.144l5.32-3.072l5.32,3.072
	V425.053z M322.241,425.053l-5.321,3.072l-5.32-3.072v-6.143l5.322-3.072l5.319,3.071L322.241,425.053L322.241,425.053z"/>
<polyline class="st1" points="-66,573 -66,220.196 412.817,220.196 412.817,573 "/>
<path class="st0" d="M311.37,399.631c0-0.396-0.321-0.717-0.718-0.717c-0.396,0-0.717,0.321-0.717,0.717s0.321,0.717,0.717,0.717
	C311.049,400.348,311.37,400.028,311.37,399.631"/>
<polyline class="st1" points="-66,573 -66,220.196 412.817,220.196 412.817,573 "/>
<path class="st0" d="M328.274,415.04c0-0.396-0.32-0.717-0.717-0.717c-0.396,0-0.717,0.321-0.717,0.717s0.321,0.718,0.717,0.718
	C327.954,415.758,328.274,415.437,328.274,415.04"/>
<polyline class="st1" points="-66,573 -66,220.196 412.817,220.196 412.817,573 "/>
<path class="st0" d="M294.709,429.131c0-0.396-0.321-0.717-0.717-0.717s-0.718,0.32-0.718,0.717c0,0.396,0.321,0.717,0.718,0.717
	C294.388,429.848,294.709,429.527,294.709,429.131"/>
<polyline class="st1" points="-66,573 -66,220.196 412.817,220.196 412.817,573 "/>
<path class="st0" d="M322.241,404.388c0-0.396-0.321-0.717-0.718-0.717c-0.396,0-0.717,0.321-0.717,0.717s0.321,0.718,0.717,0.718
	C321.92,405.106,322.241,404.784,322.241,404.388"/>
<polyline class="st1" points="-66,573 -66,220.196 412.817,220.196 412.817,573 "/>
<path class="st0" d="M300.937,404.365c0-0.396-0.32-0.717-0.717-0.717c-0.396,0-0.717,0.321-0.717,0.717s0.321,0.718,0.717,0.718
	S300.937,404.762,300.937,404.365"/>
<polyline class="st1" points="-66,573 -66,220.196 412.817,220.196 412.817,573 "/>
<path class="st4" d="M353.381,300.984c1.098,0.372,1.709,0.524,2.5,1.585c0.15,0.201,0.073,0.488-0.153,0.588
	c-4.503,1.992-3.537,1.772-6.348,1.772c-1.409,0-2.979-0.286-2.979-1.702c0-0.304,0.116-0.623,0.346-0.948l0.371-0.581
	 M354.848,303.545c0.751,0.458,1.148,0.59,1.742,1.272c0.151,0.194,0.311,0.339,0.249,0.57c-0.03,0.114-0.109,0.208-0.217,0.257
	c-4.405,1.964-3.765,1.842-5.81,1.842c-1.407,0-2.879-0.289-2.879-1.691l0.296-0.944 M355.521,306.134
	c0.649,0.655,2.4,1.994,1.553,2.376l-3.09,1.393c-0.748,0.337-2.282,0.307-3.029-0.207c-0.811-0.556-0.692-1.287-0.642-2.223
	 M348.671,299.182l0.756-0.034c0.704-0.288,1.702-0.683,2.466-0.683c1.906,0,3.2,1.748,2.505,2.061l-3.146,1.418
	c-1.56,0.703-4.913,0.583-5.528-2.346c-0.295-1.398,0.343-2.421,1.881-3.03c1.178-0.461,2.935-0.693,5.224-0.693h0.366
	c0,0-0.549-3.513-1.615-5.283l-0.003-0.005c-0.557-0.956-1.052-1.774-1.052-2.916c0-3.07,2.869-2.965,3.239-1.244
	c0.598,2.772,2.056,3.935,4.688,6.739c0.008,0.008,0.015,0.016,0.021,0.025c0.369,0.46,3.001,3.973,3.537,4.219
	c0.229,0.107,3.463,0.284,3.463,0.284c0.51,1.411,0.842,2.77,0.842,4.489c0,1.513-0.322,2.784-0.773,4.091h-2.643
	c-0.235,0-0.454,0.109-0.604,0.291c-1.138,1.393-2.503,2.527-4.255,3.537c-1.162,0.339-2.563-0.088-3.655-0.38"/>
<polyline class="st1" points="-66,573 -66,220.196 412.817,220.196 412.817,573 "/>
<path class="st12" d="M-24.992,484.545l4.287,4.287c0.312,0.313,0.312,0.818,0,1.13c-0.311,0.312-0.817,0.312-1.129,0l-4.287-4.288"
	/>
<polyline class="st1" points="-66,573 -66,220.196 412.817,220.196 412.817,573 "/>
<circle class="st13" cx="-29.64" cy="481.027" r="5.831"/>
<polyline class="st1" points="-66,573 -66,220.196 412.817,220.196 412.817,573 "/>
<path class="st13" d="M-29.26,477.013c-1.124-0.037-2.259,0.369-3.117,1.228c-0.857,0.857-1.263,1.993-1.227,3.117"/>
<polyline class="st1" points="-66,573 -66,220.196 412.817,220.196 412.817,573 "/>
<polyline class="st14" points="10.527,490.196 14.877,485.196 10.527,480.196 "/>
<polyline class="st1" points="-66,573 -66,220.196 412.817,220.196 412.817,573 "/>
<polyline class="st14" points="15.883,490.196 20.233,485.196 15.883,480.196 "/>
<polyline class="st1" points="-66,573 -66,220.196 412.817,220.196 412.817,573 "/>
<polyline class="st3" points="92.38,490.196 95.965,486.073 92.38,481.952 "/>
<polyline class="st1" points="-66,573 -66,220.196 412.817,220.196 412.817,573 "/>
<polyline class="st3" points="96.794,490.196 100.379,486.073 96.794,481.952 "/>
<polyline class="st1" points="-66,573 -66,220.196 412.817,220.196 412.817,573 "/>
<polyline class="st3" points="139.38,490.196 135.795,486.073 139.38,481.952 "/>
<polyline class="st1" points="-66,573 -66,220.196 412.817,220.196 412.817,573 "/>
<polyline class="st3" points="134.965,490.196 131.38,486.073 134.965,481.952 "/>
<polyline class="st1" points="-66,573 -66,220.196 412.817,220.196 412.817,573 "/>
<polyline class="st14" points="60.977,490.196 56.627,485.196 60.977,480.196 "/>
<polyline class="st1" points="-66,573 -66,220.196 412.817,220.196 412.817,573 "/>
<polyline class="st14" points="55.621,490.196 51.271,485.196 55.621,480.196 "/>
<line class="st5" x1="309.244" y1="251.652" x2="309.244" y2="241.654"/>
<polyline class="st15" points="313.873,246.865 309.247,251.654 304.619,246.865 "/>
<g id="XMLID_39_">
	<path id="XMLID_268_" class="st16" d="M270.729,251.267c-0.698,0-1.378-0.188-1.975-0.545c-0.188,0.017-0.377,0.025-0.565,0.025
		c-3.303,0-5.99-2.715-5.99-6.055c0-0.257,0.017-0.518,0.049-0.777c-0.256-0.532-0.391-1.124-0.391-1.719
		c0-2.167,1.744-3.93,3.889-3.93c0.601,0,1.198,0.143,1.735,0.413c0.234-0.028,0.471-0.041,0.708-0.041
		c3.304,0,5.99,2.716,5.99,6.054c0,0.248-0.015,0.498-0.046,0.744c0.318,0.581,0.486,1.235,0.486,1.899
		C274.618,249.504,272.873,251.267,270.729,251.267L270.729,251.267z M268.9,250.083l0.092,0.058
		c0.52,0.332,1.121,0.506,1.737,0.506c1.805,0,3.27-1.485,3.27-3.311c0-0.592-0.157-1.173-0.454-1.681l-0.053-0.091l0.014-0.106
		c0.036-0.253,0.054-0.51,0.054-0.764c0-2.997-2.41-5.436-5.373-5.436c-0.242,0-0.485,0.017-0.724,0.05l-0.099,0.012l-0.088-0.047
		c-0.47-0.252-1-0.387-1.532-0.387c-1.803,0-3.27,1.485-3.27,3.311c0,0.529,0.127,1.056,0.367,1.525l0.045,0.088l-0.015,0.097
		c-0.037,0.262-0.056,0.526-0.056,0.787c0,2.997,2.41,5.436,5.371,5.436c0.2,0,0.403-0.012,0.603-0.034L268.9,250.083z
		 M268.9,250.083"/>
	<path id="XMLID_240_" class="st16" d="M268.055,248.956c-1.022,0-1.862-0.237-2.497-0.706c-0.604-0.435-0.925-0.994-0.925-1.614
		c0-0.346,0.123-0.65,0.356-0.881c0.249-0.245,0.592-0.369,0.952-0.345c-1.119-0.583-1.308-1.558-1.308-2.149
		c0-0.901,0.389-1.631,1.124-2.113c0.588-0.38,1.318-0.572,2.173-0.572c0.743,0,1.438,0.179,2.065,0.534
		c0.768,0.434,1.158,0.99,1.158,1.652c0,0.365-0.152,0.686-0.425,0.906c-0.199,0.16-0.428,0.254-0.685,0.283
		c1.185,0.587,1.385,1.62,1.385,2.253c0,0.829-0.306,1.502-0.912,1.999C269.926,248.703,269.097,248.956,268.055,248.956
		L268.055,248.956z M265.858,246.027c-0.178,0-0.319,0.055-0.434,0.168c-0.115,0.114-0.171,0.259-0.171,0.44
		c0,0.425,0.219,0.789,0.671,1.115c0.528,0.389,1.245,0.586,2.132,0.586c0.892,0,1.589-0.205,2.068-0.609
		c0.464-0.382,0.687-0.879,0.687-1.523c0-1.021-0.589-1.675-1.75-1.943l-1.302-0.296c-0.738-0.167-1.097-0.425-1.097-0.79
		c0-0.256,0.104-0.465,0.311-0.623c0.203-0.156,0.49-0.235,0.854-0.235c0.425,0,0.777,0.094,1.044,0.278
		c0.028,0.019,0.117,0.08,0.5,0.495c0.156,0.171,0.319,0.254,0.497,0.254c0.187,0,0.342-0.052,0.472-0.158
		c0.129-0.103,0.194-0.245,0.194-0.423c0-0.423-0.282-0.797-0.842-1.114c-0.534-0.301-1.126-0.453-1.761-0.453
		c-0.733,0-1.351,0.159-1.837,0.472c-0.567,0.371-0.842,0.893-0.842,1.593c0,0.945,0.551,1.567,1.637,1.848l1.756,0.45
		c0.465,0.122,0.699,0.377,0.699,0.761c0,0.255-0.114,0.476-0.341,0.658c-0.24,0.199-0.552,0.296-0.953,0.296
		c-0.456,0-0.831-0.116-1.116-0.344c-0.03-0.024-0.108-0.086-0.518-0.594C266.248,246.128,266.066,246.027,265.858,246.027
		L265.858,246.027z M266.628,245.679c0.095,0.074,0.185,0.163,0.27,0.268c0.339,0.418,0.422,0.498,0.431,0.506
		c0.167,0.134,0.405,0.201,0.722,0.201c0.251,0,0.435-0.052,0.563-0.157c0.112-0.09,0.112-0.142,0.112-0.177
		c0-0.045,0-0.1-0.236-0.162l-1.754-0.449C266.699,245.7,266.663,245.69,266.628,245.679L266.628,245.679z M267.282,243.133
		c0.058,0.047,0.233,0.144,0.612,0.229l1.132,0.258c-0.037-0.035-0.074-0.071-0.11-0.11c-0.313-0.339-0.397-0.404-0.4-0.406
		c-0.157-0.109-0.391-0.165-0.69-0.165c-0.218,0-0.388,0.038-0.478,0.107C267.305,243.077,267.288,243.101,267.282,243.133
		L267.282,243.133z M267.282,243.133"/>
</g>
<g id="XMLID_20_">
	<g id="XMLID_21_">
		<defs>
			<rect id="XMLID_22_" x="98.5" y="237.196" width="7.1" height="13"/>
		</defs>
		<clipPath id="XMLID_2_">
			<use xlink:href="#XMLID_22_"  style="overflow:visible;"/>
		</clipPath>
		<path id="XMLID_23_" class="st17" d="M105.264,237.182l-1.686-0.003c-1.894,0-3.118,1.256-3.118,3.199v1.475h-1.695
			c-0.146,0-0.265,0.118-0.265,0.265v2.138c0,0.146,0.119,0.265,0.265,0.265h1.695v5.393c0,0.146,0.119,0.265,0.265,0.265h2.211
			c0.147,0,0.265-0.119,0.265-0.265v-5.393h1.982c0.147,0,0.265-0.119,0.265-0.265l0.001-2.138c0-0.07-0.028-0.137-0.078-0.187
			c-0.05-0.05-0.117-0.077-0.187-0.077h-1.982v-1.251c0-0.601,0.143-0.906,0.926-0.906l1.136-0.001c0.147,0,0.265-0.119,0.265-0.265
			v-1.984C105.528,237.301,105.41,237.183,105.264,237.182L105.264,237.182z M105.264,237.182"/>
	</g>
</g>
<g id="XMLID_27_">
	<path id="XMLID_28_" class="st16" d="M149.042,240.497c-0.496,0.22-1.034,0.372-1.595,0.439c0.574-0.344,1.012-0.889,1.223-1.538
		c-0.537,0.318-1.132,0.55-1.769,0.674c-0.504-0.537-1.227-0.876-2.025-0.876c-1.533,0-2.777,1.244-2.777,2.777
		c0,0.219,0.025,0.43,0.071,0.633c-2.31-0.116-4.355-1.22-5.727-2.902c-0.24,0.409-0.377,0.889-0.377,1.397
		c0,0.963,0.492,1.814,1.236,2.309c-0.455-0.012-0.88-0.14-1.256-0.347v0.034c0,1.347,0.958,2.47,2.227,2.727
		c-0.232,0.061-0.479,0.094-0.731,0.094c-0.178,0-0.351-0.016-0.525-0.049c0.355,1.103,1.379,1.904,2.595,1.93
		c-0.951,0.744-2.15,1.186-3.451,1.186c-0.223,0-0.442-0.013-0.661-0.037c1.231,0.789,2.69,1.247,4.26,1.247
		c5.108,0,7.901-4.232,7.901-7.9l-0.008-0.36C148.199,241.543,148.67,241.056,149.042,240.497L149.042,240.497z M149.042,240.497"/>
</g>
<g id="XMLID_32_">
	<path id="XMLID_33_" class="st16" d="M183.253,250.196c-2.593,0-3.753-1.284-3.753-2.557c0-0.26,0.051-0.664,0.295-1.107
		c0.237-0.431,0.598-0.793,1.073-1.075c0.921-0.563,2.117-0.704,2.906-0.764c-0.176-0.25-0.327-0.547-0.327-0.963
		c0-0.176,0.029-0.314,0.069-0.435c-0.084,0.005-0.167,0.009-0.246,0.009c-1.102,0-1.789-0.475-2.171-0.874
		c-0.489-0.51-0.769-1.208-0.769-1.915c0-0.873,0.421-1.756,1.127-2.363l0.003-0.003c1.037-0.854,2.259-0.953,3.087-0.953h4.133
		l-1.728,0.97h-0.587c0.399,0.398,0.874,1.053,0.874,2.05c0,1.345-0.805,1.982-1.456,2.493l-0.018,0.018
		c-0.197,0.196-0.383,0.382-0.383,0.653c0,0.271,0.188,0.425,0.353,0.561l0.007,0.005l0.598,0.464l0.003,0.002
		c0.718,0.603,1.46,1.226,1.46,2.463c0,0.858-0.431,1.695-1.182,2.297C185.786,249.843,184.622,250.196,183.253,250.196z
		 M182.635,245.762c-0.325,0.118-1.3,0.475-1.3,1.529c0,0.52,0.247,0.969,0.715,1.299c0.496,0.35,1.194,0.535,2.017,0.535
		c1.389,0,2.252-0.614,2.252-1.602c0-0.73-0.464-1.135-1.69-2.006c-0.097-0.01-0.172-0.01-0.313-0.01
		C184.306,245.507,183.368,245.518,182.635,245.762z M183.503,238.117c-0.378,0-0.786,0.192-1.015,0.477
		c-0.218,0.269-0.323,0.632-0.323,1.109c0,0.463,0.125,1.179,0.477,1.798c0.25,0.44,0.696,0.963,1.408,0.963
		c0.345,0,0.755-0.168,0.997-0.409c0.242-0.242,0.36-0.595,0.36-1.077c0-0.615-0.193-1.334-0.505-1.878
		C184.645,238.651,184.194,238.117,183.503,238.117z"/>
</g>
<g id="XMLID_9_">
	<path id="XMLID_47_" class="st16" d="M221.515,241.387h-2.601c-0.115,0-0.209,0.093-0.209,0.209v8.354
		c0,0.115,0.093,0.209,0.209,0.209h2.601c0.115,0,0.209-0.093,0.209-0.209v-8.354C221.724,241.48,221.631,241.387,221.515,241.387
		L221.515,241.387z M221.515,241.387"/>
	<g id="XMLID_40_">
		<path id="XMLID_44_" class="st16" d="M220.216,237.234c-0.946,0-1.716,0.769-1.716,1.714c0,0.946,0.77,1.715,1.716,1.715
			c0.945,0,1.715-0.769,1.715-1.715C221.931,238.003,221.161,237.234,220.216,237.234L220.216,237.234z M220.216,237.234"/>
		<path id="XMLID_41_" class="st16" d="M228.13,241.179c-1.044,0-1.817,0.449-2.285,0.959v-0.543c0-0.115-0.094-0.209-0.209-0.209
			h-2.491c-0.115,0-0.209,0.093-0.209,0.209v8.354c0,0.115,0.093,0.209,0.209,0.209h2.595c0.115,0,0.209-0.093,0.209-0.209v-4.133
			c0-1.393,0.378-1.936,1.349-1.936c1.058,0,1.142,0.87,1.142,2.007v4.062c0,0.115,0.093,0.209,0.209,0.209h2.596
			c0.115,0,0.209-0.093,0.209-0.209v-4.583C231.454,243.296,231.059,241.179,228.13,241.179L228.13,241.179z M228.13,241.179"/>
	</g>
</g>
</svg>
